<mxfile host="Electron" agent="Mozilla/5.0 (Windows NT 10.0; Win64; x64) AppleWebKit/537.36 (KHTML, like Gecko) draw.io/28.1.2 Chrome/138.0.7204.243 Electron/37.4.0 Safari/537.36" version="28.1.2">
  <diagram name="Страница — 1" id="vND71Olbk3QixdfkSzOp">
    <mxGraphModel dx="-3447" dy="3038" grid="1" gridSize="10" guides="1" tooltips="1" connect="1" arrows="1" fold="1" page="1" pageScale="1" pageWidth="827" pageHeight="1169" math="0" shadow="0">
      <root>
        <mxCell id="0" />
        <mxCell id="1" parent="0" />
        <mxCell id="XxbNxEbGSxFkQmwMolrK-102" value="" style="rounded=0;whiteSpace=wrap;html=1;" vertex="1" parent="1">
          <mxGeometry x="6960" y="-400" width="1560" height="4640" as="geometry" />
        </mxCell>
        <mxCell id="oIxDtNnSTY3G4xufg-7Y-80" value="" style="group" parent="1" vertex="1" connectable="0">
          <mxGeometry x="8200" y="3600" width="240" height="240" as="geometry" />
        </mxCell>
        <mxCell id="oIxDtNnSTY3G4xufg-7Y-27" value="Collection&amp;nbsp;&lt;div&gt;Subscription&lt;/div&gt;" style="rounded=0;whiteSpace=wrap;html=1;fontSize=18;fontStyle=1;labelBackgroundColor=none;labelBorderColor=none;textShadow=0;fontFamily=Georgia;strokeColor=#333333;fontColor=#FFFFFF;fillColor=#333333;" parent="oIxDtNnSTY3G4xufg-7Y-80" vertex="1">
          <mxGeometry width="240" height="80" as="geometry" />
        </mxCell>
        <mxCell id="oIxDtNnSTY3G4xufg-7Y-28" value="id" style="rounded=0;whiteSpace=wrap;html=1;fontSize=18;fillColor=#007FFF;fontColor=#FFFFFF;fontStyle=1;strokeColor=#333333;" parent="oIxDtNnSTY3G4xufg-7Y-80" vertex="1">
          <mxGeometry y="80" width="240" height="40" as="geometry" />
        </mxCell>
        <mxCell id="oIxDtNnSTY3G4xufg-7Y-29" value="user_id" style="rounded=0;whiteSpace=wrap;html=1;fontSize=18;fillColor=#CCE5FF;strokeColor=#333333;" parent="oIxDtNnSTY3G4xufg-7Y-80" vertex="1">
          <mxGeometry y="120" width="240" height="40" as="geometry" />
        </mxCell>
        <mxCell id="oIxDtNnSTY3G4xufg-7Y-30" value="word_collection_id" style="rounded=0;whiteSpace=wrap;html=1;fontSize=18;fillColor=#CCE5FF;strokeColor=#333333;" parent="oIxDtNnSTY3G4xufg-7Y-80" vertex="1">
          <mxGeometry y="160" width="240" height="40" as="geometry" />
        </mxCell>
        <mxCell id="oIxDtNnSTY3G4xufg-7Y-31" value="added_at" style="rounded=0;whiteSpace=wrap;html=1;fontSize=18;strokeColor=#333333;" parent="oIxDtNnSTY3G4xufg-7Y-80" vertex="1">
          <mxGeometry y="200" width="240" height="40" as="geometry" />
        </mxCell>
        <mxCell id="oIxDtNnSTY3G4xufg-7Y-82" value="" style="group" parent="1" vertex="1" connectable="0">
          <mxGeometry x="7480" y="1240" width="240" height="240" as="geometry" />
        </mxCell>
        <mxCell id="oIxDtNnSTY3G4xufg-7Y-64" value="Learned Word" style="rounded=0;whiteSpace=wrap;html=1;fontSize=18;fontStyle=1;labelBackgroundColor=none;labelBorderColor=none;textShadow=0;fontFamily=Georgia;strokeColor=#333333;fontColor=#FFFFFF;fillColor=#333333;" parent="oIxDtNnSTY3G4xufg-7Y-82" vertex="1">
          <mxGeometry width="240" height="80" as="geometry" />
        </mxCell>
        <mxCell id="oIxDtNnSTY3G4xufg-7Y-65" value="id" style="rounded=0;whiteSpace=wrap;html=1;fontSize=18;fillColor=#007FFF;fontColor=#FFFFFF;fontStyle=1;strokeColor=#333333;" parent="oIxDtNnSTY3G4xufg-7Y-82" vertex="1">
          <mxGeometry y="80" width="240" height="40" as="geometry" />
        </mxCell>
        <mxCell id="oIxDtNnSTY3G4xufg-7Y-66" value="user_id" style="rounded=0;whiteSpace=wrap;html=1;fontSize=18;fillColor=#CCE5FF;strokeColor=#333333;" parent="oIxDtNnSTY3G4xufg-7Y-82" vertex="1">
          <mxGeometry y="120" width="240" height="40" as="geometry" />
        </mxCell>
        <mxCell id="oIxDtNnSTY3G4xufg-7Y-68" value="created_at" style="rounded=0;whiteSpace=wrap;html=1;fontSize=18;strokeColor=#333333;" parent="oIxDtNnSTY3G4xufg-7Y-82" vertex="1">
          <mxGeometry y="200" width="240" height="40" as="geometry" />
        </mxCell>
        <mxCell id="UyzyMVhvTb4iBXymAUSp-9" value="word_translation_id" style="rounded=0;whiteSpace=wrap;html=1;fontSize=18;fillColor=#CCE5FF;strokeColor=#333333;" parent="oIxDtNnSTY3G4xufg-7Y-82" vertex="1">
          <mxGeometry y="160" width="240" height="40" as="geometry" />
        </mxCell>
        <mxCell id="oIxDtNnSTY3G4xufg-7Y-84" value="" style="group" parent="1" vertex="1" connectable="0">
          <mxGeometry x="7840" y="4043" width="240" height="160" as="geometry" />
        </mxCell>
        <mxCell id="oIxDtNnSTY3G4xufg-7Y-22" value="Word Tag" style="rounded=0;whiteSpace=wrap;html=1;fontSize=18;fontStyle=1;labelBackgroundColor=none;labelBorderColor=none;textShadow=0;fontFamily=Georgia;strokeColor=#333333;fontColor=#FFFFFF;fillColor=#333333;" parent="oIxDtNnSTY3G4xufg-7Y-84" vertex="1">
          <mxGeometry width="240" height="80" as="geometry" />
        </mxCell>
        <mxCell id="oIxDtNnSTY3G4xufg-7Y-23" value="id" style="rounded=0;whiteSpace=wrap;html=1;fontSize=18;fillColor=#007FFF;fontColor=#FFFFFF;fontStyle=1;strokeColor=#333333;" parent="oIxDtNnSTY3G4xufg-7Y-84" vertex="1">
          <mxGeometry y="80" width="240" height="40" as="geometry" />
        </mxCell>
        <mxCell id="oIxDtNnSTY3G4xufg-7Y-26" value="name" style="rounded=0;whiteSpace=wrap;html=1;fontSize=18;strokeColor=#333333;" parent="oIxDtNnSTY3G4xufg-7Y-84" vertex="1">
          <mxGeometry y="120" width="240" height="40" as="geometry" />
        </mxCell>
        <mxCell id="oIxDtNnSTY3G4xufg-7Y-85" value="" style="group" parent="1" vertex="1" connectable="0">
          <mxGeometry x="7480" y="3560" width="240" height="200" as="geometry" />
        </mxCell>
        <mxCell id="oIxDtNnSTY3G4xufg-7Y-18" value="Connected Tag" style="rounded=0;whiteSpace=wrap;html=1;fontSize=18;fontStyle=1;labelBackgroundColor=none;labelBorderColor=none;textShadow=0;fontFamily=Georgia;strokeColor=#333333;fontColor=#FFFFFF;fillColor=#333333;" parent="oIxDtNnSTY3G4xufg-7Y-85" vertex="1">
          <mxGeometry width="240" height="80" as="geometry" />
        </mxCell>
        <mxCell id="oIxDtNnSTY3G4xufg-7Y-19" value="id" style="rounded=0;whiteSpace=wrap;html=1;fontSize=18;fillColor=#007FFF;fontColor=#FFFFFF;fontStyle=1;strokeColor=#333333;" parent="oIxDtNnSTY3G4xufg-7Y-85" vertex="1">
          <mxGeometry y="80" width="240" height="40" as="geometry" />
        </mxCell>
        <mxCell id="oIxDtNnSTY3G4xufg-7Y-21" value="word_tag_id" style="rounded=0;whiteSpace=wrap;html=1;fontSize=18;fillColor=#CCE5FF;strokeColor=#333333;" parent="oIxDtNnSTY3G4xufg-7Y-85" vertex="1">
          <mxGeometry y="160" width="240" height="40" as="geometry" />
        </mxCell>
        <mxCell id="rpK_ltsw-eI4_GqJZtfN-12" value="word_translation_id" style="rounded=0;whiteSpace=wrap;html=1;fontSize=18;fillColor=#CCE5FF;strokeColor=#333333;" parent="oIxDtNnSTY3G4xufg-7Y-85" vertex="1">
          <mxGeometry y="120" width="240" height="40" as="geometry" />
        </mxCell>
        <mxCell id="oIxDtNnSTY3G4xufg-7Y-129" value="" style="group" parent="1" vertex="1" connectable="0">
          <mxGeometry x="8200" y="2320" width="240" height="240" as="geometry" />
        </mxCell>
        <mxCell id="oIxDtNnSTY3G4xufg-7Y-109" value="User Achievement" style="rounded=0;whiteSpace=wrap;html=1;fontSize=18;fontStyle=1;labelBackgroundColor=none;labelBorderColor=none;textShadow=0;fontFamily=Georgia;strokeColor=#333333;fontColor=#FFFFFF;fillColor=#333333;" parent="oIxDtNnSTY3G4xufg-7Y-129" vertex="1">
          <mxGeometry width="240" height="80" as="geometry" />
        </mxCell>
        <mxCell id="oIxDtNnSTY3G4xufg-7Y-110" value="id" style="rounded=0;whiteSpace=wrap;html=1;fontSize=18;fillColor=#007FFF;fontColor=#FFFFFF;fontStyle=1;strokeColor=#333333;" parent="oIxDtNnSTY3G4xufg-7Y-129" vertex="1">
          <mxGeometry y="80" width="240" height="40" as="geometry" />
        </mxCell>
        <mxCell id="oIxDtNnSTY3G4xufg-7Y-113" value="user_id" style="rounded=0;whiteSpace=wrap;html=1;fontSize=18;fillColor=#CCE5FF;strokeColor=#333333;" parent="oIxDtNnSTY3G4xufg-7Y-129" vertex="1">
          <mxGeometry y="120" width="240" height="40" as="geometry" />
        </mxCell>
        <mxCell id="oIxDtNnSTY3G4xufg-7Y-114" value="achievement_id" style="rounded=0;whiteSpace=wrap;html=1;fontSize=18;fillColor=#CCE5FF;strokeColor=#333333;" parent="oIxDtNnSTY3G4xufg-7Y-129" vertex="1">
          <mxGeometry y="160" width="240" height="40" as="geometry" />
        </mxCell>
        <mxCell id="oIxDtNnSTY3G4xufg-7Y-115" value="created_at" style="rounded=0;whiteSpace=wrap;html=1;fontSize=18;strokeColor=#333333;" parent="oIxDtNnSTY3G4xufg-7Y-129" vertex="1">
          <mxGeometry y="200" width="240" height="40" as="geometry" />
        </mxCell>
        <mxCell id="oIxDtNnSTY3G4xufg-7Y-130" value="" style="group" parent="1" vertex="1" connectable="0">
          <mxGeometry x="7480" y="2480" width="240" height="320" as="geometry" />
        </mxCell>
        <mxCell id="oIxDtNnSTY3G4xufg-7Y-102" value="User Answers" style="rounded=0;whiteSpace=wrap;html=1;fontSize=18;fontStyle=1;labelBackgroundColor=none;labelBorderColor=none;textShadow=0;fontFamily=Georgia;strokeColor=#333333;fontColor=#FFFFFF;fillColor=#333333;" parent="oIxDtNnSTY3G4xufg-7Y-130" vertex="1">
          <mxGeometry width="240" height="80" as="geometry" />
        </mxCell>
        <mxCell id="oIxDtNnSTY3G4xufg-7Y-103" value="id" style="rounded=0;whiteSpace=wrap;html=1;fontSize=18;fillColor=#007FFF;fontColor=#FFFFFF;fontStyle=1;strokeColor=#333333;" parent="oIxDtNnSTY3G4xufg-7Y-130" vertex="1">
          <mxGeometry y="80" width="240" height="40" as="geometry" />
        </mxCell>
        <mxCell id="oIxDtNnSTY3G4xufg-7Y-104" value="user_id" style="rounded=0;whiteSpace=wrap;html=1;fontSize=18;fillColor=#CCE5FF;strokeColor=#333333;" parent="oIxDtNnSTY3G4xufg-7Y-130" vertex="1">
          <mxGeometry y="120" width="240" height="40" as="geometry" />
        </mxCell>
        <mxCell id="oIxDtNnSTY3G4xufg-7Y-107" value="isCorrect" style="rounded=0;whiteSpace=wrap;html=1;fontSize=18;strokeColor=#333333;" parent="oIxDtNnSTY3G4xufg-7Y-130" vertex="1">
          <mxGeometry y="240" width="240" height="40" as="geometry" />
        </mxCell>
        <mxCell id="oIxDtNnSTY3G4xufg-7Y-108" value="created_at" style="rounded=0;whiteSpace=wrap;html=1;fontSize=18;strokeColor=#333333;" parent="oIxDtNnSTY3G4xufg-7Y-130" vertex="1">
          <mxGeometry y="280" width="240" height="40" as="geometry" />
        </mxCell>
        <mxCell id="oIxDtNnSTY3G4xufg-7Y-117" value="collection_id" style="rounded=0;whiteSpace=wrap;html=1;fontSize=18;fillColor=#CCE5FF;strokeColor=#333333;" parent="oIxDtNnSTY3G4xufg-7Y-130" vertex="1">
          <mxGeometry y="160" width="240" height="40" as="geometry" />
        </mxCell>
        <mxCell id="rpK_ltsw-eI4_GqJZtfN-11" value="word_translation_id" style="rounded=0;whiteSpace=wrap;html=1;fontSize=18;fillColor=#CCE5FF;strokeColor=#333333;" parent="oIxDtNnSTY3G4xufg-7Y-130" vertex="1">
          <mxGeometry y="200" width="240" height="40" as="geometry" />
        </mxCell>
        <mxCell id="oIxDtNnSTY3G4xufg-7Y-142" value="" style="group" parent="1" vertex="1" connectable="0">
          <mxGeometry x="8200" y="3240" width="240" height="320" as="geometry" />
        </mxCell>
        <mxCell id="oIxDtNnSTY3G4xufg-7Y-120" value="Word&amp;nbsp;&lt;div&gt;Collection Review&lt;/div&gt;" style="rounded=0;whiteSpace=wrap;html=1;fontSize=18;fontStyle=1;labelBackgroundColor=none;labelBorderColor=none;textShadow=0;fontFamily=Georgia;strokeColor=#333333;fontColor=#FFFFFF;fillColor=#333333;" parent="oIxDtNnSTY3G4xufg-7Y-142" vertex="1">
          <mxGeometry width="240" height="80" as="geometry" />
        </mxCell>
        <mxCell id="oIxDtNnSTY3G4xufg-7Y-121" value="id" style="rounded=0;whiteSpace=wrap;html=1;fontSize=18;fillColor=#007FFF;fontColor=#FFFFFF;fontStyle=1;strokeColor=#333333;" parent="oIxDtNnSTY3G4xufg-7Y-142" vertex="1">
          <mxGeometry y="80" width="240" height="40" as="geometry" />
        </mxCell>
        <mxCell id="oIxDtNnSTY3G4xufg-7Y-122" value="user_id" style="rounded=0;whiteSpace=wrap;html=1;fontSize=18;fillColor=#CCE5FF;strokeColor=#333333;" parent="oIxDtNnSTY3G4xufg-7Y-142" vertex="1">
          <mxGeometry y="120" width="240" height="40" as="geometry" />
        </mxCell>
        <mxCell id="oIxDtNnSTY3G4xufg-7Y-123" value="word_collection_id" style="rounded=0;whiteSpace=wrap;html=1;fontSize=18;fillColor=#CCE5FF;strokeColor=#333333;" parent="oIxDtNnSTY3G4xufg-7Y-142" vertex="1">
          <mxGeometry y="160" width="240" height="40" as="geometry" />
        </mxCell>
        <mxCell id="oIxDtNnSTY3G4xufg-7Y-124" value="created_at" style="rounded=0;whiteSpace=wrap;html=1;fontSize=18;strokeColor=#333333;" parent="oIxDtNnSTY3G4xufg-7Y-142" vertex="1">
          <mxGeometry y="280" width="240" height="40" as="geometry" />
        </mxCell>
        <mxCell id="oIxDtNnSTY3G4xufg-7Y-125" value="rating" style="rounded=0;whiteSpace=wrap;html=1;fontSize=18;strokeColor=#333333;" parent="oIxDtNnSTY3G4xufg-7Y-142" vertex="1">
          <mxGeometry y="200" width="240" height="40" as="geometry" />
        </mxCell>
        <mxCell id="oIxDtNnSTY3G4xufg-7Y-141" value="comment" style="rounded=0;whiteSpace=wrap;html=1;fontSize=18;strokeColor=#333333;" parent="oIxDtNnSTY3G4xufg-7Y-142" vertex="1">
          <mxGeometry y="240" width="240" height="40" as="geometry" />
        </mxCell>
        <mxCell id="oIxDtNnSTY3G4xufg-7Y-167" value="" style="group" parent="1" vertex="1" connectable="0">
          <mxGeometry x="8200" y="2040" width="240" height="240" as="geometry" />
        </mxCell>
        <mxCell id="oIxDtNnSTY3G4xufg-7Y-168" value="User Rank" style="rounded=0;whiteSpace=wrap;html=1;fontSize=18;fontStyle=1;labelBackgroundColor=none;labelBorderColor=none;textShadow=0;fontFamily=Georgia;strokeColor=#333333;fontColor=#FFFFFF;fillColor=#333333;" parent="oIxDtNnSTY3G4xufg-7Y-167" vertex="1">
          <mxGeometry width="240" height="80" as="geometry" />
        </mxCell>
        <mxCell id="oIxDtNnSTY3G4xufg-7Y-169" value="id" style="rounded=0;whiteSpace=wrap;html=1;fontSize=18;fillColor=#007FFF;fontColor=#FFFFFF;fontStyle=1;strokeColor=#333333;" parent="oIxDtNnSTY3G4xufg-7Y-167" vertex="1">
          <mxGeometry y="80" width="240" height="40" as="geometry" />
        </mxCell>
        <mxCell id="oIxDtNnSTY3G4xufg-7Y-170" value="user_id" style="rounded=0;whiteSpace=wrap;html=1;fontSize=18;fillColor=#CCE5FF;strokeColor=#333333;" parent="oIxDtNnSTY3G4xufg-7Y-167" vertex="1">
          <mxGeometry y="120" width="240" height="40" as="geometry" />
        </mxCell>
        <mxCell id="oIxDtNnSTY3G4xufg-7Y-171" value="rank_id" style="rounded=0;whiteSpace=wrap;html=1;fontSize=18;fillColor=#CCE5FF;strokeColor=#333333;" parent="oIxDtNnSTY3G4xufg-7Y-167" vertex="1">
          <mxGeometry y="160" width="240" height="40" as="geometry" />
        </mxCell>
        <mxCell id="oIxDtNnSTY3G4xufg-7Y-172" value="earned_at" style="rounded=0;whiteSpace=wrap;html=1;fontSize=18;strokeColor=#333333;" parent="oIxDtNnSTY3G4xufg-7Y-167" vertex="1">
          <mxGeometry y="200" width="240" height="40" as="geometry" />
        </mxCell>
        <mxCell id="rpK_ltsw-eI4_GqJZtfN-8" value="" style="group" parent="1" vertex="1" connectable="0">
          <mxGeometry x="7120" y="920" width="240" height="200" as="geometry" />
        </mxCell>
        <mxCell id="oIxDtNnSTY3G4xufg-7Y-40" value="Word" style="rounded=0;whiteSpace=wrap;html=1;fontSize=18;fontStyle=1;labelBackgroundColor=none;labelBorderColor=none;textShadow=0;fontFamily=Georgia;strokeColor=#333333;fontColor=#FFFFFF;fillColor=#333333;" parent="rpK_ltsw-eI4_GqJZtfN-8" vertex="1">
          <mxGeometry width="240" height="80" as="geometry" />
        </mxCell>
        <mxCell id="oIxDtNnSTY3G4xufg-7Y-41" value="id" style="rounded=0;whiteSpace=wrap;html=1;fontSize=18;fillColor=#007FFF;fontColor=#FFFFFF;fontStyle=1;strokeColor=#333333;" parent="rpK_ltsw-eI4_GqJZtfN-8" vertex="1">
          <mxGeometry y="80" width="240" height="40" as="geometry" />
        </mxCell>
        <mxCell id="oIxDtNnSTY3G4xufg-7Y-42" value="word_category_id" style="rounded=0;whiteSpace=wrap;html=1;fontSize=18;fillColor=#CCE5FF;strokeColor=#333333;" parent="rpK_ltsw-eI4_GqJZtfN-8" vertex="1">
          <mxGeometry y="120" width="240" height="40" as="geometry" />
        </mxCell>
        <mxCell id="oIxDtNnSTY3G4xufg-7Y-43" value="part_of_speech_id" style="rounded=0;whiteSpace=wrap;html=1;fontSize=18;fillColor=#CCE5FF;strokeColor=#333333;" parent="rpK_ltsw-eI4_GqJZtfN-8" vertex="1">
          <mxGeometry y="160" width="240" height="40" as="geometry" />
        </mxCell>
        <mxCell id="rpK_ltsw-eI4_GqJZtfN-21" value="" style="group" parent="1" vertex="1" connectable="0">
          <mxGeometry x="7480" y="640" width="240" height="240" as="geometry" />
        </mxCell>
        <mxCell id="rpK_ltsw-eI4_GqJZtfN-13" value="Language" style="rounded=0;whiteSpace=wrap;html=1;fontSize=18;fontStyle=1;labelBackgroundColor=none;labelBorderColor=none;textShadow=0;fontFamily=Georgia;strokeColor=#333333;fontColor=#FFFFFF;fillColor=#333333;" parent="rpK_ltsw-eI4_GqJZtfN-21" vertex="1">
          <mxGeometry width="240" height="80" as="geometry" />
        </mxCell>
        <mxCell id="rpK_ltsw-eI4_GqJZtfN-14" value="id" style="rounded=0;whiteSpace=wrap;html=1;fontSize=18;fillColor=#007FFF;fontColor=#FFFFFF;fontStyle=1;strokeColor=#333333;" parent="rpK_ltsw-eI4_GqJZtfN-21" vertex="1">
          <mxGeometry y="80" width="240" height="40" as="geometry" />
        </mxCell>
        <mxCell id="rpK_ltsw-eI4_GqJZtfN-17" value="name" style="rounded=0;whiteSpace=wrap;html=1;fontSize=18;strokeColor=#333333;" parent="rpK_ltsw-eI4_GqJZtfN-21" vertex="1">
          <mxGeometry y="120" width="240" height="40" as="geometry" />
        </mxCell>
        <mxCell id="rpK_ltsw-eI4_GqJZtfN-19" value="flag_url" style="rounded=0;whiteSpace=wrap;html=1;fontSize=18;strokeColor=#333333;" parent="rpK_ltsw-eI4_GqJZtfN-21" vertex="1">
          <mxGeometry y="200" width="240" height="40" as="geometry" />
        </mxCell>
        <mxCell id="rpK_ltsw-eI4_GqJZtfN-20" value="code" style="rounded=0;whiteSpace=wrap;html=1;fontSize=18;strokeColor=#333333;" parent="rpK_ltsw-eI4_GqJZtfN-21" vertex="1">
          <mxGeometry y="160" width="240" height="40" as="geometry" />
        </mxCell>
        <mxCell id="rpK_ltsw-eI4_GqJZtfN-23" value="" style="group" parent="1" vertex="1" connectable="0">
          <mxGeometry x="7120" y="1760" width="240" height="280" as="geometry" />
        </mxCell>
        <mxCell id="rpK_ltsw-eI4_GqJZtfN-22" value="language_id" style="rounded=0;whiteSpace=wrap;html=1;fontSize=18;fillColor=#CCE5FF;strokeColor=#333333;" parent="rpK_ltsw-eI4_GqJZtfN-23" vertex="1">
          <mxGeometry y="240" width="240" height="40" as="geometry" />
        </mxCell>
        <mxCell id="oIxDtNnSTY3G4xufg-7Y-69" value="Word&amp;nbsp;&lt;div&gt;Translation&lt;/div&gt;" style="rounded=0;whiteSpace=wrap;html=1;fontSize=18;fontStyle=1;labelBackgroundColor=none;labelBorderColor=none;textShadow=0;fontFamily=Georgia;strokeColor=#333333;fontColor=#FFFFFF;fillColor=#333333;" parent="rpK_ltsw-eI4_GqJZtfN-23" vertex="1">
          <mxGeometry width="240" height="80" as="geometry" />
        </mxCell>
        <mxCell id="oIxDtNnSTY3G4xufg-7Y-70" value="id" style="rounded=0;whiteSpace=wrap;html=1;fontSize=18;fillColor=#007FFF;fontColor=#FFFFFF;fontStyle=1;strokeColor=#333333;" parent="rpK_ltsw-eI4_GqJZtfN-23" vertex="1">
          <mxGeometry y="80" width="240" height="40" as="geometry" />
        </mxCell>
        <mxCell id="oIxDtNnSTY3G4xufg-7Y-71" value="word_id" style="rounded=0;whiteSpace=wrap;html=1;fontSize=18;fillColor=#CCE5FF;strokeColor=#333333;" parent="rpK_ltsw-eI4_GqJZtfN-23" vertex="1">
          <mxGeometry y="200" width="240" height="40" as="geometry" />
        </mxCell>
        <mxCell id="oIxDtNnSTY3G4xufg-7Y-73" value="text" style="rounded=0;whiteSpace=wrap;html=1;fontSize=18;strokeColor=#333333;" parent="rpK_ltsw-eI4_GqJZtfN-23" vertex="1">
          <mxGeometry y="120" width="240" height="40" as="geometry" />
        </mxCell>
        <mxCell id="oIxDtNnSTY3G4xufg-7Y-74" value="audio_url" style="rounded=0;whiteSpace=wrap;html=1;fontSize=18;strokeColor=#333333;" parent="rpK_ltsw-eI4_GqJZtfN-23" vertex="1">
          <mxGeometry y="160" width="240" height="40" as="geometry" />
        </mxCell>
        <mxCell id="rpK_ltsw-eI4_GqJZtfN-25" value="" style="group" parent="1" vertex="1" connectable="0">
          <mxGeometry x="7120" y="480" width="240" height="120" as="geometry" />
        </mxCell>
        <mxCell id="oIxDtNnSTY3G4xufg-7Y-36" value="Word Category" style="rounded=0;whiteSpace=wrap;html=1;fontSize=18;fontStyle=1;labelBackgroundColor=none;labelBorderColor=none;textShadow=0;fontFamily=Georgia;strokeColor=#333333;fontColor=#FFFFFF;fillColor=#333333;" parent="rpK_ltsw-eI4_GqJZtfN-25" vertex="1">
          <mxGeometry width="240" height="80" as="geometry" />
        </mxCell>
        <mxCell id="oIxDtNnSTY3G4xufg-7Y-37" value="id" style="rounded=0;whiteSpace=wrap;html=1;fontSize=18;fillColor=#007FFF;fontColor=#FFFFFF;fontStyle=1;strokeColor=#333333;" parent="rpK_ltsw-eI4_GqJZtfN-25" vertex="1">
          <mxGeometry y="80" width="240" height="40" as="geometry" />
        </mxCell>
        <mxCell id="rpK_ltsw-eI4_GqJZtfN-26" value="" style="group" parent="1" vertex="1" connectable="0">
          <mxGeometry x="7120" y="640" width="240" height="240" as="geometry" />
        </mxCell>
        <mxCell id="rpK_ltsw-eI4_GqJZtfN-27" value="Word Category&amp;nbsp;&lt;div&gt;Localization&lt;/div&gt;" style="rounded=0;whiteSpace=wrap;html=1;fontSize=18;fontStyle=1;labelBackgroundColor=none;labelBorderColor=none;textShadow=0;fontFamily=Georgia;strokeColor=#333333;fontColor=#FFFFFF;fillColor=#333333;" parent="rpK_ltsw-eI4_GqJZtfN-26" vertex="1">
          <mxGeometry width="240" height="80" as="geometry" />
        </mxCell>
        <mxCell id="rpK_ltsw-eI4_GqJZtfN-28" value="id" style="rounded=0;whiteSpace=wrap;html=1;fontSize=18;fillColor=#007FFF;fontColor=#FFFFFF;fontStyle=1;strokeColor=#333333;" parent="rpK_ltsw-eI4_GqJZtfN-26" vertex="1">
          <mxGeometry y="80" width="240" height="40" as="geometry" />
        </mxCell>
        <mxCell id="rpK_ltsw-eI4_GqJZtfN-29" value="word_category_id" style="rounded=0;whiteSpace=wrap;html=1;fontSize=18;fillColor=#CCE5FF;strokeColor=#333333;" parent="rpK_ltsw-eI4_GqJZtfN-26" vertex="1">
          <mxGeometry y="160" width="240" height="40" as="geometry" />
        </mxCell>
        <mxCell id="rpK_ltsw-eI4_GqJZtfN-30" value="language_id" style="rounded=0;whiteSpace=wrap;html=1;fontSize=18;fillColor=#CCE5FF;strokeColor=#333333;" parent="rpK_ltsw-eI4_GqJZtfN-26" vertex="1">
          <mxGeometry y="200" width="240" height="40" as="geometry" />
        </mxCell>
        <mxCell id="rpK_ltsw-eI4_GqJZtfN-31" value="text" style="rounded=0;whiteSpace=wrap;html=1;fontSize=18;strokeColor=#333333;" parent="rpK_ltsw-eI4_GqJZtfN-26" vertex="1">
          <mxGeometry y="120" width="240" height="40" as="geometry" />
        </mxCell>
        <mxCell id="rpK_ltsw-eI4_GqJZtfN-32" value="" style="group" parent="1" vertex="1" connectable="0">
          <mxGeometry x="7120" y="320" width="240" height="120" as="geometry" />
        </mxCell>
        <mxCell id="oIxDtNnSTY3G4xufg-7Y-45" value="Part Of Speech" style="rounded=0;whiteSpace=wrap;html=1;fontSize=18;fontStyle=1;labelBackgroundColor=none;labelBorderColor=none;textShadow=0;fontFamily=Georgia;strokeColor=#333333;fontColor=#FFFFFF;fillColor=#333333;" parent="rpK_ltsw-eI4_GqJZtfN-32" vertex="1">
          <mxGeometry width="240" height="80" as="geometry" />
        </mxCell>
        <mxCell id="oIxDtNnSTY3G4xufg-7Y-46" value="id" style="rounded=0;whiteSpace=wrap;html=1;fontSize=18;fillColor=#007FFF;fontColor=#FFFFFF;fontStyle=1;strokeColor=#333333;" parent="rpK_ltsw-eI4_GqJZtfN-32" vertex="1">
          <mxGeometry y="80" width="240" height="40" as="geometry" />
        </mxCell>
        <mxCell id="rpK_ltsw-eI4_GqJZtfN-33" value="" style="group" parent="1" vertex="1" connectable="0">
          <mxGeometry x="7120" y="1160" width="240" height="240" as="geometry" />
        </mxCell>
        <mxCell id="rpK_ltsw-eI4_GqJZtfN-34" value="Part of Speech&lt;div&gt;Localization&lt;/div&gt;" style="rounded=0;whiteSpace=wrap;html=1;fontSize=18;fontStyle=1;labelBackgroundColor=none;labelBorderColor=none;textShadow=0;fontFamily=Georgia;strokeColor=#333333;fontColor=#FFFFFF;fillColor=#333333;" parent="rpK_ltsw-eI4_GqJZtfN-33" vertex="1">
          <mxGeometry width="240" height="80" as="geometry" />
        </mxCell>
        <mxCell id="rpK_ltsw-eI4_GqJZtfN-35" value="id" style="rounded=0;whiteSpace=wrap;html=1;fontSize=18;fillColor=#007FFF;fontColor=#FFFFFF;fontStyle=1;strokeColor=#333333;" parent="rpK_ltsw-eI4_GqJZtfN-33" vertex="1">
          <mxGeometry y="80" width="240" height="40" as="geometry" />
        </mxCell>
        <mxCell id="rpK_ltsw-eI4_GqJZtfN-36" value="part_of_speech_id" style="rounded=0;whiteSpace=wrap;html=1;fontSize=18;fillColor=#CCE5FF;strokeColor=#333333;" parent="rpK_ltsw-eI4_GqJZtfN-33" vertex="1">
          <mxGeometry y="160" width="240" height="40" as="geometry" />
        </mxCell>
        <mxCell id="rpK_ltsw-eI4_GqJZtfN-37" value="language_id" style="rounded=0;whiteSpace=wrap;html=1;fontSize=18;fillColor=#CCE5FF;strokeColor=#333333;" parent="rpK_ltsw-eI4_GqJZtfN-33" vertex="1">
          <mxGeometry y="200" width="240" height="40" as="geometry" />
        </mxCell>
        <mxCell id="rpK_ltsw-eI4_GqJZtfN-38" value="text" style="rounded=0;whiteSpace=wrap;html=1;fontSize=18;strokeColor=#333333;" parent="rpK_ltsw-eI4_GqJZtfN-33" vertex="1">
          <mxGeometry y="120" width="240" height="40" as="geometry" />
        </mxCell>
        <mxCell id="rpK_ltsw-eI4_GqJZtfN-39" value="" style="group" parent="1" vertex="1" connectable="0">
          <mxGeometry x="7840" y="2600" width="240" height="200" as="geometry" />
        </mxCell>
        <mxCell id="oIxDtNnSTY3G4xufg-7Y-95" value="Achievement" style="rounded=0;whiteSpace=wrap;html=1;fontSize=18;fontStyle=1;labelBackgroundColor=none;labelBorderColor=none;textShadow=0;fontFamily=Georgia;strokeColor=#333333;fontColor=#FFFFFF;fillColor=#333333;" parent="rpK_ltsw-eI4_GqJZtfN-39" vertex="1">
          <mxGeometry width="240" height="80" as="geometry" />
        </mxCell>
        <mxCell id="oIxDtNnSTY3G4xufg-7Y-96" value="id" style="rounded=0;whiteSpace=wrap;html=1;fontSize=18;fillColor=#007FFF;fontColor=#FFFFFF;fontStyle=1;strokeColor=#333333;" parent="rpK_ltsw-eI4_GqJZtfN-39" vertex="1">
          <mxGeometry y="80" width="240" height="40" as="geometry" />
        </mxCell>
        <mxCell id="oIxDtNnSTY3G4xufg-7Y-100" value="icon_url" style="rounded=0;whiteSpace=wrap;html=1;fontSize=18;strokeColor=#333333;" parent="rpK_ltsw-eI4_GqJZtfN-39" vertex="1">
          <mxGeometry y="160" width="240" height="40" as="geometry" />
        </mxCell>
        <mxCell id="oIxDtNnSTY3G4xufg-7Y-126" value="points" style="rounded=0;whiteSpace=wrap;html=1;fontSize=18;strokeColor=#333333;" parent="rpK_ltsw-eI4_GqJZtfN-39" vertex="1">
          <mxGeometry y="120" width="240" height="40" as="geometry" />
        </mxCell>
        <mxCell id="rpK_ltsw-eI4_GqJZtfN-49" value="" style="group" parent="1" vertex="1" connectable="0">
          <mxGeometry x="7840" y="2280" width="240" height="280" as="geometry" />
        </mxCell>
        <mxCell id="rpK_ltsw-eI4_GqJZtfN-41" value="Achievement&amp;nbsp;&lt;div&gt;Localization&lt;/div&gt;" style="rounded=0;whiteSpace=wrap;html=1;fontSize=18;fontStyle=1;labelBackgroundColor=none;labelBorderColor=none;textShadow=0;fontFamily=Georgia;strokeColor=#333333;fontColor=#FFFFFF;fillColor=#333333;" parent="rpK_ltsw-eI4_GqJZtfN-49" vertex="1">
          <mxGeometry width="240" height="80" as="geometry" />
        </mxCell>
        <mxCell id="rpK_ltsw-eI4_GqJZtfN-42" value="id" style="rounded=0;whiteSpace=wrap;html=1;fontSize=18;fillColor=#007FFF;fontColor=#FFFFFF;fontStyle=1;strokeColor=#333333;" parent="rpK_ltsw-eI4_GqJZtfN-49" vertex="1">
          <mxGeometry y="80" width="240" height="40" as="geometry" />
        </mxCell>
        <mxCell id="rpK_ltsw-eI4_GqJZtfN-43" value="description" style="rounded=0;whiteSpace=wrap;html=1;fontSize=18;strokeColor=#333333;" parent="rpK_ltsw-eI4_GqJZtfN-49" vertex="1">
          <mxGeometry y="240" width="240" height="40" as="geometry" />
        </mxCell>
        <mxCell id="rpK_ltsw-eI4_GqJZtfN-44" value="name" style="rounded=0;whiteSpace=wrap;html=1;fontSize=18;strokeColor=#333333;" parent="rpK_ltsw-eI4_GqJZtfN-49" vertex="1">
          <mxGeometry y="200" width="240" height="40" as="geometry" />
        </mxCell>
        <mxCell id="rpK_ltsw-eI4_GqJZtfN-45" value="achievement_id" style="rounded=0;whiteSpace=wrap;html=1;fontSize=18;fillColor=#CCE5FF;strokeColor=#333333;" parent="rpK_ltsw-eI4_GqJZtfN-49" vertex="1">
          <mxGeometry y="120" width="240" height="40" as="geometry" />
        </mxCell>
        <mxCell id="rpK_ltsw-eI4_GqJZtfN-46" value="language_id" style="rounded=0;whiteSpace=wrap;html=1;fontSize=18;fillColor=#CCE5FF;strokeColor=#333333;" parent="rpK_ltsw-eI4_GqJZtfN-49" vertex="1">
          <mxGeometry y="160" width="240" height="40" as="geometry" />
        </mxCell>
        <mxCell id="rpK_ltsw-eI4_GqJZtfN-51" value="" style="group" parent="1" vertex="1" connectable="0">
          <mxGeometry x="7840" y="3360" width="240" height="400" as="geometry" />
        </mxCell>
        <mxCell id="oIxDtNnSTY3G4xufg-7Y-52" value="Word&amp;nbsp;&lt;div&gt;Collection&lt;/div&gt;" style="rounded=0;whiteSpace=wrap;html=1;fontSize=18;fontStyle=1;labelBackgroundColor=none;labelBorderColor=none;textShadow=0;fontFamily=Georgia;strokeColor=#333333;fontColor=#FFFFFF;fillColor=#333333;" parent="rpK_ltsw-eI4_GqJZtfN-51" vertex="1">
          <mxGeometry width="240" height="80" as="geometry" />
        </mxCell>
        <mxCell id="oIxDtNnSTY3G4xufg-7Y-53" value="id" style="rounded=0;whiteSpace=wrap;html=1;fontSize=18;fillColor=#007FFF;fontColor=#FFFFFF;fontStyle=1;strokeColor=#333333;" parent="rpK_ltsw-eI4_GqJZtfN-51" vertex="1">
          <mxGeometry y="80" width="240" height="40" as="geometry" />
        </mxCell>
        <mxCell id="oIxDtNnSTY3G4xufg-7Y-54" value="name" style="rounded=0;whiteSpace=wrap;html=1;fontSize=18;strokeColor=#333333;" parent="rpK_ltsw-eI4_GqJZtfN-51" vertex="1">
          <mxGeometry y="200" width="240" height="40" as="geometry" />
        </mxCell>
        <mxCell id="oIxDtNnSTY3G4xufg-7Y-55" value="description" style="rounded=0;whiteSpace=wrap;html=1;fontSize=18;strokeColor=#333333;" parent="rpK_ltsw-eI4_GqJZtfN-51" vertex="1">
          <mxGeometry y="240" width="240" height="40" as="geometry" />
        </mxCell>
        <mxCell id="oIxDtNnSTY3G4xufg-7Y-56" value="user_id" style="rounded=0;whiteSpace=wrap;html=1;fontSize=18;fillColor=#CCE5FF;strokeColor=#333333;" parent="rpK_ltsw-eI4_GqJZtfN-51" vertex="1">
          <mxGeometry y="120" width="240" height="40" as="geometry" />
        </mxCell>
        <mxCell id="oIxDtNnSTY3G4xufg-7Y-57" value="isPublic" style="rounded=0;whiteSpace=wrap;html=1;fontSize=18;strokeColor=#333333;" parent="rpK_ltsw-eI4_GqJZtfN-51" vertex="1">
          <mxGeometry y="280" width="240" height="40" as="geometry" />
        </mxCell>
        <mxCell id="oIxDtNnSTY3G4xufg-7Y-58" value="isPassed" style="rounded=0;whiteSpace=wrap;html=1;fontSize=18;strokeColor=#333333;" parent="rpK_ltsw-eI4_GqJZtfN-51" vertex="1">
          <mxGeometry y="320" width="240" height="40" as="geometry" />
        </mxCell>
        <mxCell id="oIxDtNnSTY3G4xufg-7Y-174" value="created_at" style="rounded=0;whiteSpace=wrap;html=1;fontSize=18;strokeColor=#333333;" parent="rpK_ltsw-eI4_GqJZtfN-51" vertex="1">
          <mxGeometry y="360" width="240" height="40" as="geometry" />
        </mxCell>
        <mxCell id="rpK_ltsw-eI4_GqJZtfN-50" value="language_id" style="rounded=0;whiteSpace=wrap;html=1;fontSize=18;fillColor=#CCE5FF;strokeColor=#333333;" parent="rpK_ltsw-eI4_GqJZtfN-51" vertex="1">
          <mxGeometry y="160" width="240" height="40" as="geometry" />
        </mxCell>
        <mxCell id="rpK_ltsw-eI4_GqJZtfN-52" value="" style="group" parent="1" vertex="1" connectable="0">
          <mxGeometry x="7840" y="1720" width="240" height="280" as="geometry" />
        </mxCell>
        <mxCell id="rpK_ltsw-eI4_GqJZtfN-53" value="Rank&amp;nbsp;&lt;div&gt;Localization&lt;/div&gt;" style="rounded=0;whiteSpace=wrap;html=1;fontSize=18;fontStyle=1;labelBackgroundColor=none;labelBorderColor=none;textShadow=0;fontFamily=Georgia;strokeColor=#333333;fontColor=#FFFFFF;fillColor=#333333;" parent="rpK_ltsw-eI4_GqJZtfN-52" vertex="1">
          <mxGeometry width="240" height="80" as="geometry" />
        </mxCell>
        <mxCell id="rpK_ltsw-eI4_GqJZtfN-54" value="id" style="rounded=0;whiteSpace=wrap;html=1;fontSize=18;fillColor=#007FFF;fontColor=#FFFFFF;fontStyle=1;strokeColor=#333333;" parent="rpK_ltsw-eI4_GqJZtfN-52" vertex="1">
          <mxGeometry y="80" width="240" height="40" as="geometry" />
        </mxCell>
        <mxCell id="rpK_ltsw-eI4_GqJZtfN-55" value="description" style="rounded=0;whiteSpace=wrap;html=1;fontSize=18;strokeColor=#333333;" parent="rpK_ltsw-eI4_GqJZtfN-52" vertex="1">
          <mxGeometry y="240" width="240" height="40" as="geometry" />
        </mxCell>
        <mxCell id="rpK_ltsw-eI4_GqJZtfN-56" value="name" style="rounded=0;whiteSpace=wrap;html=1;fontSize=18;strokeColor=#333333;" parent="rpK_ltsw-eI4_GqJZtfN-52" vertex="1">
          <mxGeometry y="200" width="240" height="40" as="geometry" />
        </mxCell>
        <mxCell id="rpK_ltsw-eI4_GqJZtfN-57" value="rank_id" style="rounded=0;whiteSpace=wrap;html=1;fontSize=18;fillColor=#CCE5FF;strokeColor=#333333;" parent="rpK_ltsw-eI4_GqJZtfN-52" vertex="1">
          <mxGeometry y="120" width="240" height="40" as="geometry" />
        </mxCell>
        <mxCell id="rpK_ltsw-eI4_GqJZtfN-58" value="language_id" style="rounded=0;whiteSpace=wrap;html=1;fontSize=18;fillColor=#CCE5FF;strokeColor=#333333;" parent="rpK_ltsw-eI4_GqJZtfN-52" vertex="1">
          <mxGeometry y="160" width="240" height="40" as="geometry" />
        </mxCell>
        <mxCell id="rpK_ltsw-eI4_GqJZtfN-59" value="" style="group" parent="1" vertex="1" connectable="0">
          <mxGeometry x="7840" y="2040" width="240" height="200" as="geometry" />
        </mxCell>
        <mxCell id="oIxDtNnSTY3G4xufg-7Y-158" value="Rank" style="rounded=0;whiteSpace=wrap;html=1;fontSize=18;fontStyle=1;labelBackgroundColor=none;labelBorderColor=none;textShadow=0;fontFamily=Georgia;strokeColor=#333333;fontColor=#FFFFFF;fillColor=#333333;" parent="rpK_ltsw-eI4_GqJZtfN-59" vertex="1">
          <mxGeometry width="240" height="80" as="geometry" />
        </mxCell>
        <mxCell id="oIxDtNnSTY3G4xufg-7Y-159" value="id" style="rounded=0;whiteSpace=wrap;html=1;fontSize=18;fillColor=#007FFF;fontColor=#FFFFFF;fontStyle=1;strokeColor=#333333;" parent="rpK_ltsw-eI4_GqJZtfN-59" vertex="1">
          <mxGeometry y="80" width="240" height="40" as="geometry" />
        </mxCell>
        <mxCell id="oIxDtNnSTY3G4xufg-7Y-163" value="icon_url" style="rounded=0;whiteSpace=wrap;html=1;fontSize=18;strokeColor=#333333;" parent="rpK_ltsw-eI4_GqJZtfN-59" vertex="1">
          <mxGeometry y="160" width="240" height="40" as="geometry" />
        </mxCell>
        <mxCell id="oIxDtNnSTY3G4xufg-7Y-165" value="required_points" style="rounded=0;whiteSpace=wrap;html=1;fontSize=18;strokeColor=#333333;" parent="rpK_ltsw-eI4_GqJZtfN-59" vertex="1">
          <mxGeometry y="120" width="240" height="40" as="geometry" />
        </mxCell>
        <mxCell id="UyzyMVhvTb4iBXymAUSp-13" value="" style="group" parent="1" vertex="1" connectable="0">
          <mxGeometry x="7480" y="1800" width="240" height="320" as="geometry" />
        </mxCell>
        <mxCell id="oIxDtNnSTY3G4xufg-7Y-132" value="Word Review" style="rounded=0;whiteSpace=wrap;html=1;fontSize=18;fontStyle=1;labelBackgroundColor=none;labelBorderColor=none;textShadow=0;fontFamily=Georgia;strokeColor=#333333;fontColor=#FFFFFF;fillColor=#333333;" parent="UyzyMVhvTb4iBXymAUSp-13" vertex="1">
          <mxGeometry width="240" height="80" as="geometry" />
        </mxCell>
        <mxCell id="oIxDtNnSTY3G4xufg-7Y-133" value="id" style="rounded=0;whiteSpace=wrap;html=1;fontSize=18;fillColor=#007FFF;fontColor=#FFFFFF;fontStyle=1;strokeColor=#333333;" parent="UyzyMVhvTb4iBXymAUSp-13" vertex="1">
          <mxGeometry y="80" width="240" height="40" as="geometry" />
        </mxCell>
        <mxCell id="oIxDtNnSTY3G4xufg-7Y-136" value="rating" style="rounded=0;whiteSpace=wrap;html=1;fontSize=18;strokeColor=#333333;" parent="UyzyMVhvTb4iBXymAUSp-13" vertex="1">
          <mxGeometry y="200" width="240" height="40" as="geometry" />
        </mxCell>
        <mxCell id="oIxDtNnSTY3G4xufg-7Y-138" value="user_id" style="rounded=0;whiteSpace=wrap;html=1;fontSize=18;fillColor=#CCE5FF;strokeColor=#333333;" parent="UyzyMVhvTb4iBXymAUSp-13" vertex="1">
          <mxGeometry y="160" width="240" height="40" as="geometry" />
        </mxCell>
        <mxCell id="oIxDtNnSTY3G4xufg-7Y-139" value="created_at" style="rounded=0;whiteSpace=wrap;html=1;fontSize=18;strokeColor=#333333;" parent="UyzyMVhvTb4iBXymAUSp-13" vertex="1">
          <mxGeometry y="280" width="240" height="40" as="geometry" />
        </mxCell>
        <mxCell id="oIxDtNnSTY3G4xufg-7Y-140" value="comment" style="rounded=0;whiteSpace=wrap;html=1;fontSize=18;strokeColor=#333333;" parent="UyzyMVhvTb4iBXymAUSp-13" vertex="1">
          <mxGeometry y="240" width="240" height="40" as="geometry" />
        </mxCell>
        <mxCell id="UyzyMVhvTb4iBXymAUSp-10" value="word_translation_id" style="rounded=0;whiteSpace=wrap;html=1;fontSize=18;fillColor=#CCE5FF;strokeColor=#333333;" parent="UyzyMVhvTb4iBXymAUSp-13" vertex="1">
          <mxGeometry y="120" width="240" height="40" as="geometry" />
        </mxCell>
        <mxCell id="UyzyMVhvTb4iBXymAUSp-14" value="" style="group" parent="1" vertex="1" connectable="0">
          <mxGeometry x="7480" y="1520" width="240" height="240" as="geometry" />
        </mxCell>
        <mxCell id="oIxDtNnSTY3G4xufg-7Y-8" value="Favorite Word" style="rounded=0;whiteSpace=wrap;html=1;fontSize=18;fontStyle=1;labelBackgroundColor=none;labelBorderColor=none;textShadow=0;fontFamily=Georgia;strokeColor=#333333;fontColor=#FFFFFF;fillColor=#333333;" parent="UyzyMVhvTb4iBXymAUSp-14" vertex="1">
          <mxGeometry width="240" height="80" as="geometry" />
        </mxCell>
        <mxCell id="oIxDtNnSTY3G4xufg-7Y-9" value="id" style="rounded=0;whiteSpace=wrap;html=1;fontSize=18;fillColor=#007FFF;fontColor=#FFFFFF;fontStyle=1;strokeColor=#333333;" parent="UyzyMVhvTb4iBXymAUSp-14" vertex="1">
          <mxGeometry y="80" width="240" height="40" as="geometry" />
        </mxCell>
        <mxCell id="oIxDtNnSTY3G4xufg-7Y-10" value="user_id" style="rounded=0;whiteSpace=wrap;html=1;fontSize=18;fillColor=#CCE5FF;strokeColor=#333333;" parent="UyzyMVhvTb4iBXymAUSp-14" vertex="1">
          <mxGeometry y="120" width="240" height="40" as="geometry" />
        </mxCell>
        <mxCell id="oIxDtNnSTY3G4xufg-7Y-12" value="created_at" style="rounded=0;whiteSpace=wrap;html=1;fontSize=18;strokeColor=#333333;" parent="UyzyMVhvTb4iBXymAUSp-14" vertex="1">
          <mxGeometry y="200" width="240" height="40" as="geometry" />
        </mxCell>
        <mxCell id="UyzyMVhvTb4iBXymAUSp-12" value="word_translation_id" style="rounded=0;whiteSpace=wrap;html=1;fontSize=18;fillColor=#CCE5FF;strokeColor=#333333;" parent="UyzyMVhvTb4iBXymAUSp-14" vertex="1">
          <mxGeometry y="160" width="240" height="40" as="geometry" />
        </mxCell>
        <mxCell id="UyzyMVhvTb4iBXymAUSp-15" value="" style="group" parent="1" vertex="1" connectable="0">
          <mxGeometry x="7480" y="3040" width="240" height="200" as="geometry" />
        </mxCell>
        <mxCell id="oIxDtNnSTY3G4xufg-7Y-32" value="Word In Collection" style="rounded=0;whiteSpace=wrap;html=1;fontSize=18;fontStyle=1;labelBackgroundColor=none;labelBorderColor=none;textShadow=0;fontFamily=Georgia;strokeColor=#333333;fontColor=#FFFFFF;fillColor=#333333;" parent="UyzyMVhvTb4iBXymAUSp-15" vertex="1">
          <mxGeometry width="240" height="80" as="geometry" />
        </mxCell>
        <mxCell id="oIxDtNnSTY3G4xufg-7Y-33" value="id" style="rounded=0;whiteSpace=wrap;html=1;fontSize=18;fillColor=#007FFF;fontColor=#FFFFFF;fontStyle=1;strokeColor=#333333;" parent="UyzyMVhvTb4iBXymAUSp-15" vertex="1">
          <mxGeometry y="80" width="240" height="40" as="geometry" />
        </mxCell>
        <mxCell id="oIxDtNnSTY3G4xufg-7Y-34" value="word_collection_id" style="rounded=0;whiteSpace=wrap;html=1;fontSize=18;fillColor=#CCE5FF;strokeColor=#333333;" parent="UyzyMVhvTb4iBXymAUSp-15" vertex="1">
          <mxGeometry y="120" width="240" height="40" as="geometry" />
        </mxCell>
        <mxCell id="UyzyMVhvTb4iBXymAUSp-11" value="word_translation_id" style="rounded=0;whiteSpace=wrap;html=1;fontSize=18;fillColor=#CCE5FF;strokeColor=#333333;" parent="UyzyMVhvTb4iBXymAUSp-15" vertex="1">
          <mxGeometry y="160" width="240" height="40" as="geometry" />
        </mxCell>
        <mxCell id="UyzyMVhvTb4iBXymAUSp-23" value="" style="group" parent="1" vertex="1" connectable="0">
          <mxGeometry x="7840" y="3800" width="240" height="200" as="geometry" />
        </mxCell>
        <mxCell id="oIxDtNnSTY3G4xufg-7Y-13" value="User Tag" style="rounded=0;whiteSpace=wrap;html=1;fontSize=18;fontStyle=1;labelBackgroundColor=none;labelBorderColor=none;textShadow=0;fontFamily=Georgia;strokeColor=#333333;fontColor=#FFFFFF;fillColor=#333333;" parent="UyzyMVhvTb4iBXymAUSp-23" vertex="1">
          <mxGeometry width="240" height="80" as="geometry" />
        </mxCell>
        <mxCell id="oIxDtNnSTY3G4xufg-7Y-14" value="id" style="rounded=0;whiteSpace=wrap;html=1;fontSize=18;fillColor=#007FFF;fontColor=#FFFFFF;fontStyle=1;strokeColor=#333333;" parent="UyzyMVhvTb4iBXymAUSp-23" vertex="1">
          <mxGeometry y="80" width="240" height="40" as="geometry" />
        </mxCell>
        <mxCell id="oIxDtNnSTY3G4xufg-7Y-15" value="user_id" style="rounded=0;whiteSpace=wrap;html=1;fontSize=18;fillColor=#CCE5FF;strokeColor=#333333;" parent="UyzyMVhvTb4iBXymAUSp-23" vertex="1">
          <mxGeometry y="120" width="240" height="40" as="geometry" />
        </mxCell>
        <mxCell id="oIxDtNnSTY3G4xufg-7Y-16" value="word_tag_id" style="rounded=0;whiteSpace=wrap;html=1;fontSize=18;fillColor=#CCE5FF;strokeColor=#333333;" parent="UyzyMVhvTb4iBXymAUSp-23" vertex="1">
          <mxGeometry y="160" width="240" height="40" as="geometry" />
        </mxCell>
        <mxCell id="Wtt4kRsRGppH-S65klmJ-1" value="" style="group" parent="1" vertex="1" connectable="0">
          <mxGeometry x="7480" y="2840" width="240" height="160" as="geometry" />
        </mxCell>
        <mxCell id="UyzyMVhvTb4iBXymAUSp-4" value="Example Sentence" style="rounded=0;whiteSpace=wrap;html=1;fontSize=18;fontStyle=1;labelBackgroundColor=none;labelBorderColor=none;textShadow=0;fontFamily=Georgia;strokeColor=#333333;fontColor=#FFFFFF;fillColor=#333333;" parent="Wtt4kRsRGppH-S65klmJ-1" vertex="1">
          <mxGeometry width="240" height="80" as="geometry" />
        </mxCell>
        <mxCell id="UyzyMVhvTb4iBXymAUSp-5" value="id" style="rounded=0;whiteSpace=wrap;html=1;fontSize=18;fillColor=#007FFF;fontColor=#FFFFFF;fontStyle=1;strokeColor=#333333;" parent="Wtt4kRsRGppH-S65klmJ-1" vertex="1">
          <mxGeometry y="80" width="240" height="40" as="geometry" />
        </mxCell>
        <mxCell id="UyzyMVhvTb4iBXymAUSp-6" value="word_translation_id" style="rounded=0;whiteSpace=wrap;html=1;fontSize=18;fillColor=#CCE5FF;strokeColor=#333333;" parent="Wtt4kRsRGppH-S65klmJ-1" vertex="1">
          <mxGeometry y="120" width="240" height="40" as="geometry" />
        </mxCell>
        <mxCell id="Wtt4kRsRGppH-S65klmJ-4" value="" style="group" parent="1" vertex="1" connectable="0">
          <mxGeometry x="7480" y="3280" width="240" height="240" as="geometry" />
        </mxCell>
        <mxCell id="UyzyMVhvTb4iBXymAUSp-16" value="Example&amp;nbsp;&lt;span style=&quot;background-color: transparent; color: light-dark(rgb(255, 255, 255), rgb(18, 18, 18));&quot;&gt;Sentence&amp;nbsp;&lt;/span&gt;&lt;div&gt;Localization&lt;/div&gt;" style="rounded=0;whiteSpace=wrap;html=1;fontSize=18;fontStyle=1;labelBackgroundColor=none;labelBorderColor=none;textShadow=0;fontFamily=Georgia;strokeColor=#333333;fontColor=#FFFFFF;fillColor=#333333;" parent="Wtt4kRsRGppH-S65klmJ-4" vertex="1">
          <mxGeometry width="240" height="80" as="geometry" />
        </mxCell>
        <mxCell id="UyzyMVhvTb4iBXymAUSp-17" value="id" style="rounded=0;whiteSpace=wrap;html=1;fontSize=18;fillColor=#007FFF;fontColor=#FFFFFF;fontStyle=1;strokeColor=#333333;" parent="Wtt4kRsRGppH-S65klmJ-4" vertex="1">
          <mxGeometry y="80" width="240" height="40" as="geometry" />
        </mxCell>
        <mxCell id="UyzyMVhvTb4iBXymAUSp-18" value="example_sentence_id" style="rounded=0;whiteSpace=wrap;html=1;fontSize=18;fillColor=#CCE5FF;strokeColor=#333333;" parent="Wtt4kRsRGppH-S65klmJ-4" vertex="1">
          <mxGeometry y="120" width="240" height="40" as="geometry" />
        </mxCell>
        <mxCell id="UyzyMVhvTb4iBXymAUSp-24" value="word_id" style="rounded=0;whiteSpace=wrap;html=1;fontSize=18;fillColor=#CCE5FF;strokeColor=#333333;" parent="Wtt4kRsRGppH-S65klmJ-4" vertex="1">
          <mxGeometry y="200" width="240" height="40" as="geometry" />
        </mxCell>
        <mxCell id="Wtt4kRsRGppH-S65klmJ-3" value="text" style="rounded=0;whiteSpace=wrap;html=1;fontSize=18;strokeColor=#333333;" parent="Wtt4kRsRGppH-S65klmJ-4" vertex="1">
          <mxGeometry y="160" width="240" height="40" as="geometry" />
        </mxCell>
        <mxCell id="Wtt4kRsRGppH-S65klmJ-13" value="" style="group" parent="1" vertex="1" connectable="0">
          <mxGeometry x="7120" y="1440" width="240" height="280" as="geometry" />
        </mxCell>
        <mxCell id="rpK_ltsw-eI4_GqJZtfN-2" value="Word&amp;nbsp;&lt;div&gt;Localization&lt;/div&gt;" style="rounded=0;whiteSpace=wrap;html=1;fontSize=18;fontStyle=1;labelBackgroundColor=none;labelBorderColor=none;textShadow=0;fontFamily=Georgia;strokeColor=#333333;fontColor=#FFFFFF;fillColor=#333333;" parent="Wtt4kRsRGppH-S65klmJ-13" vertex="1">
          <mxGeometry width="240" height="80" as="geometry" />
        </mxCell>
        <mxCell id="rpK_ltsw-eI4_GqJZtfN-3" value="id" style="rounded=0;whiteSpace=wrap;html=1;fontSize=18;fillColor=#007FFF;fontColor=#FFFFFF;fontStyle=1;strokeColor=#333333;" parent="Wtt4kRsRGppH-S65klmJ-13" vertex="1">
          <mxGeometry y="80" width="240" height="40" as="geometry" />
        </mxCell>
        <mxCell id="rpK_ltsw-eI4_GqJZtfN-4" value="word_id" style="rounded=0;whiteSpace=wrap;html=1;fontSize=18;fillColor=#CCE5FF;strokeColor=#333333;" parent="Wtt4kRsRGppH-S65klmJ-13" vertex="1">
          <mxGeometry y="200" width="240" height="40" as="geometry" />
        </mxCell>
        <mxCell id="rpK_ltsw-eI4_GqJZtfN-5" value="language_id" style="rounded=0;whiteSpace=wrap;html=1;fontSize=18;fillColor=#CCE5FF;strokeColor=#333333;" parent="Wtt4kRsRGppH-S65klmJ-13" vertex="1">
          <mxGeometry y="240" width="240" height="40" as="geometry" />
        </mxCell>
        <mxCell id="rpK_ltsw-eI4_GqJZtfN-6" value="text" style="rounded=0;whiteSpace=wrap;html=1;fontSize=18;strokeColor=#333333;" parent="Wtt4kRsRGppH-S65klmJ-13" vertex="1">
          <mxGeometry y="120" width="240" height="40" as="geometry" />
        </mxCell>
        <mxCell id="Wtt4kRsRGppH-S65klmJ-12" value="description" style="rounded=0;whiteSpace=wrap;html=1;fontSize=18;strokeColor=#333333;" parent="Wtt4kRsRGppH-S65klmJ-13" vertex="1">
          <mxGeometry y="160" width="240" height="40" as="geometry" />
        </mxCell>
        <mxCell id="Wtt4kRsRGppH-S65klmJ-14" value="" style="group" parent="1" vertex="1" connectable="0">
          <mxGeometry x="7480" y="920" width="240" height="280" as="geometry" />
        </mxCell>
        <mxCell id="Wtt4kRsRGppH-S65klmJ-6" value="Example Sentence User&lt;div&gt;Comment&lt;/div&gt;" style="rounded=0;whiteSpace=wrap;html=1;fontSize=18;fontStyle=1;labelBackgroundColor=none;labelBorderColor=none;textShadow=0;fontFamily=Georgia;strokeColor=#333333;fontColor=#FFFFFF;fillColor=#333333;" parent="Wtt4kRsRGppH-S65klmJ-14" vertex="1">
          <mxGeometry width="240" height="80" as="geometry" />
        </mxCell>
        <mxCell id="Wtt4kRsRGppH-S65klmJ-7" value="id" style="rounded=0;whiteSpace=wrap;html=1;fontSize=18;fillColor=#007FFF;fontColor=#FFFFFF;fontStyle=1;strokeColor=#333333;" parent="Wtt4kRsRGppH-S65klmJ-14" vertex="1">
          <mxGeometry y="80" width="240" height="40" as="geometry" />
        </mxCell>
        <mxCell id="Wtt4kRsRGppH-S65klmJ-8" value="word_translation_id" style="rounded=0;whiteSpace=wrap;html=1;fontSize=18;fillColor=#CCE5FF;strokeColor=#333333;" parent="Wtt4kRsRGppH-S65klmJ-14" vertex="1">
          <mxGeometry y="120" width="240" height="40" as="geometry" />
        </mxCell>
        <mxCell id="Wtt4kRsRGppH-S65klmJ-9" value="user_id" style="rounded=0;whiteSpace=wrap;html=1;fontSize=18;fillColor=#CCE5FF;strokeColor=#333333;" parent="Wtt4kRsRGppH-S65klmJ-14" vertex="1">
          <mxGeometry y="160" width="240" height="40" as="geometry" />
        </mxCell>
        <mxCell id="Wtt4kRsRGppH-S65klmJ-10" value="text" style="rounded=0;whiteSpace=wrap;html=1;fontSize=18;fillColor=#FFFFFF;strokeColor=#333333;" parent="Wtt4kRsRGppH-S65klmJ-14" vertex="1">
          <mxGeometry y="200" width="240" height="40" as="geometry" />
        </mxCell>
        <mxCell id="Wtt4kRsRGppH-S65klmJ-11" value="created_at" style="rounded=0;whiteSpace=wrap;html=1;fontSize=18;fillColor=#FFFFFF;strokeColor=#333333;" parent="Wtt4kRsRGppH-S65klmJ-14" vertex="1">
          <mxGeometry y="240" width="240" height="40" as="geometry" />
        </mxCell>
        <mxCell id="Wtt4kRsRGppH-S65klmJ-16" value="" style="group" parent="1" vertex="1" connectable="0">
          <mxGeometry x="7840" y="960" width="240" height="360" as="geometry" />
        </mxCell>
        <mxCell id="oIxDtNnSTY3G4xufg-7Y-145" value="User Request" style="rounded=0;whiteSpace=wrap;html=1;fontSize=18;fontStyle=1;labelBackgroundColor=none;labelBorderColor=none;textShadow=0;fontFamily=Georgia;strokeColor=#333333;fontColor=#FFFFFF;fillColor=#333333;" parent="Wtt4kRsRGppH-S65klmJ-16" vertex="1">
          <mxGeometry width="240" height="80" as="geometry" />
        </mxCell>
        <mxCell id="oIxDtNnSTY3G4xufg-7Y-146" value="id" style="rounded=0;whiteSpace=wrap;html=1;fontSize=18;fillColor=#007FFF;fontColor=#FFFFFF;fontStyle=1;strokeColor=#333333;" parent="Wtt4kRsRGppH-S65klmJ-16" vertex="1">
          <mxGeometry y="80" width="240" height="40" as="geometry" />
        </mxCell>
        <mxCell id="oIxDtNnSTY3G4xufg-7Y-148" value="text" style="rounded=0;whiteSpace=wrap;html=1;fontSize=18;strokeColor=#333333;" parent="Wtt4kRsRGppH-S65klmJ-16" vertex="1">
          <mxGeometry y="200" width="240" height="40" as="geometry" />
        </mxCell>
        <mxCell id="oIxDtNnSTY3G4xufg-7Y-152" value="user_id" style="rounded=0;whiteSpace=wrap;html=1;fontSize=18;fillColor=#CCE5FF;strokeColor=#333333;" parent="Wtt4kRsRGppH-S65klmJ-16" vertex="1">
          <mxGeometry y="120" width="240" height="40" as="geometry" />
        </mxCell>
        <mxCell id="oIxDtNnSTY3G4xufg-7Y-153" value="translate" style="rounded=0;whiteSpace=wrap;html=1;fontSize=18;strokeColor=#333333;" parent="Wtt4kRsRGppH-S65klmJ-16" vertex="1">
          <mxGeometry y="240" width="240" height="40" as="geometry" />
        </mxCell>
        <mxCell id="oIxDtNnSTY3G4xufg-7Y-155" value="created_at" style="rounded=0;whiteSpace=wrap;html=1;fontSize=18;strokeColor=#333333;" parent="Wtt4kRsRGppH-S65klmJ-16" vertex="1">
          <mxGeometry y="320" width="240" height="40" as="geometry" />
        </mxCell>
        <mxCell id="rpK_ltsw-eI4_GqJZtfN-47" value="language_id" style="rounded=0;whiteSpace=wrap;html=1;fontSize=18;fillColor=#CCE5FF;strokeColor=#333333;" parent="Wtt4kRsRGppH-S65klmJ-16" vertex="1">
          <mxGeometry y="160" width="240" height="40" as="geometry" />
        </mxCell>
        <mxCell id="Wtt4kRsRGppH-S65klmJ-15" value="description" style="rounded=0;whiteSpace=wrap;html=1;fontSize=18;strokeColor=#333333;" parent="Wtt4kRsRGppH-S65klmJ-16" vertex="1">
          <mxGeometry y="280" width="240" height="40" as="geometry" />
        </mxCell>
        <mxCell id="Wtt4kRsRGppH-S65klmJ-18" value="" style="group" parent="1" vertex="1" connectable="0">
          <mxGeometry x="7840" y="640" width="240" height="280" as="geometry" />
        </mxCell>
        <mxCell id="oIxDtNnSTY3G4xufg-7Y-7" value="password" style="rounded=0;whiteSpace=wrap;html=1;fontSize=18;strokeColor=#333333;" parent="Wtt4kRsRGppH-S65klmJ-18" vertex="1">
          <mxGeometry y="200" width="240" height="40" as="geometry" />
        </mxCell>
        <mxCell id="oIxDtNnSTY3G4xufg-7Y-1" value="User" style="rounded=0;whiteSpace=wrap;html=1;fontSize=18;fontStyle=1;labelBackgroundColor=none;labelBorderColor=none;textShadow=0;fontFamily=Georgia;strokeColor=#333333;fontColor=#FFFFFF;fillColor=#333333;" parent="Wtt4kRsRGppH-S65klmJ-18" vertex="1">
          <mxGeometry width="240" height="80" as="geometry" />
        </mxCell>
        <mxCell id="oIxDtNnSTY3G4xufg-7Y-3" value="id" style="rounded=0;whiteSpace=wrap;html=1;fontSize=18;fillColor=#007FFF;fontColor=#FFFFFF;fontStyle=1;strokeColor=#333333;" parent="Wtt4kRsRGppH-S65klmJ-18" vertex="1">
          <mxGeometry y="80" width="240" height="40" as="geometry" />
        </mxCell>
        <mxCell id="oIxDtNnSTY3G4xufg-7Y-6" value="username" style="rounded=0;whiteSpace=wrap;html=1;fontSize=18;strokeColor=#333333;" parent="Wtt4kRsRGppH-S65klmJ-18" vertex="1">
          <mxGeometry y="120" width="240" height="40" as="geometry" />
        </mxCell>
        <mxCell id="rpK_ltsw-eI4_GqJZtfN-60" value="email" style="rounded=0;whiteSpace=wrap;html=1;fontSize=18;strokeColor=#333333;" parent="Wtt4kRsRGppH-S65klmJ-18" vertex="1">
          <mxGeometry y="160" width="240" height="40" as="geometry" />
        </mxCell>
        <mxCell id="Wtt4kRsRGppH-S65klmJ-17" value="language_id" style="rounded=0;whiteSpace=wrap;html=1;fontSize=18;strokeColor=#333333;fillColor=#CCE5FF;" parent="Wtt4kRsRGppH-S65klmJ-18" vertex="1">
          <mxGeometry y="240" width="240" height="40" as="geometry" />
        </mxCell>
        <mxCell id="OD1dyXAK8TXXlVN3yiVF-5" value="" style="group" parent="1" vertex="1" connectable="0">
          <mxGeometry x="8200" y="1840" width="240" height="160" as="geometry" />
        </mxCell>
        <mxCell id="OD1dyXAK8TXXlVN3yiVF-1" value="Daily&amp;nbsp;&lt;div&gt;Task Category&lt;/div&gt;" style="rounded=0;whiteSpace=wrap;html=1;fontSize=18;fontStyle=1;labelBackgroundColor=none;labelBorderColor=none;textShadow=0;fontFamily=Georgia;strokeColor=#333333;fontColor=#FFFFFF;fillColor=#333333;" parent="OD1dyXAK8TXXlVN3yiVF-5" vertex="1">
          <mxGeometry width="240" height="80" as="geometry" />
        </mxCell>
        <mxCell id="OD1dyXAK8TXXlVN3yiVF-2" value="id" style="rounded=0;whiteSpace=wrap;html=1;fontSize=18;fillColor=#007FFF;fontColor=#FFFFFF;fontStyle=1;strokeColor=#333333;" parent="OD1dyXAK8TXXlVN3yiVF-5" vertex="1">
          <mxGeometry y="80" width="240" height="40" as="geometry" />
        </mxCell>
        <mxCell id="OD1dyXAK8TXXlVN3yiVF-3" value="name" style="rounded=0;whiteSpace=wrap;html=1;fontSize=18;strokeColor=#333333;" parent="OD1dyXAK8TXXlVN3yiVF-5" vertex="1">
          <mxGeometry y="120" width="240" height="40" as="geometry" />
        </mxCell>
        <mxCell id="OD1dyXAK8TXXlVN3yiVF-12" value="" style="group" parent="1" vertex="1" connectable="0">
          <mxGeometry x="7480" y="2160" width="240" height="280" as="geometry" />
        </mxCell>
        <mxCell id="OD1dyXAK8TXXlVN3yiVF-6" value="&lt;div style=&quot;text-align: left;&quot;&gt;&lt;span style=&quot;background-color: transparent; color: light-dark(rgb(255, 255, 255), rgb(18, 18, 18));&quot;&gt;User Word&lt;/span&gt;&lt;/div&gt;&lt;div style=&quot;text-align: left;&quot;&gt;&lt;span style=&quot;background-color: transparent; color: light-dark(rgb(255, 255, 255), rgb(18, 18, 18));&quot;&gt;Confidence&lt;/span&gt;&lt;/div&gt;" style="rounded=0;whiteSpace=wrap;html=1;fontSize=18;fontStyle=1;labelBackgroundColor=none;labelBorderColor=none;textShadow=0;fontFamily=Georgia;strokeColor=#333333;fontColor=#FFFFFF;fillColor=#333333;" parent="OD1dyXAK8TXXlVN3yiVF-12" vertex="1">
          <mxGeometry width="240" height="80" as="geometry" />
        </mxCell>
        <mxCell id="OD1dyXAK8TXXlVN3yiVF-7" value="id" style="rounded=0;whiteSpace=wrap;html=1;fontSize=18;fillColor=#007FFF;fontColor=#FFFFFF;fontStyle=1;strokeColor=#333333;" parent="OD1dyXAK8TXXlVN3yiVF-12" vertex="1">
          <mxGeometry y="80" width="240" height="40" as="geometry" />
        </mxCell>
        <mxCell id="OD1dyXAK8TXXlVN3yiVF-8" value="user_id" style="rounded=0;whiteSpace=wrap;html=1;fontSize=18;fillColor=#CCE5FF;strokeColor=#333333;" parent="OD1dyXAK8TXXlVN3yiVF-12" vertex="1">
          <mxGeometry y="120" width="240" height="40" as="geometry" />
        </mxCell>
        <mxCell id="OD1dyXAK8TXXlVN3yiVF-9" value="word_translation_id" style="rounded=0;whiteSpace=wrap;html=1;fontSize=18;fillColor=#CCE5FF;strokeColor=#333333;" parent="OD1dyXAK8TXXlVN3yiVF-12" vertex="1">
          <mxGeometry y="160" width="240" height="40" as="geometry" />
        </mxCell>
        <mxCell id="OD1dyXAK8TXXlVN3yiVF-10" value="created_at" style="rounded=0;whiteSpace=wrap;html=1;fontSize=18;strokeColor=#333333;" parent="OD1dyXAK8TXXlVN3yiVF-12" vertex="1">
          <mxGeometry y="240" width="240" height="40" as="geometry" />
        </mxCell>
        <mxCell id="OD1dyXAK8TXXlVN3yiVF-11" value="confidence_level" style="rounded=0;whiteSpace=wrap;html=1;fontSize=18;strokeColor=#333333;" parent="OD1dyXAK8TXXlVN3yiVF-12" vertex="1">
          <mxGeometry y="200" width="240" height="40" as="geometry" />
        </mxCell>
        <mxCell id="OD1dyXAK8TXXlVN3yiVF-13" value="" style="group" parent="1" vertex="1" connectable="0">
          <mxGeometry x="8200" y="1440" width="240" height="360" as="geometry" />
        </mxCell>
        <mxCell id="Wtt4kRsRGppH-S65klmJ-20" value="Daily Task" style="rounded=0;whiteSpace=wrap;html=1;fontSize=18;fontStyle=1;labelBackgroundColor=none;labelBorderColor=none;textShadow=0;fontFamily=Georgia;strokeColor=#333333;fontColor=#FFFFFF;fillColor=#333333;" parent="OD1dyXAK8TXXlVN3yiVF-13" vertex="1">
          <mxGeometry width="240" height="80" as="geometry" />
        </mxCell>
        <mxCell id="Wtt4kRsRGppH-S65klmJ-21" value="id" style="rounded=0;whiteSpace=wrap;html=1;fontSize=18;fillColor=#007FFF;fontColor=#FFFFFF;fontStyle=1;strokeColor=#333333;" parent="OD1dyXAK8TXXlVN3yiVF-13" vertex="1">
          <mxGeometry y="80" width="240" height="40" as="geometry" />
        </mxCell>
        <mxCell id="Wtt4kRsRGppH-S65klmJ-22" value="user_id" style="rounded=0;whiteSpace=wrap;html=1;fontSize=18;fillColor=#CCE5FF;strokeColor=#333333;" parent="OD1dyXAK8TXXlVN3yiVF-13" vertex="1">
          <mxGeometry y="120" width="240" height="40" as="geometry" />
        </mxCell>
        <mxCell id="Wtt4kRsRGppH-S65klmJ-24" value="created_at" style="rounded=0;whiteSpace=wrap;html=1;fontSize=18;strokeColor=#333333;" parent="OD1dyXAK8TXXlVN3yiVF-13" vertex="1">
          <mxGeometry y="320" width="240" height="40" as="geometry" />
        </mxCell>
        <mxCell id="Wtt4kRsRGppH-S65klmJ-25" value="title" style="rounded=0;whiteSpace=wrap;html=1;fontSize=18;strokeColor=#333333;" parent="OD1dyXAK8TXXlVN3yiVF-13" vertex="1">
          <mxGeometry y="200" width="240" height="40" as="geometry" />
        </mxCell>
        <mxCell id="Wtt4kRsRGppH-S65klmJ-26" value="description" style="rounded=0;whiteSpace=wrap;html=1;fontSize=18;strokeColor=#333333;" parent="OD1dyXAK8TXXlVN3yiVF-13" vertex="1">
          <mxGeometry y="240" width="240" height="40" as="geometry" />
        </mxCell>
        <mxCell id="Wtt4kRsRGppH-S65klmJ-27" value="date" style="rounded=0;whiteSpace=wrap;html=1;fontSize=18;strokeColor=#333333;" parent="OD1dyXAK8TXXlVN3yiVF-13" vertex="1">
          <mxGeometry y="280" width="240" height="40" as="geometry" />
        </mxCell>
        <mxCell id="OD1dyXAK8TXXlVN3yiVF-4" value="daily_task_category_id" style="rounded=0;whiteSpace=wrap;html=1;fontSize=18;fillColor=#CCE5FF;strokeColor=#333333;" parent="OD1dyXAK8TXXlVN3yiVF-13" vertex="1">
          <mxGeometry y="160" width="240" height="40" as="geometry" />
        </mxCell>
        <mxCell id="OD1dyXAK8TXXlVN3yiVF-38" value="" style="group" parent="1" vertex="1" connectable="0">
          <mxGeometry x="8200" y="-40" width="240" height="200" as="geometry" />
        </mxCell>
        <mxCell id="OD1dyXAK8TXXlVN3yiVF-33" value="&lt;div style=&quot;&quot;&gt;Club Post&lt;/div&gt;&lt;div style=&quot;&quot;&gt;Additional&lt;/div&gt;" style="rounded=0;whiteSpace=wrap;html=1;fontSize=18;fontStyle=1;labelBackgroundColor=none;labelBorderColor=none;textShadow=0;fontFamily=Georgia;strokeColor=#333333;fontColor=#FFFFFF;fillColor=#333333;align=center;" parent="OD1dyXAK8TXXlVN3yiVF-38" vertex="1">
          <mxGeometry width="240" height="80" as="geometry" />
        </mxCell>
        <mxCell id="OD1dyXAK8TXXlVN3yiVF-34" value="id" style="rounded=0;whiteSpace=wrap;html=1;fontSize=18;fillColor=#007FFF;fontColor=#FFFFFF;fontStyle=1;strokeColor=#333333;" parent="OD1dyXAK8TXXlVN3yiVF-38" vertex="1">
          <mxGeometry y="80" width="240" height="40" as="geometry" />
        </mxCell>
        <mxCell id="OD1dyXAK8TXXlVN3yiVF-35" value="club_post_id" style="rounded=0;whiteSpace=wrap;html=1;fontSize=18;fillColor=#CCE5FF;strokeColor=#333333;" parent="OD1dyXAK8TXXlVN3yiVF-38" vertex="1">
          <mxGeometry y="120" width="240" height="40" as="geometry" />
        </mxCell>
        <mxCell id="OD1dyXAK8TXXlVN3yiVF-37" value="content_url" style="rounded=0;whiteSpace=wrap;html=1;fontSize=18;strokeColor=#333333;" parent="OD1dyXAK8TXXlVN3yiVF-38" vertex="1">
          <mxGeometry y="160" width="240" height="40" as="geometry" />
        </mxCell>
        <mxCell id="OD1dyXAK8TXXlVN3yiVF-40" value="" style="group" parent="1" vertex="1" connectable="0">
          <mxGeometry x="8200" y="520" width="240" height="280" as="geometry" />
        </mxCell>
        <mxCell id="OD1dyXAK8TXXlVN3yiVF-28" value="&lt;div style=&quot;text-align: left;&quot;&gt;Club Post&lt;/div&gt;" style="rounded=0;whiteSpace=wrap;html=1;fontSize=18;fontStyle=1;labelBackgroundColor=none;labelBorderColor=none;textShadow=0;fontFamily=Georgia;strokeColor=#333333;fontColor=#FFFFFF;fillColor=#333333;" parent="OD1dyXAK8TXXlVN3yiVF-40" vertex="1">
          <mxGeometry width="240" height="80" as="geometry" />
        </mxCell>
        <mxCell id="OD1dyXAK8TXXlVN3yiVF-29" value="id" style="rounded=0;whiteSpace=wrap;html=1;fontSize=18;fillColor=#007FFF;fontColor=#FFFFFF;fontStyle=1;strokeColor=#333333;" parent="OD1dyXAK8TXXlVN3yiVF-40" vertex="1">
          <mxGeometry y="80" width="240" height="40" as="geometry" />
        </mxCell>
        <mxCell id="OD1dyXAK8TXXlVN3yiVF-30" value="user_id" style="rounded=0;whiteSpace=wrap;html=1;fontSize=18;fillColor=#CCE5FF;strokeColor=#333333;" parent="OD1dyXAK8TXXlVN3yiVF-40" vertex="1">
          <mxGeometry y="120" width="240" height="40" as="geometry" />
        </mxCell>
        <mxCell id="OD1dyXAK8TXXlVN3yiVF-31" value="club_id" style="rounded=0;whiteSpace=wrap;html=1;fontSize=18;fillColor=#CCE5FF;strokeColor=#333333;" parent="OD1dyXAK8TXXlVN3yiVF-40" vertex="1">
          <mxGeometry y="160" width="240" height="40" as="geometry" />
        </mxCell>
        <mxCell id="OD1dyXAK8TXXlVN3yiVF-32" value="text" style="rounded=0;whiteSpace=wrap;html=1;fontSize=18;strokeColor=#333333;" parent="OD1dyXAK8TXXlVN3yiVF-40" vertex="1">
          <mxGeometry y="200" width="240" height="40" as="geometry" />
        </mxCell>
        <mxCell id="OD1dyXAK8TXXlVN3yiVF-39" value="created_at" style="rounded=0;whiteSpace=wrap;html=1;fontSize=18;strokeColor=#333333;" parent="OD1dyXAK8TXXlVN3yiVF-40" vertex="1">
          <mxGeometry y="240" width="240" height="40" as="geometry" />
        </mxCell>
        <mxCell id="OD1dyXAK8TXXlVN3yiVF-41" value="" style="group" parent="1" vertex="1" connectable="0">
          <mxGeometry x="8200" y="1160" width="240" height="240" as="geometry" />
        </mxCell>
        <mxCell id="OD1dyXAK8TXXlVN3yiVF-22" value="&lt;div style=&quot;text-align: left;&quot;&gt;Club&amp;nbsp;&lt;span style=&quot;background-color: transparent; color: light-dark(rgb(255, 255, 255), rgb(18, 18, 18));&quot;&gt;Subscription&lt;/span&gt;&lt;/div&gt;" style="rounded=0;whiteSpace=wrap;html=1;fontSize=18;fontStyle=1;labelBackgroundColor=none;labelBorderColor=none;textShadow=0;fontFamily=Georgia;strokeColor=#333333;fontColor=#FFFFFF;fillColor=#333333;" parent="OD1dyXAK8TXXlVN3yiVF-41" vertex="1">
          <mxGeometry width="240" height="80" as="geometry" />
        </mxCell>
        <mxCell id="OD1dyXAK8TXXlVN3yiVF-23" value="id" style="rounded=0;whiteSpace=wrap;html=1;fontSize=18;fillColor=#007FFF;fontColor=#FFFFFF;fontStyle=1;strokeColor=#333333;" parent="OD1dyXAK8TXXlVN3yiVF-41" vertex="1">
          <mxGeometry y="80" width="240" height="40" as="geometry" />
        </mxCell>
        <mxCell id="OD1dyXAK8TXXlVN3yiVF-25" value="club_id" style="rounded=0;whiteSpace=wrap;html=1;fontSize=18;fillColor=#CCE5FF;strokeColor=#333333;" parent="OD1dyXAK8TXXlVN3yiVF-41" vertex="1">
          <mxGeometry y="160" width="240" height="40" as="geometry" />
        </mxCell>
        <mxCell id="OD1dyXAK8TXXlVN3yiVF-26" value="user_id" style="rounded=0;whiteSpace=wrap;html=1;fontSize=18;fillColor=#CCE5FF;strokeColor=#333333;" parent="OD1dyXAK8TXXlVN3yiVF-41" vertex="1">
          <mxGeometry y="120" width="240" height="40" as="geometry" />
        </mxCell>
        <mxCell id="OD1dyXAK8TXXlVN3yiVF-27" value="created_at" style="rounded=0;whiteSpace=wrap;html=1;fontSize=18;strokeColor=#333333;" parent="OD1dyXAK8TXXlVN3yiVF-41" vertex="1">
          <mxGeometry y="200" width="240" height="40" as="geometry" />
        </mxCell>
        <mxCell id="OD1dyXAK8TXXlVN3yiVF-52" value="" style="group" parent="1" vertex="1" connectable="0">
          <mxGeometry x="7840" width="240" height="280" as="geometry" />
        </mxCell>
        <mxCell id="OD1dyXAK8TXXlVN3yiVF-42" value="&lt;div style=&quot;&quot;&gt;Club&amp;nbsp;&lt;/div&gt;&lt;div style=&quot;&quot;&gt;Post Comment&lt;/div&gt;" style="rounded=0;whiteSpace=wrap;html=1;fontSize=18;fontStyle=1;labelBackgroundColor=none;labelBorderColor=none;textShadow=0;fontFamily=Georgia;strokeColor=#333333;fontColor=#FFFFFF;fillColor=#333333;align=center;" parent="OD1dyXAK8TXXlVN3yiVF-52" vertex="1">
          <mxGeometry width="240" height="80" as="geometry" />
        </mxCell>
        <mxCell id="OD1dyXAK8TXXlVN3yiVF-43" value="id" style="rounded=0;whiteSpace=wrap;html=1;fontSize=18;fillColor=#007FFF;fontColor=#FFFFFF;fontStyle=1;strokeColor=#333333;" parent="OD1dyXAK8TXXlVN3yiVF-52" vertex="1">
          <mxGeometry y="80" width="240" height="40" as="geometry" />
        </mxCell>
        <mxCell id="OD1dyXAK8TXXlVN3yiVF-44" value="club_post_id" style="rounded=0;whiteSpace=wrap;html=1;fontSize=18;fillColor=#CCE5FF;strokeColor=#333333;" parent="OD1dyXAK8TXXlVN3yiVF-52" vertex="1">
          <mxGeometry y="120" width="240" height="40" as="geometry" />
        </mxCell>
        <mxCell id="OD1dyXAK8TXXlVN3yiVF-45" value="user_id" style="rounded=0;whiteSpace=wrap;html=1;fontSize=18;fillColor=#CCE5FF;strokeColor=#333333;" parent="OD1dyXAK8TXXlVN3yiVF-52" vertex="1">
          <mxGeometry y="160" width="240" height="40" as="geometry" />
        </mxCell>
        <mxCell id="OD1dyXAK8TXXlVN3yiVF-46" value="text" style="rounded=0;whiteSpace=wrap;html=1;fontSize=18;strokeColor=#333333;" parent="OD1dyXAK8TXXlVN3yiVF-52" vertex="1">
          <mxGeometry y="200" width="240" height="40" as="geometry" />
        </mxCell>
        <mxCell id="OD1dyXAK8TXXlVN3yiVF-47" value="created_at" style="rounded=0;whiteSpace=wrap;html=1;fontSize=18;strokeColor=#333333;" parent="OD1dyXAK8TXXlVN3yiVF-52" vertex="1">
          <mxGeometry y="240" width="240" height="40" as="geometry" />
        </mxCell>
        <mxCell id="OD1dyXAK8TXXlVN3yiVF-53" value="" style="group" parent="1" vertex="1" connectable="0">
          <mxGeometry x="7840" y="-240" width="240" height="200" as="geometry" />
        </mxCell>
        <mxCell id="OD1dyXAK8TXXlVN3yiVF-48" value="Club Post&amp;nbsp;&lt;div&gt;Comment&amp;nbsp;&lt;span style=&quot;background-color: transparent; color: light-dark(rgb(255, 255, 255), rgb(18, 18, 18));&quot;&gt;Additional&lt;/span&gt;&lt;/div&gt;" style="rounded=0;whiteSpace=wrap;html=1;fontSize=18;fontStyle=1;labelBackgroundColor=none;labelBorderColor=none;textShadow=0;fontFamily=Georgia;strokeColor=#333333;fontColor=#FFFFFF;fillColor=#333333;" parent="OD1dyXAK8TXXlVN3yiVF-53" vertex="1">
          <mxGeometry width="240" height="80" as="geometry" />
        </mxCell>
        <mxCell id="OD1dyXAK8TXXlVN3yiVF-49" value="id" style="rounded=0;whiteSpace=wrap;html=1;fontSize=18;fillColor=#007FFF;fontColor=#FFFFFF;fontStyle=1;strokeColor=#333333;" parent="OD1dyXAK8TXXlVN3yiVF-53" vertex="1">
          <mxGeometry y="80" width="240" height="40" as="geometry" />
        </mxCell>
        <mxCell id="OD1dyXAK8TXXlVN3yiVF-50" value="club_post_comment_id" style="rounded=0;whiteSpace=wrap;html=1;fontSize=18;fillColor=#CCE5FF;strokeColor=#333333;" parent="OD1dyXAK8TXXlVN3yiVF-53" vertex="1">
          <mxGeometry y="120" width="240" height="40" as="geometry" />
        </mxCell>
        <mxCell id="OD1dyXAK8TXXlVN3yiVF-51" value="content_url" style="rounded=0;whiteSpace=wrap;html=1;fontSize=18;strokeColor=#333333;" parent="OD1dyXAK8TXXlVN3yiVF-53" vertex="1">
          <mxGeometry y="160" width="240" height="40" as="geometry" />
        </mxCell>
        <mxCell id="OD1dyXAK8TXXlVN3yiVF-60" value="" style="group" parent="1" vertex="1" connectable="0">
          <mxGeometry x="7840" y="320" width="240" height="280" as="geometry" />
        </mxCell>
        <mxCell id="OD1dyXAK8TXXlVN3yiVF-54" value="&lt;div style=&quot;text-align: left;&quot;&gt;Club Post&amp;nbsp;&lt;/div&gt;&lt;div style=&quot;text-align: left;&quot;&gt;Reaction&lt;/div&gt;" style="rounded=0;whiteSpace=wrap;html=1;fontSize=18;fontStyle=1;labelBackgroundColor=none;labelBorderColor=none;textShadow=0;fontFamily=Georgia;strokeColor=#333333;fontColor=#FFFFFF;fillColor=#333333;" parent="OD1dyXAK8TXXlVN3yiVF-60" vertex="1">
          <mxGeometry width="240" height="80" as="geometry" />
        </mxCell>
        <mxCell id="OD1dyXAK8TXXlVN3yiVF-55" value="id" style="rounded=0;whiteSpace=wrap;html=1;fontSize=18;fillColor=#007FFF;fontColor=#FFFFFF;fontStyle=1;strokeColor=#333333;" parent="OD1dyXAK8TXXlVN3yiVF-60" vertex="1">
          <mxGeometry y="80" width="240" height="40" as="geometry" />
        </mxCell>
        <mxCell id="OD1dyXAK8TXXlVN3yiVF-56" value="club_post_id" style="rounded=0;whiteSpace=wrap;html=1;fontSize=18;fillColor=#CCE5FF;strokeColor=#333333;" parent="OD1dyXAK8TXXlVN3yiVF-60" vertex="1">
          <mxGeometry y="120" width="240" height="40" as="geometry" />
        </mxCell>
        <mxCell id="OD1dyXAK8TXXlVN3yiVF-57" value="user_id" style="rounded=0;whiteSpace=wrap;html=1;fontSize=18;fillColor=#CCE5FF;strokeColor=#333333;" parent="OD1dyXAK8TXXlVN3yiVF-60" vertex="1">
          <mxGeometry y="160" width="240" height="40" as="geometry" />
        </mxCell>
        <mxCell id="OD1dyXAK8TXXlVN3yiVF-58" value="created_at" style="rounded=0;whiteSpace=wrap;html=1;fontSize=18;strokeColor=#333333;" parent="OD1dyXAK8TXXlVN3yiVF-60" vertex="1">
          <mxGeometry y="240" width="240" height="40" as="geometry" />
        </mxCell>
        <mxCell id="OD1dyXAK8TXXlVN3yiVF-59" value="isLiked" style="rounded=0;whiteSpace=wrap;html=1;fontSize=18;strokeColor=#333333;" parent="OD1dyXAK8TXXlVN3yiVF-60" vertex="1">
          <mxGeometry y="200" width="240" height="40" as="geometry" />
        </mxCell>
        <mxCell id="OD1dyXAK8TXXlVN3yiVF-61" value="" style="group" parent="1" vertex="1" connectable="0">
          <mxGeometry x="7480" y="320" width="240" height="280" as="geometry" />
        </mxCell>
        <mxCell id="OD1dyXAK8TXXlVN3yiVF-62" value="&lt;div style=&quot;&quot;&gt;Club Post&amp;nbsp;&lt;/div&gt;&lt;div style=&quot;&quot;&gt;Comment&amp;nbsp;&lt;span style=&quot;background-color: transparent; color: light-dark(rgb(255, 255, 255), rgb(18, 18, 18));&quot;&gt;Reaction&lt;/span&gt;&lt;/div&gt;" style="rounded=0;whiteSpace=wrap;html=1;fontSize=18;fontStyle=1;labelBackgroundColor=none;labelBorderColor=none;textShadow=0;fontFamily=Georgia;strokeColor=#333333;fontColor=#FFFFFF;fillColor=#333333;align=center;" parent="OD1dyXAK8TXXlVN3yiVF-61" vertex="1">
          <mxGeometry width="240" height="80" as="geometry" />
        </mxCell>
        <mxCell id="OD1dyXAK8TXXlVN3yiVF-63" value="id" style="rounded=0;whiteSpace=wrap;html=1;fontSize=18;fillColor=#007FFF;fontColor=#FFFFFF;fontStyle=1;strokeColor=#333333;" parent="OD1dyXAK8TXXlVN3yiVF-61" vertex="1">
          <mxGeometry y="80" width="240" height="40" as="geometry" />
        </mxCell>
        <mxCell id="OD1dyXAK8TXXlVN3yiVF-65" value="user_id" style="rounded=0;whiteSpace=wrap;html=1;fontSize=18;fillColor=#CCE5FF;strokeColor=#333333;" parent="OD1dyXAK8TXXlVN3yiVF-61" vertex="1">
          <mxGeometry y="160" width="240" height="40" as="geometry" />
        </mxCell>
        <mxCell id="OD1dyXAK8TXXlVN3yiVF-66" value="created_at" style="rounded=0;whiteSpace=wrap;html=1;fontSize=18;strokeColor=#333333;" parent="OD1dyXAK8TXXlVN3yiVF-61" vertex="1">
          <mxGeometry y="240" width="240" height="40" as="geometry" />
        </mxCell>
        <mxCell id="OD1dyXAK8TXXlVN3yiVF-67" value="isLiked" style="rounded=0;whiteSpace=wrap;html=1;fontSize=18;strokeColor=#333333;" parent="OD1dyXAK8TXXlVN3yiVF-61" vertex="1">
          <mxGeometry y="200" width="240" height="40" as="geometry" />
        </mxCell>
        <mxCell id="OD1dyXAK8TXXlVN3yiVF-68" value="club_post_comment_id" style="rounded=0;whiteSpace=wrap;html=1;fontSize=18;fillColor=#CCE5FF;strokeColor=#333333;" parent="OD1dyXAK8TXXlVN3yiVF-61" vertex="1">
          <mxGeometry y="120" width="240" height="40" as="geometry" />
        </mxCell>
        <mxCell id="OD1dyXAK8TXXlVN3yiVF-69" value="" style="group" parent="1" vertex="1" connectable="0">
          <mxGeometry x="7840" y="1360" width="240" height="320" as="geometry" />
        </mxCell>
        <mxCell id="OD1dyXAK8TXXlVN3yiVF-15" value="&lt;div style=&quot;text-align: left;&quot;&gt;Club&lt;/div&gt;" style="rounded=0;whiteSpace=wrap;html=1;fontSize=18;fontStyle=1;labelBackgroundColor=none;labelBorderColor=none;textShadow=0;fontFamily=Georgia;strokeColor=#333333;fontColor=#FFFFFF;fillColor=#333333;" parent="OD1dyXAK8TXXlVN3yiVF-69" vertex="1">
          <mxGeometry width="240" height="80" as="geometry" />
        </mxCell>
        <mxCell id="OD1dyXAK8TXXlVN3yiVF-16" value="id" style="rounded=0;whiteSpace=wrap;html=1;fontSize=18;fillColor=#007FFF;fontColor=#FFFFFF;fontStyle=1;strokeColor=#333333;" parent="OD1dyXAK8TXXlVN3yiVF-69" vertex="1">
          <mxGeometry y="80" width="240" height="40" as="geometry" />
        </mxCell>
        <mxCell id="OD1dyXAK8TXXlVN3yiVF-17" value="user_id" style="rounded=0;whiteSpace=wrap;html=1;fontSize=18;fillColor=#CCE5FF;strokeColor=#333333;" parent="OD1dyXAK8TXXlVN3yiVF-69" vertex="1">
          <mxGeometry y="120" width="240" height="40" as="geometry" />
        </mxCell>
        <mxCell id="OD1dyXAK8TXXlVN3yiVF-18" value="language_id" style="rounded=0;whiteSpace=wrap;html=1;fontSize=18;fillColor=#CCE5FF;strokeColor=#333333;" parent="OD1dyXAK8TXXlVN3yiVF-69" vertex="1">
          <mxGeometry y="160" width="240" height="40" as="geometry" />
        </mxCell>
        <mxCell id="OD1dyXAK8TXXlVN3yiVF-19" value="description" style="rounded=0;whiteSpace=wrap;html=1;fontSize=18;strokeColor=#333333;" parent="OD1dyXAK8TXXlVN3yiVF-69" vertex="1">
          <mxGeometry y="240" width="240" height="40" as="geometry" />
        </mxCell>
        <mxCell id="OD1dyXAK8TXXlVN3yiVF-20" value="name" style="rounded=0;whiteSpace=wrap;html=1;fontSize=18;strokeColor=#333333;" parent="OD1dyXAK8TXXlVN3yiVF-69" vertex="1">
          <mxGeometry y="200" width="240" height="40" as="geometry" />
        </mxCell>
        <mxCell id="OD1dyXAK8TXXlVN3yiVF-21" value="logo_url" style="rounded=0;whiteSpace=wrap;html=1;fontSize=18;strokeColor=#333333;" parent="OD1dyXAK8TXXlVN3yiVF-69" vertex="1">
          <mxGeometry y="280" width="240" height="40" as="geometry" />
        </mxCell>
        <mxCell id="OD1dyXAK8TXXlVN3yiVF-78" value="" style="group" parent="1" vertex="1" connectable="0">
          <mxGeometry x="8200" y="3883" width="240" height="280" as="geometry" />
        </mxCell>
        <mxCell id="OD1dyXAK8TXXlVN3yiVF-71" value="Word&amp;nbsp;&lt;div&gt;Collection Report&lt;/div&gt;" style="rounded=0;whiteSpace=wrap;html=1;fontSize=18;fontStyle=1;labelBackgroundColor=none;labelBorderColor=none;textShadow=0;fontFamily=Georgia;strokeColor=#333333;fontColor=#FFFFFF;fillColor=#333333;container=0;" parent="OD1dyXAK8TXXlVN3yiVF-78" vertex="1">
          <mxGeometry width="240" height="80" as="geometry" />
        </mxCell>
        <mxCell id="OD1dyXAK8TXXlVN3yiVF-72" value="id" style="rounded=0;whiteSpace=wrap;html=1;fontSize=18;fillColor=#007FFF;fontColor=#FFFFFF;fontStyle=1;strokeColor=#333333;container=0;" parent="OD1dyXAK8TXXlVN3yiVF-78" vertex="1">
          <mxGeometry y="80" width="240" height="40" as="geometry" />
        </mxCell>
        <mxCell id="OD1dyXAK8TXXlVN3yiVF-73" value="user_id" style="rounded=0;whiteSpace=wrap;html=1;fontSize=18;fillColor=#CCE5FF;strokeColor=#333333;container=0;" parent="OD1dyXAK8TXXlVN3yiVF-78" vertex="1">
          <mxGeometry y="120" width="240" height="40" as="geometry" />
        </mxCell>
        <mxCell id="OD1dyXAK8TXXlVN3yiVF-74" value="word_collection_id" style="rounded=0;whiteSpace=wrap;html=1;fontSize=18;fillColor=#CCE5FF;strokeColor=#333333;container=0;" parent="OD1dyXAK8TXXlVN3yiVF-78" vertex="1">
          <mxGeometry y="160" width="240" height="40" as="geometry" />
        </mxCell>
        <mxCell id="OD1dyXAK8TXXlVN3yiVF-75" value="created_at" style="rounded=0;whiteSpace=wrap;html=1;fontSize=18;strokeColor=#333333;container=0;" parent="OD1dyXAK8TXXlVN3yiVF-78" vertex="1">
          <mxGeometry y="240" width="240" height="40" as="geometry" />
        </mxCell>
        <mxCell id="OD1dyXAK8TXXlVN3yiVF-76" value="reason" style="rounded=0;whiteSpace=wrap;html=1;fontSize=18;strokeColor=#333333;container=0;" parent="OD1dyXAK8TXXlVN3yiVF-78" vertex="1">
          <mxGeometry y="200" width="240" height="40" as="geometry" />
        </mxCell>
        <mxCell id="OD1dyXAK8TXXlVN3yiVF-79" value="" style="group" parent="1" vertex="1" connectable="0">
          <mxGeometry x="8200" y="840" width="240" height="280" as="geometry" />
        </mxCell>
        <mxCell id="OD1dyXAK8TXXlVN3yiVF-80" value="&lt;div&gt;Club Report&lt;/div&gt;" style="rounded=0;whiteSpace=wrap;html=1;fontSize=18;fontStyle=1;labelBackgroundColor=none;labelBorderColor=none;textShadow=0;fontFamily=Georgia;strokeColor=#333333;fontColor=#FFFFFF;fillColor=#333333;container=0;" parent="OD1dyXAK8TXXlVN3yiVF-79" vertex="1">
          <mxGeometry width="240" height="80" as="geometry" />
        </mxCell>
        <mxCell id="OD1dyXAK8TXXlVN3yiVF-81" value="id" style="rounded=0;whiteSpace=wrap;html=1;fontSize=18;fillColor=#007FFF;fontColor=#FFFFFF;fontStyle=1;strokeColor=#333333;container=0;" parent="OD1dyXAK8TXXlVN3yiVF-79" vertex="1">
          <mxGeometry y="80" width="240" height="40" as="geometry" />
        </mxCell>
        <mxCell id="OD1dyXAK8TXXlVN3yiVF-82" value="user_id" style="rounded=0;whiteSpace=wrap;html=1;fontSize=18;fillColor=#CCE5FF;strokeColor=#333333;container=0;" parent="OD1dyXAK8TXXlVN3yiVF-79" vertex="1">
          <mxGeometry y="120" width="240" height="40" as="geometry" />
        </mxCell>
        <mxCell id="OD1dyXAK8TXXlVN3yiVF-83" value="club_id" style="rounded=0;whiteSpace=wrap;html=1;fontSize=18;fillColor=#CCE5FF;strokeColor=#333333;container=0;" parent="OD1dyXAK8TXXlVN3yiVF-79" vertex="1">
          <mxGeometry y="160" width="240" height="40" as="geometry" />
        </mxCell>
        <mxCell id="OD1dyXAK8TXXlVN3yiVF-84" value="created_at" style="rounded=0;whiteSpace=wrap;html=1;fontSize=18;strokeColor=#333333;container=0;" parent="OD1dyXAK8TXXlVN3yiVF-79" vertex="1">
          <mxGeometry y="240" width="240" height="40" as="geometry" />
        </mxCell>
        <mxCell id="OD1dyXAK8TXXlVN3yiVF-85" value="reason" style="rounded=0;whiteSpace=wrap;html=1;fontSize=18;strokeColor=#333333;container=0;" parent="OD1dyXAK8TXXlVN3yiVF-79" vertex="1">
          <mxGeometry y="200" width="240" height="40" as="geometry" />
        </mxCell>
        <mxCell id="OD1dyXAK8TXXlVN3yiVF-86" value="" style="group" parent="1" vertex="1" connectable="0">
          <mxGeometry x="8200" y="200" width="240" height="280" as="geometry" />
        </mxCell>
        <mxCell id="OD1dyXAK8TXXlVN3yiVF-87" value="&lt;div&gt;Club Post Report&lt;/div&gt;" style="rounded=0;whiteSpace=wrap;html=1;fontSize=18;fontStyle=1;labelBackgroundColor=none;labelBorderColor=none;textShadow=0;fontFamily=Georgia;strokeColor=#333333;fontColor=#FFFFFF;fillColor=#333333;container=0;" parent="OD1dyXAK8TXXlVN3yiVF-86" vertex="1">
          <mxGeometry width="240" height="80" as="geometry" />
        </mxCell>
        <mxCell id="OD1dyXAK8TXXlVN3yiVF-88" value="id" style="rounded=0;whiteSpace=wrap;html=1;fontSize=18;fillColor=#007FFF;fontColor=#FFFFFF;fontStyle=1;strokeColor=#333333;container=0;" parent="OD1dyXAK8TXXlVN3yiVF-86" vertex="1">
          <mxGeometry y="80" width="240" height="40" as="geometry" />
        </mxCell>
        <mxCell id="OD1dyXAK8TXXlVN3yiVF-89" value="user_id" style="rounded=0;whiteSpace=wrap;html=1;fontSize=18;fillColor=#CCE5FF;strokeColor=#333333;container=0;" parent="OD1dyXAK8TXXlVN3yiVF-86" vertex="1">
          <mxGeometry y="120" width="240" height="40" as="geometry" />
        </mxCell>
        <mxCell id="OD1dyXAK8TXXlVN3yiVF-90" value="club_post_id" style="rounded=0;whiteSpace=wrap;html=1;fontSize=18;fillColor=#CCE5FF;strokeColor=#333333;container=0;" parent="OD1dyXAK8TXXlVN3yiVF-86" vertex="1">
          <mxGeometry y="160" width="240" height="40" as="geometry" />
        </mxCell>
        <mxCell id="OD1dyXAK8TXXlVN3yiVF-91" value="created_at" style="rounded=0;whiteSpace=wrap;html=1;fontSize=18;strokeColor=#333333;container=0;" parent="OD1dyXAK8TXXlVN3yiVF-86" vertex="1">
          <mxGeometry y="240" width="240" height="40" as="geometry" />
        </mxCell>
        <mxCell id="OD1dyXAK8TXXlVN3yiVF-92" value="reason" style="rounded=0;whiteSpace=wrap;html=1;fontSize=18;strokeColor=#333333;container=0;" parent="OD1dyXAK8TXXlVN3yiVF-86" vertex="1">
          <mxGeometry y="200" width="240" height="40" as="geometry" />
        </mxCell>
        <mxCell id="OD1dyXAK8TXXlVN3yiVF-93" value="" style="group" parent="1" vertex="1" connectable="0">
          <mxGeometry x="7480" width="240" height="280" as="geometry" />
        </mxCell>
        <mxCell id="OD1dyXAK8TXXlVN3yiVF-94" value="&lt;div&gt;Club Post&amp;nbsp;&lt;/div&gt;&lt;div&gt;Comment Report&lt;/div&gt;" style="rounded=0;whiteSpace=wrap;html=1;fontSize=18;fontStyle=1;labelBackgroundColor=none;labelBorderColor=none;textShadow=0;fontFamily=Georgia;strokeColor=#333333;fontColor=#FFFFFF;fillColor=#333333;container=0;" parent="OD1dyXAK8TXXlVN3yiVF-93" vertex="1">
          <mxGeometry width="240" height="80" as="geometry" />
        </mxCell>
        <mxCell id="OD1dyXAK8TXXlVN3yiVF-95" value="id" style="rounded=0;whiteSpace=wrap;html=1;fontSize=18;fillColor=#007FFF;fontColor=#FFFFFF;fontStyle=1;strokeColor=#333333;container=0;" parent="OD1dyXAK8TXXlVN3yiVF-93" vertex="1">
          <mxGeometry y="80" width="240" height="40" as="geometry" />
        </mxCell>
        <mxCell id="OD1dyXAK8TXXlVN3yiVF-96" value="user_id" style="rounded=0;whiteSpace=wrap;html=1;fontSize=18;fillColor=#CCE5FF;strokeColor=#333333;container=0;" parent="OD1dyXAK8TXXlVN3yiVF-93" vertex="1">
          <mxGeometry y="120" width="240" height="40" as="geometry" />
        </mxCell>
        <mxCell id="OD1dyXAK8TXXlVN3yiVF-97" value="club_post_comment_id" style="rounded=0;whiteSpace=wrap;html=1;fontSize=18;fillColor=#CCE5FF;strokeColor=#333333;container=0;" parent="OD1dyXAK8TXXlVN3yiVF-93" vertex="1">
          <mxGeometry y="160" width="240" height="40" as="geometry" />
        </mxCell>
        <mxCell id="OD1dyXAK8TXXlVN3yiVF-98" value="created_at" style="rounded=0;whiteSpace=wrap;html=1;fontSize=18;strokeColor=#333333;container=0;" parent="OD1dyXAK8TXXlVN3yiVF-93" vertex="1">
          <mxGeometry y="240" width="240" height="40" as="geometry" />
        </mxCell>
        <mxCell id="OD1dyXAK8TXXlVN3yiVF-99" value="reason" style="rounded=0;whiteSpace=wrap;html=1;fontSize=18;strokeColor=#333333;container=0;" parent="OD1dyXAK8TXXlVN3yiVF-93" vertex="1">
          <mxGeometry y="200" width="240" height="40" as="geometry" />
        </mxCell>
        <mxCell id="OD1dyXAK8TXXlVN3yiVF-100" value="" style="group" parent="1" vertex="1" connectable="0">
          <mxGeometry x="8200" y="2923" width="240" height="280" as="geometry" />
        </mxCell>
        <mxCell id="OD1dyXAK8TXXlVN3yiVF-101" value="&lt;div&gt;&lt;span style=&quot;background-color: transparent; color: light-dark(rgb(255, 255, 255), rgb(18, 18, 18));&quot;&gt;Word Collection&lt;/span&gt;&lt;/div&gt;&lt;div&gt;&lt;span style=&quot;background-color: transparent; color: light-dark(rgb(255, 255, 255), rgb(18, 18, 18));&quot;&gt;Review Report&lt;/span&gt;&lt;/div&gt;" style="rounded=0;whiteSpace=wrap;html=1;fontSize=18;fontStyle=1;labelBackgroundColor=none;labelBorderColor=none;textShadow=0;fontFamily=Georgia;strokeColor=#333333;fontColor=#FFFFFF;fillColor=#333333;container=0;" parent="OD1dyXAK8TXXlVN3yiVF-100" vertex="1">
          <mxGeometry width="240" height="80" as="geometry" />
        </mxCell>
        <mxCell id="OD1dyXAK8TXXlVN3yiVF-102" value="id" style="rounded=0;whiteSpace=wrap;html=1;fontSize=18;fillColor=#007FFF;fontColor=#FFFFFF;fontStyle=1;strokeColor=#333333;container=0;" parent="OD1dyXAK8TXXlVN3yiVF-100" vertex="1">
          <mxGeometry y="80" width="240" height="40" as="geometry" />
        </mxCell>
        <mxCell id="OD1dyXAK8TXXlVN3yiVF-103" value="user_id" style="rounded=0;whiteSpace=wrap;html=1;fontSize=18;fillColor=#CCE5FF;strokeColor=#333333;container=0;" parent="OD1dyXAK8TXXlVN3yiVF-100" vertex="1">
          <mxGeometry y="120" width="240" height="40" as="geometry" />
        </mxCell>
        <mxCell id="OD1dyXAK8TXXlVN3yiVF-104" value="word_collection_review_id" style="rounded=0;whiteSpace=wrap;html=1;fontSize=18;fillColor=#CCE5FF;strokeColor=#333333;container=0;" parent="OD1dyXAK8TXXlVN3yiVF-100" vertex="1">
          <mxGeometry y="160" width="240" height="40" as="geometry" />
        </mxCell>
        <mxCell id="OD1dyXAK8TXXlVN3yiVF-105" value="created_at" style="rounded=0;whiteSpace=wrap;html=1;fontSize=18;strokeColor=#333333;container=0;" parent="OD1dyXAK8TXXlVN3yiVF-100" vertex="1">
          <mxGeometry y="240" width="240" height="40" as="geometry" />
        </mxCell>
        <mxCell id="OD1dyXAK8TXXlVN3yiVF-106" value="reason" style="rounded=0;whiteSpace=wrap;html=1;fontSize=18;strokeColor=#333333;container=0;" parent="OD1dyXAK8TXXlVN3yiVF-100" vertex="1">
          <mxGeometry y="200" width="240" height="40" as="geometry" />
        </mxCell>
        <mxCell id="OD1dyXAK8TXXlVN3yiVF-114" value="" style="group" parent="1" vertex="1" connectable="0">
          <mxGeometry x="7840" y="2840" width="240" height="280" as="geometry" />
        </mxCell>
        <mxCell id="OD1dyXAK8TXXlVN3yiVF-115" value="&lt;div style=&quot;&quot;&gt;News&amp;nbsp;&lt;/div&gt;&lt;div style=&quot;&quot;&gt;Localization&lt;/div&gt;" style="rounded=0;whiteSpace=wrap;html=1;fontSize=18;fontStyle=1;labelBackgroundColor=none;labelBorderColor=none;textShadow=0;fontFamily=Georgia;strokeColor=#333333;fontColor=#FFFFFF;fillColor=#333333;align=center;" parent="OD1dyXAK8TXXlVN3yiVF-114" vertex="1">
          <mxGeometry width="240" height="80" as="geometry" />
        </mxCell>
        <mxCell id="OD1dyXAK8TXXlVN3yiVF-116" value="id" style="rounded=0;whiteSpace=wrap;html=1;fontSize=18;fillColor=#007FFF;fontColor=#FFFFFF;fontStyle=1;strokeColor=#333333;" parent="OD1dyXAK8TXXlVN3yiVF-114" vertex="1">
          <mxGeometry y="80" width="240" height="40" as="geometry" />
        </mxCell>
        <mxCell id="OD1dyXAK8TXXlVN3yiVF-117" value="language_id" style="rounded=0;whiteSpace=wrap;html=1;fontSize=18;fillColor=#CCE5FF;strokeColor=#333333;" parent="OD1dyXAK8TXXlVN3yiVF-114" vertex="1">
          <mxGeometry y="160" width="240" height="40" as="geometry" />
        </mxCell>
        <mxCell id="OD1dyXAK8TXXlVN3yiVF-118" value="content" style="rounded=0;whiteSpace=wrap;html=1;fontSize=18;strokeColor=#333333;" parent="OD1dyXAK8TXXlVN3yiVF-114" vertex="1">
          <mxGeometry y="240" width="240" height="40" as="geometry" />
        </mxCell>
        <mxCell id="OD1dyXAK8TXXlVN3yiVF-119" value="title" style="rounded=0;whiteSpace=wrap;html=1;fontSize=18;strokeColor=#333333;" parent="OD1dyXAK8TXXlVN3yiVF-114" vertex="1">
          <mxGeometry y="200" width="240" height="40" as="geometry" />
        </mxCell>
        <mxCell id="OD1dyXAK8TXXlVN3yiVF-120" value="news_id" style="rounded=0;whiteSpace=wrap;html=1;fontSize=18;fillColor=#CCE5FF;strokeColor=#333333;" parent="OD1dyXAK8TXXlVN3yiVF-114" vertex="1">
          <mxGeometry y="120" width="240" height="40" as="geometry" />
        </mxCell>
        <mxCell id="OD1dyXAK8TXXlVN3yiVF-121" value="" style="group" parent="1" vertex="1" connectable="0">
          <mxGeometry x="7840" y="3160" width="240" height="160" as="geometry" />
        </mxCell>
        <mxCell id="OD1dyXAK8TXXlVN3yiVF-108" value="&lt;div style=&quot;&quot;&gt;News&lt;/div&gt;" style="rounded=0;whiteSpace=wrap;html=1;fontSize=18;fontStyle=1;labelBackgroundColor=none;labelBorderColor=none;textShadow=0;fontFamily=Georgia;strokeColor=#333333;fontColor=#FFFFFF;fillColor=#333333;align=center;" parent="OD1dyXAK8TXXlVN3yiVF-121" vertex="1">
          <mxGeometry width="240" height="80" as="geometry" />
        </mxCell>
        <mxCell id="OD1dyXAK8TXXlVN3yiVF-109" value="id" style="rounded=0;whiteSpace=wrap;html=1;fontSize=18;fillColor=#007FFF;fontColor=#FFFFFF;fontStyle=1;strokeColor=#333333;" parent="OD1dyXAK8TXXlVN3yiVF-121" vertex="1">
          <mxGeometry y="80" width="240" height="40" as="geometry" />
        </mxCell>
        <mxCell id="OD1dyXAK8TXXlVN3yiVF-111" value="created_at" style="rounded=0;whiteSpace=wrap;html=1;fontSize=18;strokeColor=#333333;" parent="OD1dyXAK8TXXlVN3yiVF-121" vertex="1">
          <mxGeometry y="120" width="240" height="40" as="geometry" />
        </mxCell>
        <mxCell id="OD1dyXAK8TXXlVN3yiVF-130" value="" style="group" parent="1" vertex="1" connectable="0">
          <mxGeometry x="8200" y="2600" width="240" height="280" as="geometry" />
        </mxCell>
        <mxCell id="OD1dyXAK8TXXlVN3yiVF-123" value="&lt;div style=&quot;&quot;&gt;News&amp;nbsp;&lt;/div&gt;&lt;div style=&quot;&quot;&gt;Reaction&lt;/div&gt;" style="rounded=0;whiteSpace=wrap;html=1;fontSize=18;fontStyle=1;labelBackgroundColor=none;labelBorderColor=none;textShadow=0;fontFamily=Georgia;strokeColor=#333333;fontColor=#FFFFFF;fillColor=#333333;align=center;" parent="OD1dyXAK8TXXlVN3yiVF-130" vertex="1">
          <mxGeometry width="240" height="80" as="geometry" />
        </mxCell>
        <mxCell id="OD1dyXAK8TXXlVN3yiVF-124" value="id" style="rounded=0;whiteSpace=wrap;html=1;fontSize=18;fillColor=#007FFF;fontColor=#FFFFFF;fontStyle=1;strokeColor=#333333;" parent="OD1dyXAK8TXXlVN3yiVF-130" vertex="1">
          <mxGeometry y="80" width="240" height="40" as="geometry" />
        </mxCell>
        <mxCell id="OD1dyXAK8TXXlVN3yiVF-126" value="created_at" style="rounded=0;whiteSpace=wrap;html=1;fontSize=18;strokeColor=#333333;" parent="OD1dyXAK8TXXlVN3yiVF-130" vertex="1">
          <mxGeometry y="240" width="240" height="40" as="geometry" />
        </mxCell>
        <mxCell id="OD1dyXAK8TXXlVN3yiVF-127" value="isLiked" style="rounded=0;whiteSpace=wrap;html=1;fontSize=18;strokeColor=#333333;" parent="OD1dyXAK8TXXlVN3yiVF-130" vertex="1">
          <mxGeometry y="200" width="240" height="40" as="geometry" />
        </mxCell>
        <mxCell id="OD1dyXAK8TXXlVN3yiVF-128" value="news_id" style="rounded=0;whiteSpace=wrap;html=1;fontSize=18;fillColor=#CCE5FF;strokeColor=#333333;" parent="OD1dyXAK8TXXlVN3yiVF-130" vertex="1">
          <mxGeometry y="120" width="240" height="40" as="geometry" />
        </mxCell>
        <mxCell id="OD1dyXAK8TXXlVN3yiVF-129" value="user_id" style="rounded=0;whiteSpace=wrap;html=1;fontSize=18;fillColor=#CCE5FF;strokeColor=#333333;" parent="OD1dyXAK8TXXlVN3yiVF-130" vertex="1">
          <mxGeometry y="160" width="240" height="40" as="geometry" />
        </mxCell>
        <mxCell id="OD1dyXAK8TXXlVN3yiVF-134" style="edgeStyle=orthogonalEdgeStyle;rounded=0;orthogonalLoop=1;jettySize=auto;html=1;entryX=0;entryY=0.5;entryDx=0;entryDy=0;" parent="1" source="oIxDtNnSTY3G4xufg-7Y-46" target="rpK_ltsw-eI4_GqJZtfN-36" edge="1">
          <mxGeometry relative="1" as="geometry">
            <Array as="points">
              <mxPoint x="7000" y="420" />
              <mxPoint x="7000" y="1340" />
            </Array>
          </mxGeometry>
        </mxCell>
        <mxCell id="OD1dyXAK8TXXlVN3yiVF-135" style="edgeStyle=orthogonalEdgeStyle;rounded=0;orthogonalLoop=1;jettySize=auto;html=1;entryX=0;entryY=0.5;entryDx=0;entryDy=0;" parent="1" source="oIxDtNnSTY3G4xufg-7Y-37" target="rpK_ltsw-eI4_GqJZtfN-29" edge="1">
          <mxGeometry relative="1" as="geometry">
            <Array as="points">
              <mxPoint x="7040" y="580" />
              <mxPoint x="7040" y="820" />
            </Array>
          </mxGeometry>
        </mxCell>
        <mxCell id="OD1dyXAK8TXXlVN3yiVF-136" style="edgeStyle=orthogonalEdgeStyle;rounded=0;orthogonalLoop=1;jettySize=auto;html=1;entryX=0;entryY=0.5;entryDx=0;entryDy=0;" parent="1" source="oIxDtNnSTY3G4xufg-7Y-46" target="oIxDtNnSTY3G4xufg-7Y-43" edge="1">
          <mxGeometry relative="1" as="geometry">
            <Array as="points">
              <mxPoint x="7000" y="420" />
              <mxPoint x="7000" y="1100" />
            </Array>
          </mxGeometry>
        </mxCell>
        <mxCell id="OD1dyXAK8TXXlVN3yiVF-137" style="edgeStyle=orthogonalEdgeStyle;rounded=0;orthogonalLoop=1;jettySize=auto;html=1;entryX=0;entryY=0.5;entryDx=0;entryDy=0;" parent="1" source="oIxDtNnSTY3G4xufg-7Y-37" target="oIxDtNnSTY3G4xufg-7Y-42" edge="1">
          <mxGeometry relative="1" as="geometry">
            <Array as="points">
              <mxPoint x="7040" y="580" />
              <mxPoint x="7040" y="1060" />
            </Array>
          </mxGeometry>
        </mxCell>
        <mxCell id="OD1dyXAK8TXXlVN3yiVF-138" style="edgeStyle=orthogonalEdgeStyle;rounded=0;orthogonalLoop=1;jettySize=auto;html=1;entryX=1;entryY=0.5;entryDx=0;entryDy=0;" parent="1" source="rpK_ltsw-eI4_GqJZtfN-14" target="rpK_ltsw-eI4_GqJZtfN-30" edge="1">
          <mxGeometry relative="1" as="geometry">
            <Array as="points">
              <mxPoint x="7440" y="740" />
              <mxPoint x="7440" y="860" />
            </Array>
          </mxGeometry>
        </mxCell>
        <mxCell id="OD1dyXAK8TXXlVN3yiVF-139" style="edgeStyle=orthogonalEdgeStyle;rounded=0;orthogonalLoop=1;jettySize=auto;html=1;entryX=1;entryY=0.5;entryDx=0;entryDy=0;" parent="1" source="rpK_ltsw-eI4_GqJZtfN-14" target="rpK_ltsw-eI4_GqJZtfN-37" edge="1">
          <mxGeometry relative="1" as="geometry">
            <Array as="points">
              <mxPoint x="7440" y="740" />
              <mxPoint x="7440" y="1380" />
            </Array>
          </mxGeometry>
        </mxCell>
        <mxCell id="OD1dyXAK8TXXlVN3yiVF-142" style="edgeStyle=orthogonalEdgeStyle;rounded=0;orthogonalLoop=1;jettySize=auto;html=1;entryX=1;entryY=0.5;entryDx=0;entryDy=0;" parent="1" source="rpK_ltsw-eI4_GqJZtfN-14" target="rpK_ltsw-eI4_GqJZtfN-5" edge="1">
          <mxGeometry relative="1" as="geometry">
            <Array as="points">
              <mxPoint x="7440" y="740" />
              <mxPoint x="7440" y="1700" />
            </Array>
          </mxGeometry>
        </mxCell>
        <mxCell id="OD1dyXAK8TXXlVN3yiVF-143" style="edgeStyle=orthogonalEdgeStyle;rounded=0;orthogonalLoop=1;jettySize=auto;html=1;entryX=1;entryY=0.5;entryDx=0;entryDy=0;" parent="1" source="rpK_ltsw-eI4_GqJZtfN-14" target="rpK_ltsw-eI4_GqJZtfN-22" edge="1">
          <mxGeometry relative="1" as="geometry">
            <Array as="points">
              <mxPoint x="7440" y="740" />
              <mxPoint x="7440" y="2020" />
            </Array>
          </mxGeometry>
        </mxCell>
        <mxCell id="OD1dyXAK8TXXlVN3yiVF-144" style="edgeStyle=orthogonalEdgeStyle;rounded=0;orthogonalLoop=1;jettySize=auto;html=1;entryX=0;entryY=0.5;entryDx=0;entryDy=0;" parent="1" source="oIxDtNnSTY3G4xufg-7Y-41" target="rpK_ltsw-eI4_GqJZtfN-4" edge="1">
          <mxGeometry relative="1" as="geometry">
            <Array as="points">
              <mxPoint x="7080" y="1020" />
              <mxPoint x="7080" y="1660" />
            </Array>
          </mxGeometry>
        </mxCell>
        <mxCell id="OD1dyXAK8TXXlVN3yiVF-145" style="edgeStyle=orthogonalEdgeStyle;rounded=0;orthogonalLoop=1;jettySize=auto;html=1;entryX=0;entryY=0.5;entryDx=0;entryDy=0;" parent="1" source="oIxDtNnSTY3G4xufg-7Y-41" target="oIxDtNnSTY3G4xufg-7Y-71" edge="1">
          <mxGeometry relative="1" as="geometry">
            <Array as="points">
              <mxPoint x="7080" y="1020" />
              <mxPoint x="7080" y="1980" />
            </Array>
          </mxGeometry>
        </mxCell>
        <mxCell id="OD1dyXAK8TXXlVN3yiVF-146" style="edgeStyle=orthogonalEdgeStyle;rounded=0;orthogonalLoop=1;jettySize=auto;html=1;entryX=0;entryY=0.5;entryDx=0;entryDy=0;" parent="1" source="oIxDtNnSTY3G4xufg-7Y-70" target="Wtt4kRsRGppH-S65klmJ-8" edge="1">
          <mxGeometry relative="1" as="geometry">
            <Array as="points">
              <mxPoint x="7400" y="1860" />
              <mxPoint x="7400" y="1060" />
            </Array>
          </mxGeometry>
        </mxCell>
        <mxCell id="OD1dyXAK8TXXlVN3yiVF-147" style="edgeStyle=orthogonalEdgeStyle;rounded=0;orthogonalLoop=1;jettySize=auto;html=1;entryX=0;entryY=0.5;entryDx=0;entryDy=0;" parent="1" source="oIxDtNnSTY3G4xufg-7Y-70" target="UyzyMVhvTb4iBXymAUSp-9" edge="1">
          <mxGeometry relative="1" as="geometry">
            <Array as="points">
              <mxPoint x="7400" y="1860" />
              <mxPoint x="7400" y="1420" />
            </Array>
          </mxGeometry>
        </mxCell>
        <mxCell id="OD1dyXAK8TXXlVN3yiVF-148" style="edgeStyle=orthogonalEdgeStyle;rounded=0;orthogonalLoop=1;jettySize=auto;html=1;entryX=0;entryY=0.5;entryDx=0;entryDy=0;" parent="1" source="oIxDtNnSTY3G4xufg-7Y-70" target="UyzyMVhvTb4iBXymAUSp-12" edge="1">
          <mxGeometry relative="1" as="geometry">
            <Array as="points">
              <mxPoint x="7400" y="1860" />
              <mxPoint x="7400" y="1700" />
            </Array>
          </mxGeometry>
        </mxCell>
        <mxCell id="OD1dyXAK8TXXlVN3yiVF-149" style="edgeStyle=orthogonalEdgeStyle;rounded=0;orthogonalLoop=1;jettySize=auto;html=1;entryX=0;entryY=0.5;entryDx=0;entryDy=0;" parent="1" source="oIxDtNnSTY3G4xufg-7Y-70" target="UyzyMVhvTb4iBXymAUSp-10" edge="1">
          <mxGeometry relative="1" as="geometry">
            <Array as="points">
              <mxPoint x="7400" y="1860" />
              <mxPoint x="7400" y="1940" />
            </Array>
          </mxGeometry>
        </mxCell>
        <mxCell id="OD1dyXAK8TXXlVN3yiVF-150" style="edgeStyle=orthogonalEdgeStyle;rounded=0;orthogonalLoop=1;jettySize=auto;html=1;entryX=0;entryY=0.5;entryDx=0;entryDy=0;" parent="1" source="oIxDtNnSTY3G4xufg-7Y-70" target="OD1dyXAK8TXXlVN3yiVF-9" edge="1">
          <mxGeometry relative="1" as="geometry">
            <Array as="points">
              <mxPoint x="7400" y="1860" />
              <mxPoint x="7400" y="2340" />
            </Array>
          </mxGeometry>
        </mxCell>
        <mxCell id="OD1dyXAK8TXXlVN3yiVF-151" style="edgeStyle=orthogonalEdgeStyle;rounded=0;orthogonalLoop=1;jettySize=auto;html=1;entryX=0;entryY=0.5;entryDx=0;entryDy=0;" parent="1" source="oIxDtNnSTY3G4xufg-7Y-70" target="rpK_ltsw-eI4_GqJZtfN-11" edge="1">
          <mxGeometry relative="1" as="geometry">
            <Array as="points">
              <mxPoint x="7400" y="1860" />
              <mxPoint x="7400" y="2700" />
            </Array>
          </mxGeometry>
        </mxCell>
        <mxCell id="OD1dyXAK8TXXlVN3yiVF-152" style="edgeStyle=orthogonalEdgeStyle;rounded=0;orthogonalLoop=1;jettySize=auto;html=1;entryX=0;entryY=0.5;entryDx=0;entryDy=0;" parent="1" source="oIxDtNnSTY3G4xufg-7Y-70" target="rpK_ltsw-eI4_GqJZtfN-12" edge="1">
          <mxGeometry relative="1" as="geometry">
            <Array as="points">
              <mxPoint x="7400" y="1860" />
              <mxPoint x="7400" y="3700" />
            </Array>
          </mxGeometry>
        </mxCell>
        <mxCell id="OD1dyXAK8TXXlVN3yiVF-153" style="edgeStyle=orthogonalEdgeStyle;rounded=0;orthogonalLoop=1;jettySize=auto;html=1;entryX=0;entryY=0.5;entryDx=0;entryDy=0;" parent="1" source="oIxDtNnSTY3G4xufg-7Y-70" target="UyzyMVhvTb4iBXymAUSp-6" edge="1">
          <mxGeometry relative="1" as="geometry">
            <Array as="points">
              <mxPoint x="7400" y="1860" />
              <mxPoint x="7400" y="2980" />
            </Array>
          </mxGeometry>
        </mxCell>
        <mxCell id="OD1dyXAK8TXXlVN3yiVF-155" style="edgeStyle=orthogonalEdgeStyle;rounded=0;orthogonalLoop=1;jettySize=auto;html=1;entryX=0;entryY=0.5;entryDx=0;entryDy=0;" parent="1" source="rpK_ltsw-eI4_GqJZtfN-14" target="Wtt4kRsRGppH-S65klmJ-17" edge="1">
          <mxGeometry relative="1" as="geometry">
            <Array as="points">
              <mxPoint x="7760" y="740" />
              <mxPoint x="7760" y="900" />
            </Array>
          </mxGeometry>
        </mxCell>
        <mxCell id="OD1dyXAK8TXXlVN3yiVF-156" style="edgeStyle=orthogonalEdgeStyle;rounded=0;orthogonalLoop=1;jettySize=auto;html=1;entryX=0;entryY=0.5;entryDx=0;entryDy=0;" parent="1" source="oIxDtNnSTY3G4xufg-7Y-70" target="UyzyMVhvTb4iBXymAUSp-11" edge="1">
          <mxGeometry relative="1" as="geometry">
            <Array as="points">
              <mxPoint x="7400" y="1860" />
              <mxPoint x="7400" y="3220" />
            </Array>
          </mxGeometry>
        </mxCell>
        <mxCell id="OD1dyXAK8TXXlVN3yiVF-158" style="edgeStyle=orthogonalEdgeStyle;rounded=0;orthogonalLoop=1;jettySize=auto;html=1;entryX=0;entryY=0.5;entryDx=0;entryDy=0;" parent="1" source="UyzyMVhvTb4iBXymAUSp-5" target="UyzyMVhvTb4iBXymAUSp-18" edge="1">
          <mxGeometry relative="1" as="geometry">
            <Array as="points">
              <mxPoint x="7440" y="2940" />
              <mxPoint x="7440" y="3420" />
            </Array>
          </mxGeometry>
        </mxCell>
        <mxCell id="OD1dyXAK8TXXlVN3yiVF-159" style="edgeStyle=orthogonalEdgeStyle;rounded=0;orthogonalLoop=1;jettySize=auto;html=1;entryX=0;entryY=0.5;entryDx=0;entryDy=0;" parent="1" source="oIxDtNnSTY3G4xufg-7Y-41" target="UyzyMVhvTb4iBXymAUSp-24" edge="1">
          <mxGeometry relative="1" as="geometry" />
        </mxCell>
        <mxCell id="OD1dyXAK8TXXlVN3yiVF-163" style="edgeStyle=orthogonalEdgeStyle;rounded=0;orthogonalLoop=1;jettySize=auto;html=1;entryX=1;entryY=0.5;entryDx=0;entryDy=0;" parent="1" source="oIxDtNnSTY3G4xufg-7Y-3" target="Wtt4kRsRGppH-S65klmJ-9" edge="1">
          <mxGeometry relative="1" as="geometry">
            <Array as="points">
              <mxPoint x="7800" y="740" />
              <mxPoint x="7800" y="1100" />
            </Array>
          </mxGeometry>
        </mxCell>
        <mxCell id="OD1dyXAK8TXXlVN3yiVF-164" style="edgeStyle=orthogonalEdgeStyle;rounded=0;orthogonalLoop=1;jettySize=auto;html=1;entryX=1;entryY=0.5;entryDx=0;entryDy=0;" parent="1" source="oIxDtNnSTY3G4xufg-7Y-3" target="oIxDtNnSTY3G4xufg-7Y-66" edge="1">
          <mxGeometry relative="1" as="geometry">
            <Array as="points">
              <mxPoint x="7800" y="740" />
              <mxPoint x="7800" y="1380" />
            </Array>
          </mxGeometry>
        </mxCell>
        <mxCell id="OD1dyXAK8TXXlVN3yiVF-165" style="edgeStyle=orthogonalEdgeStyle;rounded=0;orthogonalLoop=1;jettySize=auto;html=1;entryX=1;entryY=0.5;entryDx=0;entryDy=0;" parent="1" source="oIxDtNnSTY3G4xufg-7Y-3" target="oIxDtNnSTY3G4xufg-7Y-10" edge="1">
          <mxGeometry relative="1" as="geometry">
            <Array as="points">
              <mxPoint x="7800" y="740" />
              <mxPoint x="7800" y="1660" />
            </Array>
          </mxGeometry>
        </mxCell>
        <mxCell id="OD1dyXAK8TXXlVN3yiVF-166" style="edgeStyle=orthogonalEdgeStyle;rounded=0;orthogonalLoop=1;jettySize=auto;html=1;entryX=1;entryY=0.5;entryDx=0;entryDy=0;" parent="1" source="oIxDtNnSTY3G4xufg-7Y-3" target="oIxDtNnSTY3G4xufg-7Y-138" edge="1">
          <mxGeometry relative="1" as="geometry">
            <Array as="points">
              <mxPoint x="7800" y="740" />
              <mxPoint x="7800" y="1980" />
            </Array>
          </mxGeometry>
        </mxCell>
        <mxCell id="OD1dyXAK8TXXlVN3yiVF-167" style="edgeStyle=orthogonalEdgeStyle;rounded=0;orthogonalLoop=1;jettySize=auto;html=1;entryX=1;entryY=0.5;entryDx=0;entryDy=0;" parent="1" source="oIxDtNnSTY3G4xufg-7Y-3" target="OD1dyXAK8TXXlVN3yiVF-8" edge="1">
          <mxGeometry relative="1" as="geometry">
            <Array as="points">
              <mxPoint x="7800" y="740" />
              <mxPoint x="7800" y="2300" />
            </Array>
          </mxGeometry>
        </mxCell>
        <mxCell id="OD1dyXAK8TXXlVN3yiVF-168" style="edgeStyle=orthogonalEdgeStyle;rounded=0;orthogonalLoop=1;jettySize=auto;html=1;entryX=1;entryY=0.5;entryDx=0;entryDy=0;" parent="1" source="oIxDtNnSTY3G4xufg-7Y-3" target="oIxDtNnSTY3G4xufg-7Y-104" edge="1">
          <mxGeometry relative="1" as="geometry">
            <Array as="points">
              <mxPoint x="7800" y="740" />
              <mxPoint x="7800" y="2620" />
            </Array>
          </mxGeometry>
        </mxCell>
        <mxCell id="OD1dyXAK8TXXlVN3yiVF-169" style="edgeStyle=orthogonalEdgeStyle;rounded=0;orthogonalLoop=1;jettySize=auto;html=1;entryX=1;entryY=0.5;entryDx=0;entryDy=0;" parent="1" source="oIxDtNnSTY3G4xufg-7Y-53" target="oIxDtNnSTY3G4xufg-7Y-34" edge="1">
          <mxGeometry relative="1" as="geometry" />
        </mxCell>
        <mxCell id="OD1dyXAK8TXXlVN3yiVF-171" style="edgeStyle=orthogonalEdgeStyle;rounded=0;orthogonalLoop=1;jettySize=auto;html=1;entryX=0;entryY=0.5;entryDx=0;entryDy=0;" parent="1" source="oIxDtNnSTY3G4xufg-7Y-3" target="oIxDtNnSTY3G4xufg-7Y-56" edge="1">
          <mxGeometry relative="1" as="geometry">
            <Array as="points">
              <mxPoint x="7800" y="740" />
              <mxPoint x="7800" y="3500" />
            </Array>
          </mxGeometry>
        </mxCell>
        <mxCell id="OD1dyXAK8TXXlVN3yiVF-172" style="edgeStyle=orthogonalEdgeStyle;rounded=0;orthogonalLoop=1;jettySize=auto;html=1;entryX=0;entryY=0.5;entryDx=0;entryDy=0;" parent="1" source="rpK_ltsw-eI4_GqJZtfN-14" target="rpK_ltsw-eI4_GqJZtfN-50" edge="1">
          <mxGeometry relative="1" as="geometry">
            <Array as="points">
              <mxPoint x="7760" y="740" />
              <mxPoint x="7760" y="3540" />
            </Array>
          </mxGeometry>
        </mxCell>
        <mxCell id="OD1dyXAK8TXXlVN3yiVF-174" style="edgeStyle=orthogonalEdgeStyle;rounded=0;orthogonalLoop=1;jettySize=auto;html=1;entryX=0;entryY=0.5;entryDx=0;entryDy=0;" parent="1" source="oIxDtNnSTY3G4xufg-7Y-3" target="oIxDtNnSTY3G4xufg-7Y-152" edge="1">
          <mxGeometry relative="1" as="geometry">
            <Array as="points">
              <mxPoint x="7800" y="740" />
              <mxPoint x="7800" y="1100" />
            </Array>
          </mxGeometry>
        </mxCell>
        <mxCell id="OD1dyXAK8TXXlVN3yiVF-175" style="edgeStyle=orthogonalEdgeStyle;rounded=0;orthogonalLoop=1;jettySize=auto;html=1;entryX=0;entryY=0.5;entryDx=0;entryDy=0;" parent="1" source="rpK_ltsw-eI4_GqJZtfN-14" target="rpK_ltsw-eI4_GqJZtfN-47" edge="1">
          <mxGeometry relative="1" as="geometry">
            <Array as="points">
              <mxPoint x="7760" y="740" />
              <mxPoint x="7760" y="1140" />
            </Array>
          </mxGeometry>
        </mxCell>
        <mxCell id="OD1dyXAK8TXXlVN3yiVF-176" style="edgeStyle=orthogonalEdgeStyle;rounded=0;orthogonalLoop=1;jettySize=auto;html=1;entryX=0;entryY=0.5;entryDx=0;entryDy=0;" parent="1" source="rpK_ltsw-eI4_GqJZtfN-14" target="OD1dyXAK8TXXlVN3yiVF-18" edge="1">
          <mxGeometry relative="1" as="geometry">
            <Array as="points">
              <mxPoint x="7760" y="740" />
              <mxPoint x="7760" y="1540" />
            </Array>
          </mxGeometry>
        </mxCell>
        <mxCell id="OD1dyXAK8TXXlVN3yiVF-177" style="edgeStyle=orthogonalEdgeStyle;rounded=0;orthogonalLoop=1;jettySize=auto;html=1;entryX=0;entryY=0.5;entryDx=0;entryDy=0;" parent="1" source="oIxDtNnSTY3G4xufg-7Y-3" target="OD1dyXAK8TXXlVN3yiVF-17" edge="1">
          <mxGeometry relative="1" as="geometry">
            <Array as="points">
              <mxPoint x="7800" y="740" />
              <mxPoint x="7800" y="1500" />
            </Array>
          </mxGeometry>
        </mxCell>
        <mxCell id="OD1dyXAK8TXXlVN3yiVF-178" style="edgeStyle=orthogonalEdgeStyle;rounded=0;orthogonalLoop=1;jettySize=auto;html=1;entryX=0;entryY=0.5;entryDx=0;entryDy=0;" parent="1" source="rpK_ltsw-eI4_GqJZtfN-14" target="rpK_ltsw-eI4_GqJZtfN-58" edge="1">
          <mxGeometry relative="1" as="geometry">
            <Array as="points">
              <mxPoint x="7760" y="740" />
              <mxPoint x="7760" y="1900" />
            </Array>
          </mxGeometry>
        </mxCell>
        <mxCell id="OD1dyXAK8TXXlVN3yiVF-179" style="edgeStyle=orthogonalEdgeStyle;rounded=0;orthogonalLoop=1;jettySize=auto;html=1;entryX=0;entryY=0.5;entryDx=0;entryDy=0;" parent="1" source="rpK_ltsw-eI4_GqJZtfN-14" target="rpK_ltsw-eI4_GqJZtfN-46" edge="1">
          <mxGeometry relative="1" as="geometry">
            <Array as="points">
              <mxPoint x="7760" y="740" />
              <mxPoint x="7760" y="2460" />
            </Array>
          </mxGeometry>
        </mxCell>
        <mxCell id="OD1dyXAK8TXXlVN3yiVF-180" style="edgeStyle=orthogonalEdgeStyle;rounded=0;orthogonalLoop=1;jettySize=auto;html=1;entryX=0;entryY=0.5;entryDx=0;entryDy=0;" parent="1" source="rpK_ltsw-eI4_GqJZtfN-14" target="OD1dyXAK8TXXlVN3yiVF-117" edge="1">
          <mxGeometry relative="1" as="geometry">
            <Array as="points">
              <mxPoint x="7760" y="740" />
              <mxPoint x="7760" y="3020" />
            </Array>
          </mxGeometry>
        </mxCell>
        <mxCell id="OD1dyXAK8TXXlVN3yiVF-182" style="edgeStyle=orthogonalEdgeStyle;rounded=0;orthogonalLoop=1;jettySize=auto;html=1;entryX=1;entryY=0.5;entryDx=0;entryDy=0;" parent="1" source="oIxDtNnSTY3G4xufg-7Y-23" target="oIxDtNnSTY3G4xufg-7Y-21" edge="1">
          <mxGeometry relative="1" as="geometry">
            <Array as="points">
              <mxPoint x="7760" y="4143" />
              <mxPoint x="7760" y="3740" />
            </Array>
          </mxGeometry>
        </mxCell>
        <mxCell id="OD1dyXAK8TXXlVN3yiVF-183" style="edgeStyle=orthogonalEdgeStyle;rounded=0;orthogonalLoop=1;jettySize=auto;html=1;entryX=0;entryY=0.5;entryDx=0;entryDy=0;" parent="1" source="oIxDtNnSTY3G4xufg-7Y-3" target="oIxDtNnSTY3G4xufg-7Y-15" edge="1">
          <mxGeometry relative="1" as="geometry">
            <Array as="points">
              <mxPoint x="7800" y="740" />
              <mxPoint x="7800" y="3940" />
            </Array>
          </mxGeometry>
        </mxCell>
        <mxCell id="OD1dyXAK8TXXlVN3yiVF-185" style="edgeStyle=orthogonalEdgeStyle;rounded=0;orthogonalLoop=1;jettySize=auto;html=1;entryX=1;entryY=0.5;entryDx=0;entryDy=0;" parent="1" source="oIxDtNnSTY3G4xufg-7Y-53" target="oIxDtNnSTY3G4xufg-7Y-117" edge="1">
          <mxGeometry relative="1" as="geometry" />
        </mxCell>
        <mxCell id="OD1dyXAK8TXXlVN3yiVF-186" style="edgeStyle=orthogonalEdgeStyle;rounded=0;orthogonalLoop=1;jettySize=auto;html=1;entryX=0;entryY=0.25;entryDx=0;entryDy=0;" parent="1" source="oIxDtNnSTY3G4xufg-7Y-23" target="oIxDtNnSTY3G4xufg-7Y-16" edge="1">
          <mxGeometry relative="1" as="geometry">
            <Array as="points">
              <mxPoint x="7760" y="4143" />
              <mxPoint x="7760" y="3970" />
            </Array>
          </mxGeometry>
        </mxCell>
        <mxCell id="OD1dyXAK8TXXlVN3yiVF-187" style="edgeStyle=orthogonalEdgeStyle;rounded=0;orthogonalLoop=1;jettySize=auto;html=1;entryX=1;entryY=0.5;entryDx=0;entryDy=0;" parent="1" source="oIxDtNnSTY3G4xufg-7Y-159" target="rpK_ltsw-eI4_GqJZtfN-57" edge="1">
          <mxGeometry relative="1" as="geometry">
            <Array as="points">
              <mxPoint x="8120" y="2140" />
              <mxPoint x="8120" y="1860" />
            </Array>
          </mxGeometry>
        </mxCell>
        <mxCell id="OD1dyXAK8TXXlVN3yiVF-188" style="edgeStyle=orthogonalEdgeStyle;rounded=0;orthogonalLoop=1;jettySize=auto;html=1;entryX=1;entryY=0.5;entryDx=0;entryDy=0;" parent="1" source="oIxDtNnSTY3G4xufg-7Y-96" target="rpK_ltsw-eI4_GqJZtfN-45" edge="1">
          <mxGeometry relative="1" as="geometry">
            <Array as="points">
              <mxPoint x="8120" y="2700" />
              <mxPoint x="8120" y="2420" />
            </Array>
          </mxGeometry>
        </mxCell>
        <mxCell id="OD1dyXAK8TXXlVN3yiVF-189" style="edgeStyle=orthogonalEdgeStyle;rounded=0;orthogonalLoop=1;jettySize=auto;html=1;entryX=1;entryY=0.5;entryDx=0;entryDy=0;" parent="1" source="OD1dyXAK8TXXlVN3yiVF-109" target="OD1dyXAK8TXXlVN3yiVF-120" edge="1">
          <mxGeometry relative="1" as="geometry">
            <Array as="points">
              <mxPoint x="8120" y="3260" />
              <mxPoint x="8120" y="2980" />
            </Array>
          </mxGeometry>
        </mxCell>
        <mxCell id="OD1dyXAK8TXXlVN3yiVF-192" style="edgeStyle=orthogonalEdgeStyle;rounded=0;orthogonalLoop=1;jettySize=auto;html=1;entryX=1;entryY=0.5;entryDx=0;entryDy=0;" parent="1" source="oIxDtNnSTY3G4xufg-7Y-121" target="OD1dyXAK8TXXlVN3yiVF-104" edge="1">
          <mxGeometry relative="1" as="geometry">
            <Array as="points">
              <mxPoint x="8480" y="3340" />
              <mxPoint x="8480" y="3103" />
            </Array>
          </mxGeometry>
        </mxCell>
        <mxCell id="OD1dyXAK8TXXlVN3yiVF-193" style="edgeStyle=orthogonalEdgeStyle;rounded=0;orthogonalLoop=1;jettySize=auto;html=1;entryX=0;entryY=0.5;entryDx=0;entryDy=0;" parent="1" source="oIxDtNnSTY3G4xufg-7Y-159" target="oIxDtNnSTY3G4xufg-7Y-171" edge="1">
          <mxGeometry relative="1" as="geometry">
            <Array as="points">
              <mxPoint x="8120" y="2140" />
              <mxPoint x="8120" y="2220" />
            </Array>
          </mxGeometry>
        </mxCell>
        <mxCell id="OD1dyXAK8TXXlVN3yiVF-194" style="edgeStyle=orthogonalEdgeStyle;rounded=0;orthogonalLoop=1;jettySize=auto;html=1;entryX=0;entryY=0.5;entryDx=0;entryDy=0;" parent="1" source="oIxDtNnSTY3G4xufg-7Y-96" target="oIxDtNnSTY3G4xufg-7Y-114" edge="1">
          <mxGeometry relative="1" as="geometry">
            <Array as="points">
              <mxPoint x="8120" y="2700" />
              <mxPoint x="8120" y="2500" />
            </Array>
          </mxGeometry>
        </mxCell>
        <mxCell id="OD1dyXAK8TXXlVN3yiVF-195" style="edgeStyle=orthogonalEdgeStyle;rounded=0;orthogonalLoop=1;jettySize=auto;html=1;entryX=0;entryY=0.5;entryDx=0;entryDy=0;" parent="1" source="OD1dyXAK8TXXlVN3yiVF-109" target="OD1dyXAK8TXXlVN3yiVF-128" edge="1">
          <mxGeometry relative="1" as="geometry">
            <Array as="points">
              <mxPoint x="8120" y="3260" />
              <mxPoint x="8120" y="2740" />
            </Array>
          </mxGeometry>
        </mxCell>
        <mxCell id="OD1dyXAK8TXXlVN3yiVF-196" style="edgeStyle=orthogonalEdgeStyle;rounded=0;orthogonalLoop=1;jettySize=auto;html=1;" parent="1" source="oIxDtNnSTY3G4xufg-7Y-53" target="oIxDtNnSTY3G4xufg-7Y-123" edge="1">
          <mxGeometry relative="1" as="geometry" />
        </mxCell>
        <mxCell id="OD1dyXAK8TXXlVN3yiVF-197" style="edgeStyle=orthogonalEdgeStyle;rounded=0;orthogonalLoop=1;jettySize=auto;html=1;entryX=0;entryY=0.5;entryDx=0;entryDy=0;" parent="1" source="oIxDtNnSTY3G4xufg-7Y-53" target="oIxDtNnSTY3G4xufg-7Y-30" edge="1">
          <mxGeometry relative="1" as="geometry" />
        </mxCell>
        <mxCell id="OD1dyXAK8TXXlVN3yiVF-198" style="edgeStyle=orthogonalEdgeStyle;rounded=0;orthogonalLoop=1;jettySize=auto;html=1;entryX=0;entryY=0.5;entryDx=0;entryDy=0;" parent="1" source="oIxDtNnSTY3G4xufg-7Y-53" target="OD1dyXAK8TXXlVN3yiVF-74" edge="1">
          <mxGeometry relative="1" as="geometry" />
        </mxCell>
        <mxCell id="OD1dyXAK8TXXlVN3yiVF-199" style="edgeStyle=orthogonalEdgeStyle;rounded=0;orthogonalLoop=1;jettySize=auto;html=1;entryX=0;entryY=0.5;entryDx=0;entryDy=0;" parent="1" source="oIxDtNnSTY3G4xufg-7Y-3" target="oIxDtNnSTY3G4xufg-7Y-170" edge="1">
          <mxGeometry relative="1" as="geometry">
            <Array as="points">
              <mxPoint x="8160" y="740" />
              <mxPoint x="8160" y="2180" />
            </Array>
          </mxGeometry>
        </mxCell>
        <mxCell id="OD1dyXAK8TXXlVN3yiVF-200" style="edgeStyle=orthogonalEdgeStyle;rounded=0;orthogonalLoop=1;jettySize=auto;html=1;entryX=0;entryY=0.5;entryDx=0;entryDy=0;" parent="1" source="oIxDtNnSTY3G4xufg-7Y-3" target="oIxDtNnSTY3G4xufg-7Y-113" edge="1">
          <mxGeometry relative="1" as="geometry">
            <Array as="points">
              <mxPoint x="8160" y="740" />
              <mxPoint x="8160" y="2460" />
            </Array>
          </mxGeometry>
        </mxCell>
        <mxCell id="OD1dyXAK8TXXlVN3yiVF-201" style="edgeStyle=orthogonalEdgeStyle;rounded=0;orthogonalLoop=1;jettySize=auto;html=1;entryX=0;entryY=0.5;entryDx=0;entryDy=0;" parent="1" source="oIxDtNnSTY3G4xufg-7Y-3" target="OD1dyXAK8TXXlVN3yiVF-129" edge="1">
          <mxGeometry relative="1" as="geometry">
            <Array as="points">
              <mxPoint x="8160" y="740" />
              <mxPoint x="8160" y="2780" />
            </Array>
          </mxGeometry>
        </mxCell>
        <mxCell id="OD1dyXAK8TXXlVN3yiVF-202" style="edgeStyle=orthogonalEdgeStyle;rounded=0;orthogonalLoop=1;jettySize=auto;html=1;entryX=0;entryY=0.5;entryDx=0;entryDy=0;" parent="1" source="oIxDtNnSTY3G4xufg-7Y-3" target="OD1dyXAK8TXXlVN3yiVF-103" edge="1">
          <mxGeometry relative="1" as="geometry">
            <Array as="points">
              <mxPoint x="8160" y="740" />
              <mxPoint x="8160" y="3063" />
            </Array>
          </mxGeometry>
        </mxCell>
        <mxCell id="OD1dyXAK8TXXlVN3yiVF-203" style="edgeStyle=orthogonalEdgeStyle;rounded=0;orthogonalLoop=1;jettySize=auto;html=1;entryX=0;entryY=0.5;entryDx=0;entryDy=0;" parent="1" source="oIxDtNnSTY3G4xufg-7Y-3" target="oIxDtNnSTY3G4xufg-7Y-122" edge="1">
          <mxGeometry relative="1" as="geometry">
            <Array as="points">
              <mxPoint x="8160" y="740" />
              <mxPoint x="8160" y="3380" />
            </Array>
          </mxGeometry>
        </mxCell>
        <mxCell id="OD1dyXAK8TXXlVN3yiVF-204" style="edgeStyle=orthogonalEdgeStyle;rounded=0;orthogonalLoop=1;jettySize=auto;html=1;entryX=0;entryY=0.5;entryDx=0;entryDy=0;" parent="1" source="oIxDtNnSTY3G4xufg-7Y-3" target="oIxDtNnSTY3G4xufg-7Y-29" edge="1">
          <mxGeometry relative="1" as="geometry">
            <Array as="points">
              <mxPoint x="8160" y="740" />
              <mxPoint x="8160" y="3740" />
            </Array>
          </mxGeometry>
        </mxCell>
        <mxCell id="OD1dyXAK8TXXlVN3yiVF-205" style="edgeStyle=orthogonalEdgeStyle;rounded=0;orthogonalLoop=1;jettySize=auto;html=1;entryX=0;entryY=0.5;entryDx=0;entryDy=0;" parent="1" source="oIxDtNnSTY3G4xufg-7Y-3" target="OD1dyXAK8TXXlVN3yiVF-73" edge="1">
          <mxGeometry relative="1" as="geometry">
            <Array as="points">
              <mxPoint x="8160" y="740" />
              <mxPoint x="8160" y="4023" />
            </Array>
          </mxGeometry>
        </mxCell>
        <mxCell id="OD1dyXAK8TXXlVN3yiVF-207" style="edgeStyle=orthogonalEdgeStyle;rounded=0;orthogonalLoop=1;jettySize=auto;html=1;entryX=1;entryY=0.5;entryDx=0;entryDy=0;" parent="1" source="OD1dyXAK8TXXlVN3yiVF-2" target="OD1dyXAK8TXXlVN3yiVF-4" edge="1">
          <mxGeometry relative="1" as="geometry">
            <Array as="points">
              <mxPoint x="8480" y="1940" />
              <mxPoint x="8480" y="1620" />
            </Array>
          </mxGeometry>
        </mxCell>
        <mxCell id="OD1dyXAK8TXXlVN3yiVF-210" style="edgeStyle=orthogonalEdgeStyle;rounded=0;orthogonalLoop=1;jettySize=auto;html=1;entryX=0;entryY=0.5;entryDx=0;entryDy=0;" parent="1" source="oIxDtNnSTY3G4xufg-7Y-3" target="OD1dyXAK8TXXlVN3yiVF-26" edge="1">
          <mxGeometry relative="1" as="geometry">
            <Array as="points">
              <mxPoint x="8160" y="740" />
              <mxPoint x="8160" y="1300" />
            </Array>
          </mxGeometry>
        </mxCell>
        <mxCell id="OD1dyXAK8TXXlVN3yiVF-211" style="edgeStyle=orthogonalEdgeStyle;rounded=0;orthogonalLoop=1;jettySize=auto;html=1;entryX=0;entryY=0.5;entryDx=0;entryDy=0;" parent="1" source="oIxDtNnSTY3G4xufg-7Y-3" target="Wtt4kRsRGppH-S65klmJ-22" edge="1">
          <mxGeometry relative="1" as="geometry">
            <Array as="points">
              <mxPoint x="8160" y="740" />
              <mxPoint x="8160" y="1580" />
            </Array>
          </mxGeometry>
        </mxCell>
        <mxCell id="OD1dyXAK8TXXlVN3yiVF-214" style="edgeStyle=orthogonalEdgeStyle;rounded=0;orthogonalLoop=1;jettySize=auto;html=1;entryX=0;entryY=0.5;entryDx=0;entryDy=0;" parent="1" source="OD1dyXAK8TXXlVN3yiVF-16" target="OD1dyXAK8TXXlVN3yiVF-25" edge="1">
          <mxGeometry relative="1" as="geometry">
            <Array as="points">
              <mxPoint x="8120" y="1460" />
              <mxPoint x="8120" y="1340" />
            </Array>
          </mxGeometry>
        </mxCell>
        <mxCell id="OD1dyXAK8TXXlVN3yiVF-215" style="edgeStyle=orthogonalEdgeStyle;rounded=0;orthogonalLoop=1;jettySize=auto;html=1;entryX=0;entryY=0.5;entryDx=0;entryDy=0;" parent="1" source="OD1dyXAK8TXXlVN3yiVF-16" target="OD1dyXAK8TXXlVN3yiVF-83" edge="1">
          <mxGeometry relative="1" as="geometry">
            <Array as="points">
              <mxPoint x="8120" y="1460" />
              <mxPoint x="8120" y="1020" />
            </Array>
          </mxGeometry>
        </mxCell>
        <mxCell id="OD1dyXAK8TXXlVN3yiVF-216" style="edgeStyle=orthogonalEdgeStyle;rounded=0;orthogonalLoop=1;jettySize=auto;html=1;entryX=0;entryY=0.5;entryDx=0;entryDy=0;" parent="1" source="OD1dyXAK8TXXlVN3yiVF-16" target="OD1dyXAK8TXXlVN3yiVF-31" edge="1">
          <mxGeometry relative="1" as="geometry">
            <Array as="points">
              <mxPoint x="8120" y="1460" />
              <mxPoint x="8120" y="700" />
            </Array>
          </mxGeometry>
        </mxCell>
        <mxCell id="OD1dyXAK8TXXlVN3yiVF-217" style="edgeStyle=orthogonalEdgeStyle;rounded=0;orthogonalLoop=1;jettySize=auto;html=1;entryX=0;entryY=0.5;entryDx=0;entryDy=0;" parent="1" source="oIxDtNnSTY3G4xufg-7Y-3" target="OD1dyXAK8TXXlVN3yiVF-30" edge="1">
          <mxGeometry relative="1" as="geometry">
            <Array as="points">
              <mxPoint x="8160" y="740" />
              <mxPoint x="8160" y="660" />
            </Array>
          </mxGeometry>
        </mxCell>
        <mxCell id="OD1dyXAK8TXXlVN3yiVF-218" style="edgeStyle=orthogonalEdgeStyle;rounded=0;orthogonalLoop=1;jettySize=auto;html=1;entryX=0;entryY=0.5;entryDx=0;entryDy=0;" parent="1" source="oIxDtNnSTY3G4xufg-7Y-3" target="OD1dyXAK8TXXlVN3yiVF-82" edge="1">
          <mxGeometry relative="1" as="geometry">
            <Array as="points">
              <mxPoint x="8120" y="740" />
              <mxPoint x="8120" y="980" />
            </Array>
          </mxGeometry>
        </mxCell>
        <mxCell id="OD1dyXAK8TXXlVN3yiVF-219" style="edgeStyle=orthogonalEdgeStyle;rounded=0;orthogonalLoop=1;jettySize=auto;html=1;entryX=0;entryY=0.5;entryDx=0;entryDy=0;" parent="1" source="oIxDtNnSTY3G4xufg-7Y-3" target="OD1dyXAK8TXXlVN3yiVF-89" edge="1">
          <mxGeometry relative="1" as="geometry">
            <Array as="points">
              <mxPoint x="8160" y="740" />
              <mxPoint x="8160" y="340" />
            </Array>
          </mxGeometry>
        </mxCell>
        <mxCell id="OD1dyXAK8TXXlVN3yiVF-220" style="edgeStyle=orthogonalEdgeStyle;rounded=0;orthogonalLoop=1;jettySize=auto;html=1;entryX=1;entryY=0.5;entryDx=0;entryDy=0;" parent="1" source="oIxDtNnSTY3G4xufg-7Y-3" target="OD1dyXAK8TXXlVN3yiVF-57" edge="1">
          <mxGeometry relative="1" as="geometry">
            <Array as="points">
              <mxPoint x="8160" y="740" />
              <mxPoint x="8160" y="500" />
            </Array>
          </mxGeometry>
        </mxCell>
        <mxCell id="OD1dyXAK8TXXlVN3yiVF-221" style="edgeStyle=orthogonalEdgeStyle;rounded=0;orthogonalLoop=1;jettySize=auto;html=1;entryX=1;entryY=0.5;entryDx=0;entryDy=0;" parent="1" source="oIxDtNnSTY3G4xufg-7Y-3" target="OD1dyXAK8TXXlVN3yiVF-45" edge="1">
          <mxGeometry relative="1" as="geometry">
            <Array as="points">
              <mxPoint x="8160" y="740" />
              <mxPoint x="8160" y="180" />
            </Array>
          </mxGeometry>
        </mxCell>
        <mxCell id="OD1dyXAK8TXXlVN3yiVF-222" style="edgeStyle=orthogonalEdgeStyle;rounded=0;orthogonalLoop=1;jettySize=auto;html=1;entryX=1;entryY=0.5;entryDx=0;entryDy=0;" parent="1" source="oIxDtNnSTY3G4xufg-7Y-3" target="OD1dyXAK8TXXlVN3yiVF-65" edge="1">
          <mxGeometry relative="1" as="geometry">
            <Array as="points">
              <mxPoint x="7800" y="740" />
              <mxPoint x="7800" y="500" />
            </Array>
          </mxGeometry>
        </mxCell>
        <mxCell id="OD1dyXAK8TXXlVN3yiVF-223" style="edgeStyle=orthogonalEdgeStyle;rounded=0;orthogonalLoop=1;jettySize=auto;html=1;entryX=1;entryY=0.5;entryDx=0;entryDy=0;" parent="1" source="oIxDtNnSTY3G4xufg-7Y-3" target="OD1dyXAK8TXXlVN3yiVF-96" edge="1">
          <mxGeometry relative="1" as="geometry">
            <Array as="points">
              <mxPoint x="7800" y="740" />
              <mxPoint x="7800" y="140" />
            </Array>
          </mxGeometry>
        </mxCell>
        <mxCell id="XxbNxEbGSxFkQmwMolrK-1" value="&lt;font style=&quot;font-size: 14px;&quot;&gt;1&lt;/font&gt;" style="edgeLabel;html=1;align=center;verticalAlign=middle;resizable=0;points=[];" vertex="1" connectable="0" parent="OD1dyXAK8TXXlVN3yiVF-223">
          <mxGeometry x="-0.9691" y="-2" relative="1" as="geometry">
            <mxPoint x="-9" y="-8" as="offset" />
          </mxGeometry>
        </mxCell>
        <mxCell id="XxbNxEbGSxFkQmwMolrK-2" value="&lt;font style=&quot;font-size: 14px;&quot;&gt;1&lt;/font&gt;" style="edgeLabel;html=1;align=center;verticalAlign=middle;resizable=0;points=[];" vertex="1" connectable="0" parent="OD1dyXAK8TXXlVN3yiVF-223">
          <mxGeometry x="-0.9691" y="-2" relative="1" as="geometry">
            <mxPoint x="-89" y="-8" as="offset" />
          </mxGeometry>
        </mxCell>
        <mxCell id="XxbNxEbGSxFkQmwMolrK-3" value="&lt;font style=&quot;font-size: 14px;&quot;&gt;1&lt;/font&gt;" style="edgeLabel;html=1;align=center;verticalAlign=middle;resizable=0;points=[];" vertex="1" connectable="0" parent="OD1dyXAK8TXXlVN3yiVF-223">
          <mxGeometry x="-0.9691" y="-2" relative="1" as="geometry">
            <mxPoint x="-369" y="-8" as="offset" />
          </mxGeometry>
        </mxCell>
        <mxCell id="XxbNxEbGSxFkQmwMolrK-4" value="&lt;font style=&quot;font-size: 14px;&quot;&gt;1&lt;/font&gt;" style="edgeLabel;html=1;align=center;verticalAlign=middle;resizable=0;points=[];" vertex="1" connectable="0" parent="OD1dyXAK8TXXlVN3yiVF-223">
          <mxGeometry x="-0.9691" y="-2" relative="1" as="geometry">
            <mxPoint x="271" y="-8" as="offset" />
          </mxGeometry>
        </mxCell>
        <mxCell id="XxbNxEbGSxFkQmwMolrK-5" value="&lt;font style=&quot;font-size: 14px;&quot;&gt;1&lt;/font&gt;" style="edgeLabel;html=1;align=center;verticalAlign=middle;resizable=0;points=[];" vertex="1" connectable="0" parent="OD1dyXAK8TXXlVN3yiVF-223">
          <mxGeometry x="-0.9691" y="-2" relative="1" as="geometry">
            <mxPoint x="351" y="-128" as="offset" />
          </mxGeometry>
        </mxCell>
        <mxCell id="XxbNxEbGSxFkQmwMolrK-6" value="&lt;font style=&quot;font-size: 14px;&quot;&gt;1&lt;/font&gt;" style="edgeLabel;html=1;align=center;verticalAlign=middle;resizable=0;points=[];" vertex="1" connectable="0" parent="OD1dyXAK8TXXlVN3yiVF-223">
          <mxGeometry x="-0.9691" y="-2" relative="1" as="geometry">
            <mxPoint x="-9" y="-648" as="offset" />
          </mxGeometry>
        </mxCell>
        <mxCell id="XxbNxEbGSxFkQmwMolrK-7" value="&lt;font style=&quot;font-size: 14px;&quot;&gt;1&lt;/font&gt;" style="edgeLabel;html=1;align=center;verticalAlign=middle;resizable=0;points=[];" vertex="1" connectable="0" parent="OD1dyXAK8TXXlVN3yiVF-223">
          <mxGeometry x="-0.9691" y="-2" relative="1" as="geometry">
            <mxPoint x="262" y="712" as="offset" />
          </mxGeometry>
        </mxCell>
        <mxCell id="XxbNxEbGSxFkQmwMolrK-8" value="&lt;span style=&quot;font-size: 14px;&quot;&gt;N&lt;/span&gt;" style="edgeLabel;html=1;align=center;verticalAlign=middle;resizable=0;points=[];" vertex="1" connectable="0" parent="OD1dyXAK8TXXlVN3yiVF-223">
          <mxGeometry x="-0.9691" y="-2" relative="1" as="geometry">
            <mxPoint x="-8" y="-848" as="offset" />
          </mxGeometry>
        </mxCell>
        <mxCell id="XxbNxEbGSxFkQmwMolrK-9" value="&lt;span style=&quot;font-size: 14px;&quot;&gt;N&lt;/span&gt;" style="edgeLabel;html=1;align=center;verticalAlign=middle;resizable=0;points=[];" vertex="1" connectable="0" parent="OD1dyXAK8TXXlVN3yiVF-223">
          <mxGeometry x="-0.9691" y="-2" relative="1" as="geometry">
            <mxPoint x="-89" y="-608" as="offset" />
          </mxGeometry>
        </mxCell>
        <mxCell id="XxbNxEbGSxFkQmwMolrK-10" value="&lt;span style=&quot;font-size: 14px;&quot;&gt;N&lt;/span&gt;" style="edgeLabel;html=1;align=center;verticalAlign=middle;resizable=0;points=[];" vertex="1" connectable="0" parent="OD1dyXAK8TXXlVN3yiVF-223">
          <mxGeometry x="-0.9691" y="-2" relative="1" as="geometry">
            <mxPoint x="-89" y="-568" as="offset" />
          </mxGeometry>
        </mxCell>
        <mxCell id="XxbNxEbGSxFkQmwMolrK-11" value="&lt;span style=&quot;font-size: 14px;&quot;&gt;N&lt;/span&gt;" style="edgeLabel;html=1;align=center;verticalAlign=middle;resizable=0;points=[];" vertex="1" connectable="0" parent="OD1dyXAK8TXXlVN3yiVF-223">
          <mxGeometry x="-0.9691" y="-2" relative="1" as="geometry">
            <mxPoint x="351" y="-648" as="offset" />
          </mxGeometry>
        </mxCell>
        <mxCell id="XxbNxEbGSxFkQmwMolrK-12" value="&lt;span style=&quot;font-size: 14px;&quot;&gt;N&lt;/span&gt;" style="edgeLabel;html=1;align=center;verticalAlign=middle;resizable=0;points=[];" vertex="1" connectable="0" parent="OD1dyXAK8TXXlVN3yiVF-223">
          <mxGeometry x="-0.9691" y="-2" relative="1" as="geometry">
            <mxPoint x="271" y="-608" as="offset" />
          </mxGeometry>
        </mxCell>
        <mxCell id="XxbNxEbGSxFkQmwMolrK-13" value="&lt;span style=&quot;font-size: 14px;&quot;&gt;N&lt;/span&gt;" style="edgeLabel;html=1;align=center;verticalAlign=middle;resizable=0;points=[];" vertex="1" connectable="0" parent="OD1dyXAK8TXXlVN3yiVF-223">
          <mxGeometry x="-0.9691" y="-2" relative="1" as="geometry">
            <mxPoint x="271" y="-568" as="offset" />
          </mxGeometry>
        </mxCell>
        <mxCell id="XxbNxEbGSxFkQmwMolrK-14" value="&lt;span style=&quot;font-size: 14px;&quot;&gt;N&lt;/span&gt;" style="edgeLabel;html=1;align=center;verticalAlign=middle;resizable=0;points=[];" vertex="1" connectable="0" parent="OD1dyXAK8TXXlVN3yiVF-223">
          <mxGeometry x="-0.9691" y="-2" relative="1" as="geometry">
            <mxPoint x="351" y="-408" as="offset" />
          </mxGeometry>
        </mxCell>
        <mxCell id="XxbNxEbGSxFkQmwMolrK-15" value="&lt;span style=&quot;font-size: 14px;&quot;&gt;N&lt;/span&gt;" style="edgeLabel;html=1;align=center;verticalAlign=middle;resizable=0;points=[];" vertex="1" connectable="0" parent="OD1dyXAK8TXXlVN3yiVF-223">
          <mxGeometry x="-0.9691" y="-2" relative="1" as="geometry">
            <mxPoint x="351" y="-368" as="offset" />
          </mxGeometry>
        </mxCell>
        <mxCell id="XxbNxEbGSxFkQmwMolrK-16" value="&lt;span style=&quot;font-size: 14px;&quot;&gt;N&lt;/span&gt;" style="edgeLabel;html=1;align=center;verticalAlign=middle;resizable=0;points=[];" vertex="1" connectable="0" parent="OD1dyXAK8TXXlVN3yiVF-223">
          <mxGeometry x="-0.9691" y="-2" relative="1" as="geometry">
            <mxPoint x="271" y="-288" as="offset" />
          </mxGeometry>
        </mxCell>
        <mxCell id="XxbNxEbGSxFkQmwMolrK-17" value="&lt;span style=&quot;font-size: 14px;&quot;&gt;N&lt;/span&gt;" style="edgeLabel;html=1;align=center;verticalAlign=middle;resizable=0;points=[];" vertex="1" connectable="0" parent="OD1dyXAK8TXXlVN3yiVF-223">
          <mxGeometry x="-0.9691" y="-2" relative="1" as="geometry">
            <mxPoint x="271" y="-248" as="offset" />
          </mxGeometry>
        </mxCell>
        <mxCell id="XxbNxEbGSxFkQmwMolrK-18" value="&lt;span style=&quot;font-size: 14px;&quot;&gt;N&lt;/span&gt;" style="edgeLabel;html=1;align=center;verticalAlign=middle;resizable=0;points=[];" vertex="1" connectable="0" parent="OD1dyXAK8TXXlVN3yiVF-223">
          <mxGeometry x="-0.9691" y="-2" relative="1" as="geometry">
            <mxPoint x="-89" y="-288" as="offset" />
          </mxGeometry>
        </mxCell>
        <mxCell id="XxbNxEbGSxFkQmwMolrK-19" value="&lt;span style=&quot;font-size: 14px;&quot;&gt;N&lt;/span&gt;" style="edgeLabel;html=1;align=center;verticalAlign=middle;resizable=0;points=[];" vertex="1" connectable="0" parent="OD1dyXAK8TXXlVN3yiVF-223">
          <mxGeometry x="-0.9691" y="-2" relative="1" as="geometry">
            <mxPoint x="-89" y="-248" as="offset" />
          </mxGeometry>
        </mxCell>
        <mxCell id="XxbNxEbGSxFkQmwMolrK-20" value="&lt;span style=&quot;font-size: 14px;&quot;&gt;N&lt;/span&gt;" style="edgeLabel;html=1;align=center;verticalAlign=middle;resizable=0;points=[];" vertex="1" connectable="0" parent="OD1dyXAK8TXXlVN3yiVF-223">
          <mxGeometry x="-0.9691" y="-2" relative="1" as="geometry">
            <mxPoint x="351" y="-48" as="offset" />
          </mxGeometry>
        </mxCell>
        <mxCell id="XxbNxEbGSxFkQmwMolrK-21" value="&lt;span style=&quot;font-size: 14px;&quot;&gt;N&lt;/span&gt;" style="edgeLabel;html=1;align=center;verticalAlign=middle;resizable=0;points=[];" vertex="1" connectable="0" parent="OD1dyXAK8TXXlVN3yiVF-223">
          <mxGeometry x="-0.9691" y="-2" relative="1" as="geometry">
            <mxPoint x="351" y="-88" as="offset" />
          </mxGeometry>
        </mxCell>
        <mxCell id="XxbNxEbGSxFkQmwMolrK-22" value="&lt;span style=&quot;font-size: 14px;&quot;&gt;N&lt;/span&gt;" style="edgeLabel;html=1;align=center;verticalAlign=middle;resizable=0;points=[];" vertex="1" connectable="0" parent="OD1dyXAK8TXXlVN3yiVF-223">
          <mxGeometry x="-0.9691" y="-2" relative="1" as="geometry">
            <mxPoint x="-9" y="152" as="offset" />
          </mxGeometry>
        </mxCell>
        <mxCell id="XxbNxEbGSxFkQmwMolrK-23" value="&lt;span style=&quot;font-size: 14px;&quot;&gt;N&lt;/span&gt;" style="edgeLabel;html=1;align=center;verticalAlign=middle;resizable=0;points=[];" vertex="1" connectable="0" parent="OD1dyXAK8TXXlVN3yiVF-223">
          <mxGeometry x="-0.9691" y="-2" relative="1" as="geometry">
            <mxPoint x="351" y="232" as="offset" />
          </mxGeometry>
        </mxCell>
        <mxCell id="XxbNxEbGSxFkQmwMolrK-24" value="&lt;span style=&quot;font-size: 14px;&quot;&gt;N&lt;/span&gt;" style="edgeLabel;html=1;align=center;verticalAlign=middle;resizable=0;points=[];" vertex="1" connectable="0" parent="OD1dyXAK8TXXlVN3yiVF-223">
          <mxGeometry x="-0.9691" y="-2" relative="1" as="geometry">
            <mxPoint x="351" y="272" as="offset" />
          </mxGeometry>
        </mxCell>
        <mxCell id="XxbNxEbGSxFkQmwMolrK-25" value="&lt;span style=&quot;font-size: 14px;&quot;&gt;N&lt;/span&gt;" style="edgeLabel;html=1;align=center;verticalAlign=middle;resizable=0;points=[];" vertex="1" connectable="0" parent="OD1dyXAK8TXXlVN3yiVF-223">
          <mxGeometry x="-0.9691" y="-2" relative="1" as="geometry">
            <mxPoint x="-9" y="352" as="offset" />
          </mxGeometry>
        </mxCell>
        <mxCell id="XxbNxEbGSxFkQmwMolrK-26" value="&lt;span style=&quot;font-size: 14px;&quot;&gt;N&lt;/span&gt;" style="edgeLabel;html=1;align=center;verticalAlign=middle;resizable=0;points=[];" vertex="1" connectable="0" parent="OD1dyXAK8TXXlVN3yiVF-223">
          <mxGeometry x="-0.9691" y="-2" relative="1" as="geometry">
            <mxPoint x="-9" y="392" as="offset" />
          </mxGeometry>
        </mxCell>
        <mxCell id="XxbNxEbGSxFkQmwMolrK-27" value="&lt;span style=&quot;font-size: 14px;&quot;&gt;N&lt;/span&gt;" style="edgeLabel;html=1;align=center;verticalAlign=middle;resizable=0;points=[];" vertex="1" connectable="0" parent="OD1dyXAK8TXXlVN3yiVF-223">
          <mxGeometry x="-0.9691" y="-2" relative="1" as="geometry">
            <mxPoint x="-89" y="352" as="offset" />
          </mxGeometry>
        </mxCell>
        <mxCell id="XxbNxEbGSxFkQmwMolrK-28" value="&lt;span style=&quot;font-size: 14px;&quot;&gt;N&lt;/span&gt;" style="edgeLabel;html=1;align=center;verticalAlign=middle;resizable=0;points=[];" vertex="1" connectable="0" parent="OD1dyXAK8TXXlVN3yiVF-223">
          <mxGeometry x="-0.9691" y="-2" relative="1" as="geometry">
            <mxPoint x="351" y="552" as="offset" />
          </mxGeometry>
        </mxCell>
        <mxCell id="XxbNxEbGSxFkQmwMolrK-29" value="&lt;span style=&quot;font-size: 14px;&quot;&gt;N&lt;/span&gt;" style="edgeLabel;html=1;align=center;verticalAlign=middle;resizable=0;points=[];" vertex="1" connectable="0" parent="OD1dyXAK8TXXlVN3yiVF-223">
          <mxGeometry x="-0.9691" y="-2" relative="1" as="geometry">
            <mxPoint x="351" y="592" as="offset" />
          </mxGeometry>
        </mxCell>
        <mxCell id="XxbNxEbGSxFkQmwMolrK-30" value="&lt;span style=&quot;font-size: 14px;&quot;&gt;N&lt;/span&gt;" style="edgeLabel;html=1;align=center;verticalAlign=middle;resizable=0;points=[];" vertex="1" connectable="0" parent="OD1dyXAK8TXXlVN3yiVF-223">
          <mxGeometry x="-0.9691" y="-2" relative="1" as="geometry">
            <mxPoint x="-89" y="632" as="offset" />
          </mxGeometry>
        </mxCell>
        <mxCell id="XxbNxEbGSxFkQmwMolrK-31" value="&lt;span style=&quot;font-size: 14px;&quot;&gt;N&lt;/span&gt;" style="edgeLabel;html=1;align=center;verticalAlign=middle;resizable=0;points=[];" vertex="1" connectable="0" parent="OD1dyXAK8TXXlVN3yiVF-223">
          <mxGeometry x="-0.9691" y="-2" relative="1" as="geometry">
            <mxPoint x="-9" y="752" as="offset" />
          </mxGeometry>
        </mxCell>
        <mxCell id="XxbNxEbGSxFkQmwMolrK-32" value="&lt;span style=&quot;font-size: 14px;&quot;&gt;N&lt;/span&gt;" style="edgeLabel;html=1;align=center;verticalAlign=middle;resizable=0;points=[];" vertex="1" connectable="0" parent="OD1dyXAK8TXXlVN3yiVF-223">
          <mxGeometry x="-0.9691" y="-2" relative="1" as="geometry">
            <mxPoint x="-9" y="792" as="offset" />
          </mxGeometry>
        </mxCell>
        <mxCell id="XxbNxEbGSxFkQmwMolrK-33" value="&lt;span style=&quot;font-size: 14px;&quot;&gt;N&lt;/span&gt;" style="edgeLabel;html=1;align=center;verticalAlign=middle;resizable=0;points=[];" vertex="1" connectable="0" parent="OD1dyXAK8TXXlVN3yiVF-223">
          <mxGeometry x="-0.9691" y="-2" relative="1" as="geometry">
            <mxPoint x="351" y="832" as="offset" />
          </mxGeometry>
        </mxCell>
        <mxCell id="XxbNxEbGSxFkQmwMolrK-34" value="&lt;span style=&quot;font-size: 14px;&quot;&gt;N&lt;/span&gt;" style="edgeLabel;html=1;align=center;verticalAlign=middle;resizable=0;points=[];" vertex="1" connectable="0" parent="OD1dyXAK8TXXlVN3yiVF-223">
          <mxGeometry x="-0.9691" y="-2" relative="1" as="geometry">
            <mxPoint x="-89" y="912" as="offset" />
          </mxGeometry>
        </mxCell>
        <mxCell id="XxbNxEbGSxFkQmwMolrK-35" value="&lt;span style=&quot;font-size: 14px;&quot;&gt;N&lt;/span&gt;" style="edgeLabel;html=1;align=center;verticalAlign=middle;resizable=0;points=[];" vertex="1" connectable="0" parent="OD1dyXAK8TXXlVN3yiVF-223">
          <mxGeometry x="-0.9691" y="-2" relative="1" as="geometry">
            <mxPoint x="271" y="1112" as="offset" />
          </mxGeometry>
        </mxCell>
        <mxCell id="XxbNxEbGSxFkQmwMolrK-36" value="&lt;span style=&quot;font-size: 14px;&quot;&gt;N&lt;/span&gt;" style="edgeLabel;html=1;align=center;verticalAlign=middle;resizable=0;points=[];" vertex="1" connectable="0" parent="OD1dyXAK8TXXlVN3yiVF-223">
          <mxGeometry x="-0.9691" y="-2" relative="1" as="geometry">
            <mxPoint x="-9" y="1152" as="offset" />
          </mxGeometry>
        </mxCell>
        <mxCell id="XxbNxEbGSxFkQmwMolrK-37" value="&lt;span style=&quot;font-size: 14px;&quot;&gt;N&lt;/span&gt;" style="edgeLabel;html=1;align=center;verticalAlign=middle;resizable=0;points=[];" vertex="1" connectable="0" parent="OD1dyXAK8TXXlVN3yiVF-223">
          <mxGeometry x="-0.9691" y="-2" relative="1" as="geometry">
            <mxPoint x="-89" y="1232" as="offset" />
          </mxGeometry>
        </mxCell>
        <mxCell id="XxbNxEbGSxFkQmwMolrK-38" value="&lt;span style=&quot;font-size: 14px;&quot;&gt;N&lt;/span&gt;" style="edgeLabel;html=1;align=center;verticalAlign=middle;resizable=0;points=[];" vertex="1" connectable="0" parent="OD1dyXAK8TXXlVN3yiVF-223">
          <mxGeometry x="-0.9691" y="-2" relative="1" as="geometry">
            <mxPoint x="351" y="1432" as="offset" />
          </mxGeometry>
        </mxCell>
        <mxCell id="XxbNxEbGSxFkQmwMolrK-39" value="&lt;span style=&quot;font-size: 14px;&quot;&gt;N&lt;/span&gt;" style="edgeLabel;html=1;align=center;verticalAlign=middle;resizable=0;points=[];" vertex="1" connectable="0" parent="OD1dyXAK8TXXlVN3yiVF-223">
          <mxGeometry x="-0.9691" y="-2" relative="1" as="geometry">
            <mxPoint x="351" y="1472" as="offset" />
          </mxGeometry>
        </mxCell>
        <mxCell id="XxbNxEbGSxFkQmwMolrK-40" value="&lt;span style=&quot;font-size: 14px;&quot;&gt;N&lt;/span&gt;" style="edgeLabel;html=1;align=center;verticalAlign=middle;resizable=0;points=[];" vertex="1" connectable="0" parent="OD1dyXAK8TXXlVN3yiVF-223">
          <mxGeometry x="-0.9691" y="-2" relative="1" as="geometry">
            <mxPoint x="-89" y="1552" as="offset" />
          </mxGeometry>
        </mxCell>
        <mxCell id="XxbNxEbGSxFkQmwMolrK-41" value="&lt;span style=&quot;font-size: 14px;&quot;&gt;N&lt;/span&gt;" style="edgeLabel;html=1;align=center;verticalAlign=middle;resizable=0;points=[];" vertex="1" connectable="0" parent="OD1dyXAK8TXXlVN3yiVF-223">
          <mxGeometry x="-0.9691" y="-2" relative="1" as="geometry">
            <mxPoint x="-449" y="112" as="offset" />
          </mxGeometry>
        </mxCell>
        <mxCell id="XxbNxEbGSxFkQmwMolrK-42" value="&lt;span style=&quot;font-size: 14px;&quot;&gt;N&lt;/span&gt;" style="edgeLabel;html=1;align=center;verticalAlign=middle;resizable=0;points=[];" vertex="1" connectable="0" parent="OD1dyXAK8TXXlVN3yiVF-223">
          <mxGeometry x="-0.9691" y="-2" relative="1" as="geometry">
            <mxPoint x="-729" y="72" as="offset" />
          </mxGeometry>
        </mxCell>
        <mxCell id="XxbNxEbGSxFkQmwMolrK-43" value="&lt;span style=&quot;font-size: 14px;&quot;&gt;N&lt;/span&gt;" style="edgeLabel;html=1;align=center;verticalAlign=middle;resizable=0;points=[];" vertex="1" connectable="0" parent="OD1dyXAK8TXXlVN3yiVF-223">
          <mxGeometry x="-0.9691" y="-2" relative="1" as="geometry">
            <mxPoint x="-369" y="312" as="offset" />
          </mxGeometry>
        </mxCell>
        <mxCell id="XxbNxEbGSxFkQmwMolrK-44" value="&lt;span style=&quot;font-size: 14px;&quot;&gt;N&lt;/span&gt;" style="edgeLabel;html=1;align=center;verticalAlign=middle;resizable=0;points=[];" vertex="1" connectable="0" parent="OD1dyXAK8TXXlVN3yiVF-223">
          <mxGeometry x="-0.9691" y="-2" relative="1" as="geometry">
            <mxPoint x="-729" y="312" as="offset" />
          </mxGeometry>
        </mxCell>
        <mxCell id="XxbNxEbGSxFkQmwMolrK-45" value="&lt;span style=&quot;font-size: 14px;&quot;&gt;N&lt;/span&gt;" style="edgeLabel;html=1;align=center;verticalAlign=middle;resizable=0;points=[];" vertex="1" connectable="0" parent="OD1dyXAK8TXXlVN3yiVF-223">
          <mxGeometry x="-0.9691" y="-2" relative="1" as="geometry">
            <mxPoint x="-729" y="352" as="offset" />
          </mxGeometry>
        </mxCell>
        <mxCell id="XxbNxEbGSxFkQmwMolrK-46" value="&lt;span style=&quot;font-size: 14px;&quot;&gt;N&lt;/span&gt;" style="edgeLabel;html=1;align=center;verticalAlign=middle;resizable=0;points=[];" vertex="1" connectable="0" parent="OD1dyXAK8TXXlVN3yiVF-223">
          <mxGeometry x="-0.9691" y="-2" relative="1" as="geometry">
            <mxPoint x="-729" y="592" as="offset" />
          </mxGeometry>
        </mxCell>
        <mxCell id="XxbNxEbGSxFkQmwMolrK-47" value="&lt;span style=&quot;font-size: 14px;&quot;&gt;N&lt;/span&gt;" style="edgeLabel;html=1;align=center;verticalAlign=middle;resizable=0;points=[];" vertex="1" connectable="0" parent="OD1dyXAK8TXXlVN3yiVF-223">
          <mxGeometry x="-0.9691" y="-2" relative="1" as="geometry">
            <mxPoint x="-449" y="632" as="offset" />
          </mxGeometry>
        </mxCell>
        <mxCell id="XxbNxEbGSxFkQmwMolrK-48" value="&lt;span style=&quot;font-size: 14px;&quot;&gt;N&lt;/span&gt;" style="edgeLabel;html=1;align=center;verticalAlign=middle;resizable=0;points=[];" vertex="1" connectable="0" parent="OD1dyXAK8TXXlVN3yiVF-223">
          <mxGeometry x="-0.9691" y="-2" relative="1" as="geometry">
            <mxPoint x="-369" y="672" as="offset" />
          </mxGeometry>
        </mxCell>
        <mxCell id="XxbNxEbGSxFkQmwMolrK-49" value="&lt;span style=&quot;font-size: 14px;&quot;&gt;N&lt;/span&gt;" style="edgeLabel;html=1;align=center;verticalAlign=middle;resizable=0;points=[];" vertex="1" connectable="0" parent="OD1dyXAK8TXXlVN3yiVF-223">
          <mxGeometry x="-0.9691" y="-2" relative="1" as="geometry">
            <mxPoint x="-369" y="952" as="offset" />
          </mxGeometry>
        </mxCell>
        <mxCell id="XxbNxEbGSxFkQmwMolrK-50" value="&lt;span style=&quot;font-size: 14px;&quot;&gt;N&lt;/span&gt;" style="edgeLabel;html=1;align=center;verticalAlign=middle;resizable=0;points=[];" vertex="1" connectable="0" parent="OD1dyXAK8TXXlVN3yiVF-223">
          <mxGeometry x="-0.9691" y="-2" relative="1" as="geometry">
            <mxPoint x="-449" y="952" as="offset" />
          </mxGeometry>
        </mxCell>
        <mxCell id="XxbNxEbGSxFkQmwMolrK-51" value="&lt;span style=&quot;font-size: 14px;&quot;&gt;N&lt;/span&gt;" style="edgeLabel;html=1;align=center;verticalAlign=middle;resizable=0;points=[];" vertex="1" connectable="0" parent="OD1dyXAK8TXXlVN3yiVF-223">
          <mxGeometry x="-0.9691" y="-2" relative="1" as="geometry">
            <mxPoint x="-729" y="912" as="offset" />
          </mxGeometry>
        </mxCell>
        <mxCell id="XxbNxEbGSxFkQmwMolrK-52" value="&lt;span style=&quot;font-size: 14px;&quot;&gt;N&lt;/span&gt;" style="edgeLabel;html=1;align=center;verticalAlign=middle;resizable=0;points=[];" vertex="1" connectable="0" parent="OD1dyXAK8TXXlVN3yiVF-223">
          <mxGeometry x="-0.9691" y="-2" relative="1" as="geometry">
            <mxPoint x="-729" y="1232" as="offset" />
          </mxGeometry>
        </mxCell>
        <mxCell id="XxbNxEbGSxFkQmwMolrK-53" value="&lt;span style=&quot;font-size: 14px;&quot;&gt;N&lt;/span&gt;" style="edgeLabel;html=1;align=center;verticalAlign=middle;resizable=0;points=[];" vertex="1" connectable="0" parent="OD1dyXAK8TXXlVN3yiVF-223">
          <mxGeometry x="-0.9691" y="-2" relative="1" as="geometry">
            <mxPoint x="-369" y="1192" as="offset" />
          </mxGeometry>
        </mxCell>
        <mxCell id="XxbNxEbGSxFkQmwMolrK-54" value="&lt;span style=&quot;font-size: 14px;&quot;&gt;N&lt;/span&gt;" style="edgeLabel;html=1;align=center;verticalAlign=middle;resizable=0;points=[];" vertex="1" connectable="0" parent="OD1dyXAK8TXXlVN3yiVF-223">
          <mxGeometry x="-0.9691" y="-2" relative="1" as="geometry">
            <mxPoint x="-449" y="1272" as="offset" />
          </mxGeometry>
        </mxCell>
        <mxCell id="XxbNxEbGSxFkQmwMolrK-55" value="&lt;span style=&quot;font-size: 14px;&quot;&gt;N&lt;/span&gt;" style="edgeLabel;html=1;align=center;verticalAlign=middle;resizable=0;points=[];" vertex="1" connectable="0" parent="OD1dyXAK8TXXlVN3yiVF-223">
          <mxGeometry x="-0.9691" y="-2" relative="1" as="geometry">
            <mxPoint x="-369" y="1592" as="offset" />
          </mxGeometry>
        </mxCell>
        <mxCell id="XxbNxEbGSxFkQmwMolrK-56" value="&lt;span style=&quot;font-size: 14px;&quot;&gt;N&lt;/span&gt;" style="edgeLabel;html=1;align=center;verticalAlign=middle;resizable=0;points=[];" vertex="1" connectable="0" parent="OD1dyXAK8TXXlVN3yiVF-223">
          <mxGeometry x="-0.9691" y="-2" relative="1" as="geometry">
            <mxPoint x="-9" y="1712" as="offset" />
          </mxGeometry>
        </mxCell>
        <mxCell id="XxbNxEbGSxFkQmwMolrK-57" value="&lt;span style=&quot;font-size: 14px;&quot;&gt;N&lt;/span&gt;" style="edgeLabel;html=1;align=center;verticalAlign=middle;resizable=0;points=[];" vertex="1" connectable="0" parent="OD1dyXAK8TXXlVN3yiVF-223">
          <mxGeometry x="-0.9691" y="-2" relative="1" as="geometry">
            <mxPoint x="-89" y="1872" as="offset" />
          </mxGeometry>
        </mxCell>
        <mxCell id="XxbNxEbGSxFkQmwMolrK-58" value="&lt;span style=&quot;font-size: 14px;&quot;&gt;N&lt;/span&gt;" style="edgeLabel;html=1;align=center;verticalAlign=middle;resizable=0;points=[];" vertex="1" connectable="0" parent="OD1dyXAK8TXXlVN3yiVF-223">
          <mxGeometry x="-0.9691" y="-2" relative="1" as="geometry">
            <mxPoint x="-89" y="1912" as="offset" />
          </mxGeometry>
        </mxCell>
        <mxCell id="XxbNxEbGSxFkQmwMolrK-59" value="&lt;span style=&quot;font-size: 14px;&quot;&gt;N&lt;/span&gt;" style="edgeLabel;html=1;align=center;verticalAlign=middle;resizable=0;points=[];" vertex="1" connectable="0" parent="OD1dyXAK8TXXlVN3yiVF-223">
          <mxGeometry x="-0.9691" y="-2" relative="1" as="geometry">
            <mxPoint x="-369" y="1952" as="offset" />
          </mxGeometry>
        </mxCell>
        <mxCell id="XxbNxEbGSxFkQmwMolrK-60" value="&lt;span style=&quot;font-size: 14px;&quot;&gt;N&lt;/span&gt;" style="edgeLabel;html=1;align=center;verticalAlign=middle;resizable=0;points=[];" vertex="1" connectable="0" parent="OD1dyXAK8TXXlVN3yiVF-223">
          <mxGeometry x="-0.9691" y="-2" relative="1" as="geometry">
            <mxPoint x="-9" y="2272" as="offset" />
          </mxGeometry>
        </mxCell>
        <mxCell id="XxbNxEbGSxFkQmwMolrK-61" value="&lt;span style=&quot;font-size: 14px;&quot;&gt;N&lt;/span&gt;" style="edgeLabel;html=1;align=center;verticalAlign=middle;resizable=0;points=[];" vertex="1" connectable="0" parent="OD1dyXAK8TXXlVN3yiVF-223">
          <mxGeometry x="-0.9691" y="-2" relative="1" as="geometry">
            <mxPoint x="-369" y="2232" as="offset" />
          </mxGeometry>
        </mxCell>
        <mxCell id="XxbNxEbGSxFkQmwMolrK-62" value="&lt;span style=&quot;font-size: 14px;&quot;&gt;N&lt;/span&gt;" style="edgeLabel;html=1;align=center;verticalAlign=middle;resizable=0;points=[];" vertex="1" connectable="0" parent="OD1dyXAK8TXXlVN3yiVF-223">
          <mxGeometry x="-0.9691" y="-2" relative="1" as="geometry">
            <mxPoint x="-369" y="2472" as="offset" />
          </mxGeometry>
        </mxCell>
        <mxCell id="XxbNxEbGSxFkQmwMolrK-63" value="&lt;span style=&quot;font-size: 14px;&quot;&gt;N&lt;/span&gt;" style="edgeLabel;html=1;align=center;verticalAlign=middle;resizable=0;points=[];" vertex="1" connectable="0" parent="OD1dyXAK8TXXlVN3yiVF-223">
          <mxGeometry x="-0.9691" y="-2" relative="1" as="geometry">
            <mxPoint x="-89" y="2432" as="offset" />
          </mxGeometry>
        </mxCell>
        <mxCell id="XxbNxEbGSxFkQmwMolrK-64" value="&lt;span style=&quot;font-size: 14px;&quot;&gt;N&lt;/span&gt;" style="edgeLabel;html=1;align=center;verticalAlign=middle;resizable=0;points=[];" vertex="1" connectable="0" parent="OD1dyXAK8TXXlVN3yiVF-223">
          <mxGeometry x="-0.9691" y="-2" relative="1" as="geometry">
            <mxPoint x="-369" y="2672" as="offset" />
          </mxGeometry>
        </mxCell>
        <mxCell id="XxbNxEbGSxFkQmwMolrK-65" value="&lt;span style=&quot;font-size: 14px;&quot;&gt;N&lt;/span&gt;" style="edgeLabel;html=1;align=center;verticalAlign=middle;resizable=0;points=[];" vertex="1" connectable="0" parent="OD1dyXAK8TXXlVN3yiVF-223">
          <mxGeometry x="-0.9691" y="-2" relative="1" as="geometry">
            <mxPoint x="-369" y="2752" as="offset" />
          </mxGeometry>
        </mxCell>
        <mxCell id="XxbNxEbGSxFkQmwMolrK-66" value="&lt;span style=&quot;font-size: 14px;&quot;&gt;N&lt;/span&gt;" style="edgeLabel;html=1;align=center;verticalAlign=middle;resizable=0;points=[];" vertex="1" connectable="0" parent="OD1dyXAK8TXXlVN3yiVF-223">
          <mxGeometry x="-0.9691" y="-2" relative="1" as="geometry">
            <mxPoint x="-9" y="2752" as="offset" />
          </mxGeometry>
        </mxCell>
        <mxCell id="XxbNxEbGSxFkQmwMolrK-67" value="&lt;span style=&quot;font-size: 14px;&quot;&gt;N&lt;/span&gt;" style="edgeLabel;html=1;align=center;verticalAlign=middle;resizable=0;points=[];" vertex="1" connectable="0" parent="OD1dyXAK8TXXlVN3yiVF-223">
          <mxGeometry x="-0.9691" y="-2" relative="1" as="geometry">
            <mxPoint x="-9" y="2792" as="offset" />
          </mxGeometry>
        </mxCell>
        <mxCell id="XxbNxEbGSxFkQmwMolrK-68" value="&lt;font style=&quot;font-size: 14px;&quot;&gt;1&lt;/font&gt;" style="edgeLabel;html=1;align=center;verticalAlign=middle;resizable=0;points=[];" vertex="1" connectable="0" parent="OD1dyXAK8TXXlVN3yiVF-223">
          <mxGeometry x="-0.9691" y="-2" relative="1" as="geometry">
            <mxPoint x="-729" y="-168" as="offset" />
          </mxGeometry>
        </mxCell>
        <mxCell id="XxbNxEbGSxFkQmwMolrK-69" value="&lt;font style=&quot;font-size: 14px;&quot;&gt;1&lt;/font&gt;" style="edgeLabel;html=1;align=center;verticalAlign=middle;resizable=0;points=[];" vertex="1" connectable="0" parent="OD1dyXAK8TXXlVN3yiVF-223">
          <mxGeometry x="-0.9691" y="-2" relative="1" as="geometry">
            <mxPoint x="-729" y="-328" as="offset" />
          </mxGeometry>
        </mxCell>
        <mxCell id="XxbNxEbGSxFkQmwMolrK-70" value="&lt;font style=&quot;font-size: 14px;&quot;&gt;1&lt;/font&gt;" style="edgeLabel;html=1;align=center;verticalAlign=middle;resizable=0;points=[];" vertex="1" connectable="0" parent="OD1dyXAK8TXXlVN3yiVF-223">
          <mxGeometry x="-0.9691" y="-2" relative="1" as="geometry">
            <mxPoint x="-449" y="272" as="offset" />
          </mxGeometry>
        </mxCell>
        <mxCell id="XxbNxEbGSxFkQmwMolrK-71" value="&lt;font style=&quot;font-size: 14px;&quot;&gt;1&lt;/font&gt;" style="edgeLabel;html=1;align=center;verticalAlign=middle;resizable=0;points=[];" vertex="1" connectable="0" parent="OD1dyXAK8TXXlVN3yiVF-223">
          <mxGeometry x="-0.9691" y="-2" relative="1" as="geometry">
            <mxPoint x="-729" y="272" as="offset" />
          </mxGeometry>
        </mxCell>
        <mxCell id="XxbNxEbGSxFkQmwMolrK-72" value="&lt;font style=&quot;font-size: 14px;&quot;&gt;1&lt;/font&gt;" style="edgeLabel;html=1;align=center;verticalAlign=middle;resizable=0;points=[];" vertex="1" connectable="0" parent="OD1dyXAK8TXXlVN3yiVF-223">
          <mxGeometry x="-0.9691" y="-2" relative="1" as="geometry">
            <mxPoint x="-729" y="272" as="offset" />
          </mxGeometry>
        </mxCell>
        <mxCell id="XxbNxEbGSxFkQmwMolrK-73" value="&lt;font style=&quot;font-size: 14px;&quot;&gt;1&lt;/font&gt;" style="edgeLabel;html=1;align=center;verticalAlign=middle;resizable=0;points=[];" vertex="1" connectable="0" parent="OD1dyXAK8TXXlVN3yiVF-223">
          <mxGeometry x="-0.9691" y="-2" relative="1" as="geometry">
            <mxPoint x="-449" y="272" as="offset" />
          </mxGeometry>
        </mxCell>
        <mxCell id="XxbNxEbGSxFkQmwMolrK-74" value="&lt;font style=&quot;font-size: 14px;&quot;&gt;1&lt;/font&gt;" style="edgeLabel;html=1;align=center;verticalAlign=middle;resizable=0;points=[];" vertex="1" connectable="0" parent="OD1dyXAK8TXXlVN3yiVF-223">
          <mxGeometry x="-0.9691" y="-2" relative="1" as="geometry">
            <mxPoint x="-449" y="1112" as="offset" />
          </mxGeometry>
        </mxCell>
        <mxCell id="XxbNxEbGSxFkQmwMolrK-75" value="&lt;font style=&quot;font-size: 14px;&quot;&gt;1&lt;/font&gt;" style="edgeLabel;html=1;align=center;verticalAlign=middle;resizable=0;points=[];" vertex="1" connectable="0" parent="OD1dyXAK8TXXlVN3yiVF-223">
          <mxGeometry x="-0.9691" y="-2" relative="1" as="geometry">
            <mxPoint x="-369" y="2185" as="offset" />
          </mxGeometry>
        </mxCell>
        <mxCell id="XxbNxEbGSxFkQmwMolrK-76" value="&lt;font style=&quot;font-size: 14px;&quot;&gt;1&lt;/font&gt;" style="edgeLabel;html=1;align=center;verticalAlign=middle;resizable=0;points=[];" vertex="1" connectable="0" parent="OD1dyXAK8TXXlVN3yiVF-223">
          <mxGeometry x="-0.9691" y="-2" relative="1" as="geometry">
            <mxPoint x="-9" y="2712" as="offset" />
          </mxGeometry>
        </mxCell>
        <mxCell id="XxbNxEbGSxFkQmwMolrK-77" value="&lt;font style=&quot;font-size: 14px;&quot;&gt;1&lt;/font&gt;" style="edgeLabel;html=1;align=center;verticalAlign=middle;resizable=0;points=[];" vertex="1" connectable="0" parent="OD1dyXAK8TXXlVN3yiVF-223">
          <mxGeometry x="-0.9691" y="-2" relative="1" as="geometry">
            <mxPoint x="-9" y="3392" as="offset" />
          </mxGeometry>
        </mxCell>
        <mxCell id="XxbNxEbGSxFkQmwMolrK-78" value="&lt;span style=&quot;font-size: 14px;&quot;&gt;N&lt;/span&gt;" style="edgeLabel;html=1;align=center;verticalAlign=middle;resizable=0;points=[];" vertex="1" connectable="0" parent="OD1dyXAK8TXXlVN3yiVF-223">
          <mxGeometry x="-0.9691" y="-2" relative="1" as="geometry">
            <mxPoint x="-89" y="2992" as="offset" />
          </mxGeometry>
        </mxCell>
        <mxCell id="XxbNxEbGSxFkQmwMolrK-79" value="&lt;span style=&quot;font-size: 14px;&quot;&gt;N&lt;/span&gt;" style="edgeLabel;html=1;align=center;verticalAlign=middle;resizable=0;points=[];" vertex="1" connectable="0" parent="OD1dyXAK8TXXlVN3yiVF-223">
          <mxGeometry x="-0.9691" y="-2" relative="1" as="geometry">
            <mxPoint x="-369" y="2952" as="offset" />
          </mxGeometry>
        </mxCell>
        <mxCell id="XxbNxEbGSxFkQmwMolrK-80" value="&lt;span style=&quot;font-size: 14px;&quot;&gt;N&lt;/span&gt;" style="edgeLabel;html=1;align=center;verticalAlign=middle;resizable=0;points=[];" vertex="1" connectable="0" parent="OD1dyXAK8TXXlVN3yiVF-223">
          <mxGeometry x="-0.9691" y="-2" relative="1" as="geometry">
            <mxPoint x="-9" y="3192" as="offset" />
          </mxGeometry>
        </mxCell>
        <mxCell id="XxbNxEbGSxFkQmwMolrK-81" value="&lt;span style=&quot;font-size: 14px;&quot;&gt;N&lt;/span&gt;" style="edgeLabel;html=1;align=center;verticalAlign=middle;resizable=0;points=[];" vertex="1" connectable="0" parent="OD1dyXAK8TXXlVN3yiVF-223">
          <mxGeometry x="-0.9691" y="-2" relative="1" as="geometry">
            <mxPoint x="-9" y="3222" as="offset" />
          </mxGeometry>
        </mxCell>
        <mxCell id="XxbNxEbGSxFkQmwMolrK-82" value="&lt;font style=&quot;font-size: 14px;&quot;&gt;1&lt;/font&gt;" style="edgeLabel;html=1;align=center;verticalAlign=middle;resizable=0;points=[];" vertex="1" connectable="0" parent="OD1dyXAK8TXXlVN3yiVF-223">
          <mxGeometry x="-0.9691" y="-2" relative="1" as="geometry">
            <mxPoint x="631" y="1192" as="offset" />
          </mxGeometry>
        </mxCell>
        <mxCell id="XxbNxEbGSxFkQmwMolrK-83" value="&lt;span style=&quot;font-size: 14px;&quot;&gt;N&lt;/span&gt;" style="edgeLabel;html=1;align=center;verticalAlign=middle;resizable=0;points=[];" vertex="1" connectable="0" parent="OD1dyXAK8TXXlVN3yiVF-223">
          <mxGeometry x="-0.9691" y="-2" relative="1" as="geometry">
            <mxPoint x="631" y="872" as="offset" />
          </mxGeometry>
        </mxCell>
        <mxCell id="XxbNxEbGSxFkQmwMolrK-84" value="&lt;font style=&quot;font-size: 14px;&quot;&gt;1&lt;/font&gt;" style="edgeLabel;html=1;align=center;verticalAlign=middle;resizable=0;points=[];" vertex="1" connectable="0" parent="OD1dyXAK8TXXlVN3yiVF-223">
          <mxGeometry x="-0.9691" y="-2" relative="1" as="geometry">
            <mxPoint x="271" y="1952" as="offset" />
          </mxGeometry>
        </mxCell>
        <mxCell id="XxbNxEbGSxFkQmwMolrK-85" value="&lt;font style=&quot;font-size: 14px;&quot;&gt;1&lt;/font&gt;" style="edgeLabel;html=1;align=center;verticalAlign=middle;resizable=0;points=[];" vertex="1" connectable="0" parent="OD1dyXAK8TXXlVN3yiVF-223">
          <mxGeometry x="-0.9691" y="-2" relative="1" as="geometry">
            <mxPoint x="271" y="1392" as="offset" />
          </mxGeometry>
        </mxCell>
        <mxCell id="XxbNxEbGSxFkQmwMolrK-86" value="&lt;span style=&quot;font-size: 14px;&quot;&gt;N&lt;/span&gt;" style="edgeLabel;html=1;align=center;verticalAlign=middle;resizable=0;points=[];" vertex="1" connectable="0" parent="OD1dyXAK8TXXlVN3yiVF-223">
          <mxGeometry x="-0.9691" y="-2" relative="1" as="geometry">
            <mxPoint x="351" y="1712" as="offset" />
          </mxGeometry>
        </mxCell>
        <mxCell id="XxbNxEbGSxFkQmwMolrK-87" value="&lt;span style=&quot;font-size: 14px;&quot;&gt;N&lt;/span&gt;" style="edgeLabel;html=1;align=center;verticalAlign=middle;resizable=0;points=[];" vertex="1" connectable="0" parent="OD1dyXAK8TXXlVN3yiVF-223">
          <mxGeometry x="-0.9691" y="-2" relative="1" as="geometry">
            <mxPoint x="351" y="1752" as="offset" />
          </mxGeometry>
        </mxCell>
        <mxCell id="XxbNxEbGSxFkQmwMolrK-88" value="&lt;span style=&quot;font-size: 14px;&quot;&gt;N&lt;/span&gt;" style="edgeLabel;html=1;align=center;verticalAlign=middle;resizable=0;points=[];" vertex="1" connectable="0" parent="OD1dyXAK8TXXlVN3yiVF-223">
          <mxGeometry x="-0.9691" y="-2" relative="1" as="geometry">
            <mxPoint x="271" y="1672" as="offset" />
          </mxGeometry>
        </mxCell>
        <mxCell id="XxbNxEbGSxFkQmwMolrK-89" value="&lt;span style=&quot;font-size: 14px;&quot;&gt;N&lt;/span&gt;" style="edgeLabel;html=1;align=center;verticalAlign=middle;resizable=0;points=[];" vertex="1" connectable="0" parent="OD1dyXAK8TXXlVN3yiVF-223">
          <mxGeometry x="-0.9691" y="-2" relative="1" as="geometry">
            <mxPoint x="351" y="1992" as="offset" />
          </mxGeometry>
        </mxCell>
        <mxCell id="XxbNxEbGSxFkQmwMolrK-90" value="&lt;span style=&quot;font-size: 14px;&quot;&gt;N&lt;/span&gt;" style="edgeLabel;html=1;align=center;verticalAlign=middle;resizable=0;points=[];" vertex="1" connectable="0" parent="OD1dyXAK8TXXlVN3yiVF-223">
          <mxGeometry x="-0.9691" y="-2" relative="1" as="geometry">
            <mxPoint x="351" y="2032" as="offset" />
          </mxGeometry>
        </mxCell>
        <mxCell id="XxbNxEbGSxFkQmwMolrK-91" value="&lt;span style=&quot;font-size: 14px;&quot;&gt;N&lt;/span&gt;" style="edgeLabel;html=1;align=center;verticalAlign=middle;resizable=0;points=[];" vertex="1" connectable="0" parent="OD1dyXAK8TXXlVN3yiVF-223">
          <mxGeometry x="-0.9691" y="-2" relative="1" as="geometry">
            <mxPoint x="351" y="2312" as="offset" />
          </mxGeometry>
        </mxCell>
        <mxCell id="XxbNxEbGSxFkQmwMolrK-92" value="&lt;span style=&quot;font-size: 14px;&quot;&gt;N&lt;/span&gt;" style="edgeLabel;html=1;align=center;verticalAlign=middle;resizable=0;points=[];" vertex="1" connectable="0" parent="OD1dyXAK8TXXlVN3yiVF-223">
          <mxGeometry x="-0.9691" y="-2" relative="1" as="geometry">
            <mxPoint x="271" y="2232" as="offset" />
          </mxGeometry>
        </mxCell>
        <mxCell id="XxbNxEbGSxFkQmwMolrK-93" value="&lt;span style=&quot;font-size: 14px;&quot;&gt;N&lt;/span&gt;" style="edgeLabel;html=1;align=center;verticalAlign=middle;resizable=0;points=[];" vertex="1" connectable="0" parent="OD1dyXAK8TXXlVN3yiVF-223">
          <mxGeometry x="-0.9691" y="-2" relative="1" as="geometry">
            <mxPoint x="351" y="2632" as="offset" />
          </mxGeometry>
        </mxCell>
        <mxCell id="XxbNxEbGSxFkQmwMolrK-94" value="&lt;span style=&quot;font-size: 14px;&quot;&gt;N&lt;/span&gt;" style="edgeLabel;html=1;align=center;verticalAlign=middle;resizable=0;points=[];" vertex="1" connectable="0" parent="OD1dyXAK8TXXlVN3yiVF-223">
          <mxGeometry x="-0.9691" y="-2" relative="1" as="geometry">
            <mxPoint x="351" y="2672" as="offset" />
          </mxGeometry>
        </mxCell>
        <mxCell id="XxbNxEbGSxFkQmwMolrK-95" value="&lt;span style=&quot;font-size: 14px;&quot;&gt;N&lt;/span&gt;" style="edgeLabel;html=1;align=center;verticalAlign=middle;resizable=0;points=[];" vertex="1" connectable="0" parent="OD1dyXAK8TXXlVN3yiVF-223">
          <mxGeometry x="-0.9691" y="-2" relative="1" as="geometry">
            <mxPoint x="631" y="2352" as="offset" />
          </mxGeometry>
        </mxCell>
        <mxCell id="XxbNxEbGSxFkQmwMolrK-96" value="&lt;font style=&quot;font-size: 14px;&quot;&gt;1&lt;/font&gt;" style="edgeLabel;html=1;align=center;verticalAlign=middle;resizable=0;points=[];" vertex="1" connectable="0" parent="OD1dyXAK8TXXlVN3yiVF-223">
          <mxGeometry x="-0.9691" y="-2" relative="1" as="geometry">
            <mxPoint x="631" y="2592" as="offset" />
          </mxGeometry>
        </mxCell>
        <mxCell id="XxbNxEbGSxFkQmwMolrK-97" value="&lt;font style=&quot;font-size: 14px;&quot;&gt;1&lt;/font&gt;" style="edgeLabel;html=1;align=center;verticalAlign=middle;resizable=0;points=[];" vertex="1" connectable="0" parent="OD1dyXAK8TXXlVN3yiVF-223">
          <mxGeometry x="-0.9691" y="-2" relative="1" as="geometry">
            <mxPoint x="271" y="2712" as="offset" />
          </mxGeometry>
        </mxCell>
        <mxCell id="XxbNxEbGSxFkQmwMolrK-98" value="&lt;span style=&quot;font-size: 14px;&quot;&gt;N&lt;/span&gt;" style="edgeLabel;html=1;align=center;verticalAlign=middle;resizable=0;points=[];" vertex="1" connectable="0" parent="OD1dyXAK8TXXlVN3yiVF-223">
          <mxGeometry x="-0.9691" y="-2" relative="1" as="geometry">
            <mxPoint x="351" y="2992" as="offset" />
          </mxGeometry>
        </mxCell>
        <mxCell id="XxbNxEbGSxFkQmwMolrK-99" value="&lt;span style=&quot;font-size: 14px;&quot;&gt;N&lt;/span&gt;" style="edgeLabel;html=1;align=center;verticalAlign=middle;resizable=0;points=[];" vertex="1" connectable="0" parent="OD1dyXAK8TXXlVN3yiVF-223">
          <mxGeometry x="-0.9691" y="-2" relative="1" as="geometry">
            <mxPoint x="351" y="3032" as="offset" />
          </mxGeometry>
        </mxCell>
        <mxCell id="XxbNxEbGSxFkQmwMolrK-100" value="&lt;span style=&quot;font-size: 14px;&quot;&gt;N&lt;/span&gt;" style="edgeLabel;html=1;align=center;verticalAlign=middle;resizable=0;points=[];" vertex="1" connectable="0" parent="OD1dyXAK8TXXlVN3yiVF-223">
          <mxGeometry x="-0.9691" y="-2" relative="1" as="geometry">
            <mxPoint x="351" y="3272" as="offset" />
          </mxGeometry>
        </mxCell>
        <mxCell id="XxbNxEbGSxFkQmwMolrK-101" value="&lt;span style=&quot;font-size: 14px;&quot;&gt;N&lt;/span&gt;" style="edgeLabel;html=1;align=center;verticalAlign=middle;resizable=0;points=[];" vertex="1" connectable="0" parent="OD1dyXAK8TXXlVN3yiVF-223">
          <mxGeometry x="-0.9691" y="-2" relative="1" as="geometry">
            <mxPoint x="351" y="3312" as="offset" />
          </mxGeometry>
        </mxCell>
        <mxCell id="OD1dyXAK8TXXlVN3yiVF-225" style="edgeStyle=orthogonalEdgeStyle;rounded=0;orthogonalLoop=1;jettySize=auto;html=1;entryX=1;entryY=0.5;entryDx=0;entryDy=0;" parent="1" source="OD1dyXAK8TXXlVN3yiVF-29" target="OD1dyXAK8TXXlVN3yiVF-56" edge="1">
          <mxGeometry relative="1" as="geometry">
            <Array as="points">
              <mxPoint x="8120" y="620" />
              <mxPoint x="8120" y="460" />
            </Array>
          </mxGeometry>
        </mxCell>
        <mxCell id="OD1dyXAK8TXXlVN3yiVF-226" style="edgeStyle=orthogonalEdgeStyle;rounded=0;orthogonalLoop=1;jettySize=auto;html=1;entryX=0;entryY=0.5;entryDx=0;entryDy=0;" parent="1" source="OD1dyXAK8TXXlVN3yiVF-29" target="OD1dyXAK8TXXlVN3yiVF-90" edge="1">
          <mxGeometry relative="1" as="geometry">
            <Array as="points">
              <mxPoint x="8120" y="620" />
              <mxPoint x="8120" y="380" />
            </Array>
          </mxGeometry>
        </mxCell>
        <mxCell id="OD1dyXAK8TXXlVN3yiVF-227" style="edgeStyle=orthogonalEdgeStyle;rounded=0;orthogonalLoop=1;jettySize=auto;html=1;entryX=1;entryY=0.5;entryDx=0;entryDy=0;" parent="1" source="OD1dyXAK8TXXlVN3yiVF-29" target="OD1dyXAK8TXXlVN3yiVF-44" edge="1">
          <mxGeometry relative="1" as="geometry">
            <Array as="points">
              <mxPoint x="8120" y="620" />
              <mxPoint x="8120" y="140" />
            </Array>
          </mxGeometry>
        </mxCell>
        <mxCell id="OD1dyXAK8TXXlVN3yiVF-228" style="edgeStyle=orthogonalEdgeStyle;rounded=0;orthogonalLoop=1;jettySize=auto;html=1;entryX=0;entryY=0.5;entryDx=0;entryDy=0;" parent="1" source="OD1dyXAK8TXXlVN3yiVF-29" target="OD1dyXAK8TXXlVN3yiVF-35" edge="1">
          <mxGeometry relative="1" as="geometry">
            <Array as="points">
              <mxPoint x="8120" y="620" />
              <mxPoint x="8120" y="100" />
            </Array>
          </mxGeometry>
        </mxCell>
        <mxCell id="OD1dyXAK8TXXlVN3yiVF-229" style="edgeStyle=orthogonalEdgeStyle;rounded=0;orthogonalLoop=1;jettySize=auto;html=1;entryX=1;entryY=0.5;entryDx=0;entryDy=0;" parent="1" source="OD1dyXAK8TXXlVN3yiVF-43" target="OD1dyXAK8TXXlVN3yiVF-97" edge="1">
          <mxGeometry relative="1" as="geometry">
            <Array as="points">
              <mxPoint x="7760" y="100" />
              <mxPoint x="7760" y="180" />
            </Array>
          </mxGeometry>
        </mxCell>
        <mxCell id="OD1dyXAK8TXXlVN3yiVF-230" style="edgeStyle=orthogonalEdgeStyle;rounded=0;orthogonalLoop=1;jettySize=auto;html=1;entryX=1;entryY=0.5;entryDx=0;entryDy=0;" parent="1" source="OD1dyXAK8TXXlVN3yiVF-43" target="OD1dyXAK8TXXlVN3yiVF-68" edge="1">
          <mxGeometry relative="1" as="geometry">
            <Array as="points">
              <mxPoint x="7760" y="100" />
              <mxPoint x="7760" y="460" />
            </Array>
          </mxGeometry>
        </mxCell>
        <mxCell id="OD1dyXAK8TXXlVN3yiVF-231" style="edgeStyle=orthogonalEdgeStyle;rounded=0;orthogonalLoop=1;jettySize=auto;html=1;entryX=0;entryY=0.5;entryDx=0;entryDy=0;" parent="1" source="OD1dyXAK8TXXlVN3yiVF-43" target="OD1dyXAK8TXXlVN3yiVF-50" edge="1">
          <mxGeometry relative="1" as="geometry">
            <Array as="points">
              <mxPoint x="7760" y="100" />
              <mxPoint x="7760" y="-100" />
            </Array>
          </mxGeometry>
        </mxCell>
        <mxCell id="XxbNxEbGSxFkQmwMolrK-103" value="&lt;font style=&quot;font-size: 32px;&quot;&gt;Схема базы данных приложения по изучению языков: &lt;b&gt;&lt;i&gt;SLOVO&lt;/i&gt;&lt;/b&gt;&lt;/font&gt;" style="rounded=0;whiteSpace=wrap;html=1;strokeWidth=0;strokeColor=#FFFFFF;align=center;" vertex="1" parent="1">
          <mxGeometry x="7000" y="-360" width="1480" height="80" as="geometry" />
        </mxCell>
      </root>
    </mxGraphModel>
  </diagram>
</mxfile>
